<svg width="32" height="32" viewBox="0 0 32 32" fill="none" xmlns="http://www.w3.org/2000/svg">
<path d="M29 16C29 16.2873 28.8859 16.5629 28.6827 16.766C28.4795 16.9692 28.204 17.0833 27.9167 17.0833H17.0833V27.9167C17.0833 28.204 16.9692 28.4795 16.766 28.6827C16.5629 28.8859 16.2873 29 16 29C15.7127 29 15.4371 28.8859 15.234 28.6827C15.0308 28.4795 14.9167 28.204 14.9167 27.9167V17.0833H4.08333C3.79602 17.0833 3.52047 16.9692 3.3173 16.766C3.11414 16.5629 3 16.2873 3 16C3 15.7127 3.11414 15.4371 3.3173 15.234C3.52047 15.0308 3.79602 14.9167 4.08333 14.9167H14.9167V4.08333C14.9167 3.79602 15.0308 3.52047 15.234 3.3173C15.4371 3.11414 15.7127 3 16 3C16.2873 3 16.5629 3.11414 16.766 3.3173C16.9692 3.52047 17.0833 3.79602 17.0833 4.08333V14.9167H27.9167C28.204 14.9167 28.4795 15.0308 28.6827 15.234C28.8859 15.4371 29 15.7127 29 16Z" fill="#1A1A19"/>
</svg>
