<svg width="32" height="32" viewBox="0 0 32 32" fill="none" xmlns="http://www.w3.org/2000/svg">
<path fill-rule="evenodd" clip-rule="evenodd" d="M3 16C3 16.2357 3.09782 16.4618 3.27195 16.6284C3.44608 16.7951 3.68225 16.8888 3.92851 16.8888L25.8284 16.8888L19.9843 22.4809C19.898 22.5635 19.8295 22.6616 19.7828 22.7696C19.7361 22.8775 19.712 22.9933 19.712 23.1101C19.712 23.227 19.7361 23.3427 19.7828 23.4507C19.8295 23.5586 19.898 23.6567 19.9843 23.7394C20.0707 23.822 20.1732 23.8875 20.286 23.9323C20.3988 23.977 20.5196 24 20.6417 24C20.7638 24 20.8847 23.977 20.9975 23.9323C21.1103 23.8875 21.2128 23.822 21.2991 23.7394L28.7272 16.6292C28.8137 16.5467 28.8823 16.4486 28.9291 16.3406C28.9759 16.2327 29 16.1169 29 16C29 15.8831 28.9759 15.7673 28.9291 15.6594C28.8823 15.5514 28.8137 15.4533 28.7272 15.3708L21.2991 8.26064C21.2128 8.17801 21.1103 8.11246 20.9975 8.06774C20.8847 8.02302 20.7638 8 20.6417 8C20.5196 8 20.3988 8.02302 20.286 8.06774C20.1732 8.11246 20.0707 8.17801 19.9843 8.26064C19.898 8.34328 19.8295 8.44137 19.7828 8.54934C19.7361 8.65731 19.712 8.77302 19.712 8.88989C19.712 9.00675 19.7361 9.12247 19.7828 9.23043C19.8295 9.3384 19.898 9.4365 19.9843 9.51913L25.8284 15.1112L3.92851 15.1112C3.68225 15.1112 3.44608 15.2049 3.27195 15.3715C3.09782 15.5382 3 15.7643 3 16Z" fill="#1A1A19"/>
</svg>
