<svg width="32" height="32" viewBox="0 0 32 32" fill="none" xmlns="http://www.w3.org/2000/svg">
<path fill-rule="evenodd" clip-rule="evenodd" d="M29 16C29 15.7643 28.9022 15.5382 28.728 15.3716C28.5539 15.2049 28.3177 15.1112 28.0715 15.1112H6.1716L12.0157 9.51913C12.102 9.4365 12.1705 9.3384 12.2172 9.23043C12.2639 9.12247 12.288 9.00675 12.288 8.88989C12.288 8.77303 12.2639 8.65731 12.2172 8.54934C12.1705 8.44138 12.102 8.34328 12.0157 8.26064C11.9293 8.17801 11.8268 8.11246 11.714 8.06774C11.6012 8.02302 11.4804 8 11.3583 8C11.2362 8 11.1153 8.02302 11.0025 8.06774C10.8897 8.11246 10.7872 8.17801 10.7009 8.26064L3.27279 15.3708C3.18632 15.4533 3.11771 15.5514 3.0709 15.6594C3.02409 15.7673 3 15.8831 3 16C3 16.1169 3.02409 16.2327 3.0709 16.3406C3.11771 16.4486 3.18632 16.5467 3.27279 16.6292L10.7009 23.7394C10.7872 23.822 10.8897 23.8875 11.0025 23.9323C11.1153 23.977 11.2362 24 11.3583 24C11.4804 24 11.6012 23.977 11.714 23.9323C11.8268 23.8875 11.9293 23.822 12.0157 23.7394C12.102 23.6567 12.1705 23.5586 12.2172 23.4507C12.2639 23.3427 12.288 23.227 12.288 23.1101C12.288 22.9933 12.2639 22.8775 12.2172 22.7696C12.1705 22.6616 12.102 22.5635 12.0157 22.4809L6.1716 16.8888H28.0715C28.3177 16.8888 28.5539 16.7951 28.728 16.6285C28.9022 16.4618 29 16.2357 29 16Z" fill="#1A1A19"/>
</svg>
