<svg width="24" height="24" viewBox="0 0 24 24" fill="none" xmlns="http://www.w3.org/2000/svg">
<path fill-rule="evenodd" clip-rule="evenodd" d="M7.304 13.0707C7.56326 13.4284 7.48341 13.9286 7.12565 14.1879V14.1879C5.42099 15.4232 4.41498 17.0138 4.30927 19.0366C4.35576 19.0729 4.4089 19.1131 4.46877 19.1567C4.76699 19.3736 5.23216 19.6725 5.87426 19.9746C7.15536 20.5775 9.15441 21.2 11.9599 21.2C14.7654 21.2 16.7644 20.5775 18.0455 19.9746C18.6876 19.6725 19.1528 19.3736 19.451 19.1567C19.512 19.1123 19.566 19.0714 19.6132 19.0346C19.5756 18.0357 19.3769 17.1872 18.9777 16.4518C18.534 15.6342 17.8083 14.8936 16.6431 14.2371V14.2371C16.2582 14.0202 16.122 13.5323 16.3389 13.1474V13.1474C16.5557 12.7625 17.0436 12.6262 17.4285 12.8431V12.8431C18.8044 13.6184 19.7709 14.5591 20.3839 15.6885C20.9942 16.8128 21.22 18.0611 21.2198 19.3971C21.2198 19.6092 21.1355 19.8126 20.9855 19.9626L20.4198 19.397C20.9855 19.9626 20.9855 19.9626 20.9855 19.9626L20.9841 19.964L20.9825 19.9656L20.9785 19.9695L20.9677 19.9801C20.9591 19.9884 20.9479 19.999 20.934 20.0119C20.9063 20.0377 20.8679 20.0725 20.8187 20.1149C20.7203 20.1997 20.5785 20.3151 20.3921 20.4507C20.0192 20.7219 19.4676 21.0737 18.7268 21.4223C17.2422 22.121 15.0113 22.8 11.9599 22.8C8.90852 22.8 6.67763 22.121 5.19299 21.4223C4.45222 21.0737 3.90058 20.7219 3.5277 20.4507C3.34128 20.3151 3.19953 20.1997 3.10112 20.1149C3.05191 20.0725 3.01352 20.0377 2.98578 20.0119C2.97191 19.999 2.9607 19.9884 2.95213 19.9801L2.94125 19.9695L2.93729 19.9656L2.93568 19.964L2.93496 19.9633C2.93496 19.9633 2.93431 19.9626 3.5 19.397L2.93496 19.9633C2.78498 19.8133 2.70005 19.6093 2.7 19.3972C2.69931 16.6049 4.03993 14.4481 6.18678 12.8923V12.8923C6.54454 12.6331 7.04474 12.7129 7.304 13.0707V13.0707Z" fill="#000D0B"/>
<path fill-rule="evenodd" clip-rule="evenodd" d="M11.9599 2.8C9.8859 2.8 8.20458 4.48132 8.20458 6.55533C8.20458 7.62251 8.64739 8.92677 9.38896 9.96104C10.1394 11.0077 11.0677 11.6122 11.9599 11.6122C12.8521 11.6122 13.7804 11.0077 14.5309 9.96104C15.2724 8.92677 15.7152 7.62251 15.7152 6.55533C15.7152 4.48132 14.0339 2.8 11.9599 2.8ZM6.60458 6.55533C6.60458 3.59766 9.00225 1.2 11.9599 1.2C14.9176 1.2 17.3152 3.59766 17.3152 6.55533C17.3152 8.00399 16.7383 9.62816 15.8312 10.8934C14.9329 12.1461 13.5835 13.2122 11.9599 13.2122C10.3363 13.2122 8.98689 12.1461 8.08865 10.8934C7.18152 9.62816 6.60458 8.00399 6.60458 6.55533Z" fill="#000D0B"/>
</svg>
