<svg width="32" height="32" viewBox="0 0 32 32" fill="none" xmlns="http://www.w3.org/2000/svg">
<rect width="32" height="32" rx="16" fill="#BBBCBF"/>
<path fill-rule="evenodd" clip-rule="evenodd" d="M12.478 16.803C12.6725 17.0713 12.6126 17.4465 12.3443 17.6409C11.0658 18.5674 10.3113 19.7604 10.232 21.2775C10.2668 21.3047 10.3067 21.3349 10.3516 21.3675C10.5753 21.5302 10.9241 21.7544 11.4057 21.981C12.3665 22.4331 13.8658 22.9 15.9699 22.9C18.0741 22.9 19.5733 22.4331 20.5342 21.981C21.0157 21.7544 21.3646 21.5302 21.5883 21.3675C21.634 21.3343 21.6746 21.3035 21.7099 21.2759C21.6817 20.5268 21.5327 19.8904 21.2333 19.3389C20.9005 18.7257 20.3562 18.1702 19.4824 17.6778C19.1937 17.5152 19.0915 17.1492 19.2542 16.8606C19.4168 16.5719 19.7827 16.4697 20.0714 16.6324C21.1033 17.2138 21.8282 17.9193 22.288 18.7664C22.7457 19.6096 22.915 20.5458 22.9149 21.5478C22.9148 21.7069 22.8516 21.8595 22.7391 21.972L22.3149 21.5477C22.7391 21.972 22.7391 21.972 22.7391 21.972L22.7381 21.973L22.7369 21.9742L22.7339 21.9771L22.7258 21.9851C22.7193 21.9913 22.7109 21.9993 22.7005 22.009C22.6797 22.0283 22.6509 22.0544 22.614 22.0862C22.5402 22.1498 22.4339 22.2363 22.2941 22.338C22.0144 22.5414 21.6007 22.8053 21.0451 23.0668C19.9316 23.5907 18.2585 24.1 15.9699 24.1C13.6814 24.1 12.0082 23.5907 10.8948 23.0668C10.3392 22.8053 9.92546 22.5414 9.6458 22.338C9.50599 22.2363 9.39968 22.1498 9.32587 22.0862C9.28896 22.0544 9.26016 22.0283 9.23936 22.009C9.22896 21.9993 9.22055 21.9913 9.21412 21.9851L9.20596 21.9771L9.20299 21.9742L9.20178 21.973L9.20125 21.9725C9.20125 21.9725 9.20076 21.972 9.62502 21.5477L9.20125 21.9725C9.08876 21.86 9.02506 21.707 9.02502 21.5479C9.02451 19.4536 10.03 17.8361 11.6401 16.6692C11.9084 16.4748 12.2836 16.5347 12.478 16.803Z" fill="white"/>
<path fill-rule="evenodd" clip-rule="evenodd" d="M15.97 9.09999C14.4145 9.09999 13.1535 10.361 13.1535 11.9165C13.1535 12.7169 13.4856 13.6951 14.0418 14.4708C14.6046 15.2558 15.3008 15.7091 15.97 15.7091C16.6392 15.7091 17.3354 15.2558 17.8982 14.4708C18.4544 13.6951 18.7865 12.7169 18.7865 11.9165C18.7865 10.361 17.5255 9.09999 15.97 9.09999ZM11.9535 11.9165C11.9535 9.69824 13.7517 7.89999 15.97 7.89999C18.1882 7.89999 19.9865 9.69824 19.9865 11.9165C19.9865 13.003 19.5538 14.2211 18.8734 15.17C18.1998 16.1096 17.1877 16.9091 15.97 16.9091C14.7523 16.9091 13.7402 16.1096 13.0665 15.17C12.3862 14.2211 11.9535 13.003 11.9535 11.9165Z" fill="white"/>
</svg>
