<svg width="32" height="32" viewBox="0 0 32 32" fill="none" xmlns="http://www.w3.org/2000/svg">
<path d="M13.6589 27.1401C14.3354 27.6441 15.1563 27.9165 15.9999 27.9167L13.6589 27.1401ZM13.6589 27.1401C13.2687 26.8493 12.9385 26.4903 12.6827 26.0833M13.6589 27.1401L12.6827 26.0833M12.6827 26.0833H19.3173C19.0615 26.4903 18.7313 26.8493 18.3411 27.1401C17.6646 27.6441 16.8437 27.9165 16.0001 27.9167L12.6827 26.0833ZM24.2665 17.6058L24.2667 17.606L27 21.25C27 21.25 27 21.25 27 21.25C27.1393 21.4357 27.2241 21.6566 27.2449 21.8877C27.2658 22.1189 27.2218 22.3514 27.118 22.559C27.0142 22.7667 26.8546 22.9413 26.6572 23.0633C26.4597 23.1854 26.2321 23.25 26 23.25H6C5.76786 23.25 5.54031 23.1854 5.34284 23.0633C5.14537 22.9413 4.98578 22.7667 4.88197 22.559L4.21115 22.8944L4.88197 22.559C4.77815 22.3514 4.7342 22.1189 4.75505 21.8877C4.7759 21.6566 4.86071 21.4357 4.99997 21.25C4.99998 21.25 4.99999 21.25 5 21.25L7.73331 17.606L7.73333 17.606C8.39326 16.7261 8.75 15.6559 8.75 14.556V10.6667C8.75 8.74385 9.51384 6.89979 10.8735 5.54015C12.2331 4.18051 14.0772 3.41667 16 3.41667C17.9228 3.41667 19.7669 4.18051 21.1265 5.54015C22.4862 6.89979 23.25 8.74385 23.25 10.6667V14.556C23.25 15.6557 23.6067 16.7255 24.2665 17.6058Z" stroke="#1A1A19" stroke-width="1.5"/>
</svg>
