<svg width="32" height="32" viewBox="0 0 32 32" fill="none" xmlns="http://www.w3.org/2000/svg">
<path d="M8 10.6667C8 8.54494 8.84286 6.51011 10.3431 5.00982C11.8434 3.50953 13.8783 2.66667 16 2.66667C18.1217 2.66667 20.1566 3.50953 21.6569 5.00982C23.1571 6.51011 24 8.54494 24 10.6667V14.556C24 15.4933 24.304 16.4053 24.8667 17.156L27.6 20.8C27.8229 21.0971 27.9586 21.4505 27.9919 21.8204C28.0253 22.1903 27.955 22.5622 27.7889 22.8944C27.6227 23.2266 27.3674 23.506 27.0515 23.7013C26.7355 23.8966 26.3714 24 26 24H6C5.62858 24 5.26449 23.8966 4.94854 23.7013C4.63259 23.506 4.37725 23.2266 4.21115 22.8944C4.04504 22.5622 3.97473 22.1903 4.00808 21.8204C4.04144 21.4505 4.17715 21.0971 4.4 20.8L7.13333 17.156C7.6959 16.4059 8 15.4936 8 14.556V10.6667ZM16 28.6667C14.9949 28.6665 14.0167 28.342 13.2108 27.7415C12.4049 27.1409 11.8142 26.2964 11.5267 25.3333H20.4733C20.1858 26.2964 19.5951 27.1409 18.7892 27.7415C17.9833 28.342 17.0051 28.6665 16 28.6667Z" fill="#1A1A19"/>
</svg>
