<svg width="61" height="60" viewBox="0 0 61 60" fill="none" xmlns="http://www.w3.org/2000/svg">
<g clip-path="url(#clip0_356_129)">
<path d="M30.1644 59.9964C46.7318 59.9964 60.1623 46.5659 60.1623 29.9985C60.1623 13.431 46.7318 0.000488281 30.1644 0.000488281C13.5969 0.000488281 0.166382 13.431 0.166382 29.9985C0.166382 46.5659 13.5969 59.9964 30.1644 59.9964Z" fill="url(#paint0_linear_356_129)"/>
<path d="M30.1643 48.384C40.3184 48.384 48.5499 40.1525 48.5499 29.9984C48.5499 19.8444 40.3184 11.6129 30.1643 11.6129C20.0103 11.6129 11.7787 19.8444 11.7787 29.9984C11.7787 40.1525 20.0103 48.384 30.1643 48.384Z" fill="url(#paint1_linear_356_129)"/>
<path d="M19.519 17.4191C26.2963 17.4191 27.2633 21.2912 28.2303 24.1963C30.4569 30.8802 28.2303 32.7289 32.1025 35.8087C36.9416 39.6768 35.0035 49.3551 23.3911 49.3551C15.6712 49.3551 7.90662 44.6907 7.90662 33.8706C7.90662 23.2253 12.762 17.4191 19.519 17.4191Z" fill="url(#paint2_linear_356_129)"/>
<path d="M19.519 17.4191C26.2963 17.4191 27.2633 21.2912 28.2303 24.1963C30.4569 30.8802 28.2303 32.7289 32.1025 35.8087C36.9416 39.6768 35.0035 49.3551 23.3911 49.3551C15.6712 49.3551 7.90662 44.6907 7.90662 33.8706C7.90662 23.2253 12.762 17.4191 19.519 17.4191Z" fill="url(#paint3_linear_356_129)"/>
<path d="M33.2158 45.2432C28.0841 52.5568 7.90662 51.1266 7.90662 33.8665C7.90662 26.882 9.98693 21.986 13.339 19.4384C11.1409 22.2542 9.84473 26.427 9.84473 31.9325C9.84473 47.8761 26.731 49.9361 33.2158 45.2432Z" fill="#E2E1F4"/>
<path d="M19.519 36.7757C22.7257 36.7757 25.3252 34.1762 25.3252 30.9695C25.3252 27.7629 22.7257 25.1633 19.519 25.1633C16.3123 25.1633 13.7128 27.7629 13.7128 30.9695C13.7128 34.1762 16.3123 36.7757 19.519 36.7757Z" fill="url(#paint4_linear_356_129)"/>
<path d="M19.519 36.7757C18.6754 36.7745 17.8422 36.5895 17.0773 36.2335C16.3125 35.8775 15.6344 35.3592 15.0903 34.7145C14.5462 34.0698 14.149 33.3143 13.9266 32.5005C13.7041 31.6868 13.6617 30.8343 13.8022 30.0025C14.8667 36.4263 24.1753 36.4182 25.2399 30.0025C25.3804 30.8347 25.3379 31.6875 25.1152 32.5015C24.8925 33.3156 24.495 34.0713 23.9505 34.716C23.4059 35.3608 22.7273 35.8791 21.962 36.2348C21.1966 36.5905 20.363 36.7751 19.519 36.7757Z" fill="#F6BE3E"/>
<path d="M47.2254 38.5188C37.1042 37.3283 29.2461 30.6201 27.5802 21.86C27.454 21.1073 27.6287 20.3351 28.0666 19.71C28.5045 19.0849 29.1706 18.6569 29.9211 18.5183C30.6716 18.3797 31.4466 18.5416 32.0789 18.9691C32.7111 19.3966 33.1501 20.0555 33.3011 20.8036C34.52 27.0933 40.3953 31.9325 47.9811 32.7532C48.7093 32.8559 49.3714 33.2309 49.834 33.8025C50.2965 34.3742 50.5251 35.1 50.4736 35.8336C50.422 36.5671 50.0942 37.2539 49.5562 37.7552C49.0183 38.2566 48.3102 38.5353 47.5748 38.5351C47.4581 38.5363 47.3414 38.5309 47.2254 38.5188Z" fill="url(#paint5_linear_356_129)"/>
<path d="M49.1635 28.8405C39.0382 27.65 31.1801 20.9418 29.5183 12.1817C29.449 11.8063 29.4542 11.421 29.5338 11.0476C29.6133 10.6743 29.7657 10.3203 29.9821 10.0058C30.1984 9.69132 30.4746 9.42255 30.7949 9.21481C31.1151 9.00708 31.4732 8.86446 31.8485 8.7951C32.2239 8.72573 32.6093 8.73098 32.9826 8.81055C33.3559 8.89011 33.71 9.04243 34.0244 9.25881C34.3389 9.47518 34.6077 9.75139 34.8154 10.0716C35.0231 10.3919 35.1658 10.7499 35.2351 11.1253C36.4541 17.415 42.3293 22.2542 49.9152 23.079C50.6488 23.1743 51.3183 23.5463 51.7867 24.1189C52.2551 24.6915 52.4871 25.4214 52.4352 26.1593C52.3833 26.8973 52.0514 27.5875 51.5075 28.0889C50.9635 28.5903 50.2486 28.865 49.5089 28.8567C49.3935 28.858 49.2782 28.8526 49.1635 28.8405Z" fill="url(#paint6_linear_356_129)"/>
<path d="M49.1635 28.8405C40.5781 27.8734 33.6221 22.8514 30.6966 16.0254C34.0162 21.8316 40.4481 25.9963 48.1924 26.9064C48.571 26.9548 48.9554 26.9282 49.3237 26.828C49.692 26.7278 50.0369 26.556 50.3388 26.3224C50.6406 26.0888 50.8935 25.7981 51.083 25.4667C51.2724 25.1354 51.3947 24.77 51.4429 24.3913C51.4632 24.1873 51.4632 23.9818 51.4429 23.7778C51.9103 24.1888 52.2333 24.7391 52.3644 25.3475C52.4955 25.9559 52.4277 26.5904 52.171 27.1574C51.9144 27.7244 51.4824 28.194 50.9388 28.497C50.3951 28.8 49.7685 28.9204 49.1513 28.8405H49.1635Z" fill="#FF8A47"/>
<path d="M47.2254 38.5188C38.6441 37.5477 31.684 32.5257 28.7626 25.7037C32.0821 31.5099 38.514 35.6705 46.2583 36.5807C47.0223 36.6785 47.7939 36.469 48.4035 35.9981C49.013 35.5273 49.4106 34.8336 49.5088 34.0697C49.5291 33.8657 49.5291 33.6602 49.5088 33.4562C49.9767 33.8673 50.3001 34.418 50.4311 35.027C50.5622 35.6359 50.4941 36.2708 50.2369 36.8381C49.9797 37.4054 49.5469 37.875 49.0025 38.1776C48.458 38.4802 47.8308 38.5998 47.2132 38.5188H47.2254Z" fill="#FF8A47"/>
</g>
<defs>
<linearGradient id="paint0_linear_356_129" x1="30.1644" y1="60.0005" x2="30.1644" y2="0.000488281" gradientUnits="userSpaceOnUse">
<stop stop-color="#E9E9F7"/>
<stop offset="1" stop-color="#FAFAFC"/>
</linearGradient>
<linearGradient id="paint1_linear_356_129" x1="30.1643" y1="48.3881" x2="30.1643" y2="11.6129" gradientUnits="userSpaceOnUse">
<stop stop-color="#CFCBEC"/>
<stop offset="1" stop-color="#E0DFF5"/>
</linearGradient>
<linearGradient id="paint2_linear_356_129" x1="21.2418" y1="49.3551" x2="21.2418" y2="17.4191" gradientUnits="userSpaceOnUse">
<stop stop-color="#E9E9F7"/>
<stop offset="1" stop-color="#FAFAFC"/>
</linearGradient>
<linearGradient id="paint3_linear_356_129" x1="21.2418" y1="49.3551" x2="21.2418" y2="17.4191" gradientUnits="userSpaceOnUse">
<stop stop-color="#E9E9F7"/>
<stop offset="1" stop-color="#FAFAFC"/>
</linearGradient>
<linearGradient id="paint4_linear_356_129" x1="19.519" y1="36.7757" x2="19.519" y2="25.1633" gradientUnits="userSpaceOnUse">
<stop stop-color="#F9CB5A"/>
<stop offset="1" stop-color="#FCD97D"/>
</linearGradient>
<linearGradient id="paint5_linear_356_129" x1="39.0098" y1="38.5391" x2="39.0098" y2="18.3901" gradientUnits="userSpaceOnUse">
<stop stop-color="#F57153"/>
<stop offset="1" stop-color="#FCAB97"/>
</linearGradient>
<linearGradient id="paint6_linear_356_129" x1="40.9479" y1="28.8608" x2="40.9479" y2="8.71587" gradientUnits="userSpaceOnUse">
<stop stop-color="#F57153"/>
<stop offset="1" stop-color="#FCAB97"/>
</linearGradient>
<clipPath id="clip0_356_129">
<rect width="60" height="60" fill="white" transform="translate(0.166382 0.000488281)"/>
</clipPath>
</defs>
</svg>
