<svg width="24" height="24" viewBox="0 0 24 24" fill="none" xmlns="http://www.w3.org/2000/svg">
<path d="M16.3998 22.11H7.9998C7.38392 22.1125 6.79027 21.8801 6.3398 21.46C5.88488 21.0429 5.60896 20.466 5.5698 19.85L4.8574 9.91336C4.82562 9.47008 5.15992 9.08529 5.60329 9.05481V9.05481C6.04393 9.02451 6.42633 9.35577 6.45917 9.79623L7.1998 19.73C7.21867 19.9433 7.31467 20.1424 7.4698 20.29C7.62492 20.4332 7.82874 20.5119 8.0398 20.51H16.4398C16.6509 20.5119 16.8547 20.4332 17.0098 20.29C17.1649 20.1424 17.2609 19.9433 17.2798 19.73L17.9462 9.79962C17.9758 9.35824 18.358 9.02467 18.7993 9.05501V9.05501C19.241 9.08538 19.5741 9.46875 19.5424 9.9104L18.8298 19.85C18.7903 20.4638 18.5185 21.0394 18.0698 21.46C17.6141 21.8781 17.0182 22.1101 16.3998 22.11Z" fill="#000D0B"/>
<path fill-rule="evenodd" clip-rule="evenodd" d="M9.92706 2.2C8.82249 2.2 7.92706 3.09543 7.92706 4.2V5.4727H3.00001C2.55819 5.4727 2.20001 5.83087 2.20001 6.2727C2.20001 6.71453 2.55818 7.0727 3.00001 7.0727H21C21.4418 7.0727 21.8 6.71453 21.8 6.2727C21.8 5.83087 21.4418 5.4727 21 5.4727H16.0725V4.2C16.0725 3.09543 15.1771 2.2 14.0725 2.2H9.92706ZM14.4725 5.4727V4.8C14.4725 4.24771 14.0248 3.8 13.4725 3.8H10.5271C9.97478 3.8 9.52706 4.24771 9.52706 4.8V5.4727H14.4725Z" fill="#000D0B"/>
</svg>
