<svg width="24" height="24" viewBox="0 0 24 24" fill="none" xmlns="http://www.w3.org/2000/svg">
<path fill-rule="evenodd" clip-rule="evenodd" d="M6.95733 3.21767C8.24923 1.92578 10.0014 1.2 11.8284 1.2C13.6554 1.2 15.4076 1.92578 16.6995 3.21767C17.9914 4.50957 18.7172 6.26175 18.7172 8.08877V12.433C18.7422 14.437 19.3029 16.3979 20.3411 18.1122C20.4907 18.3593 20.4956 18.6678 20.3538 18.9194C20.212 19.171 19.9457 19.3267 19.6568 19.3267H4.00001C3.7112 19.3267 3.44481 19.171 3.30304 18.9194C3.16126 18.6678 3.16611 18.3593 3.31573 18.1122C4.354 16.3979 4.91468 14.437 4.93966 12.433V8.08877C4.93966 6.26175 5.66544 4.50957 6.95733 3.21767ZM11.8284 2.8C10.4258 2.8 9.08054 3.35721 8.0887 4.34904C7.09687 5.34088 6.53966 6.6861 6.53966 8.08877V12.4475C6.51762 14.2782 6.10419 16.0775 5.33344 17.7267H18.3234C17.5527 16.0775 17.1393 14.2782 17.1173 12.4475L17.1171 12.4379L17.1172 8.08877C17.1172 6.6861 16.56 5.34088 15.5681 4.34904C14.5763 3.35721 13.2311 2.8 11.8284 2.8Z" fill="#000D0B"/>
<path d="M9.3703 20.2663C9.55104 20.7736 9.88432 21.2126 10.3244 21.523C10.7645 21.8334 11.2899 22 11.8284 22C12.367 22 12.8923 21.8334 13.3324 21.523C13.7725 21.2126 14.1058 20.7736 14.2865 20.2663H9.3703Z" fill="#000D0B"/>
</svg>
