<svg width="26" height="26" viewBox="0 0 26 26" fill="none" xmlns="http://www.w3.org/2000/svg">
<path d="M22.8183 17.5V12.4287C22.8183 11.7976 22.3298 11.2859 21.7274 11.2859H4.27281C3.67032 11.2859 3.1819 11.7976 3.1819 12.4287V17.5M25 19.1429C25 18.5117 24.5116 18 23.9091 18H2.09091C1.48842 18 1 18.5117 1 19.1429V24.8571H25V19.1429ZM13 7.85713C14.205 7.85713 15.1818 6.83378 15.1818 5.57142C15.1818 4.31428 13 1 13 1C13 1 10.8182 4.31428 10.8182 5.57142C10.8182 6.83378 11.795 7.85713 13 7.85713Z" stroke="#000D0B" stroke-width="1.5" stroke-linecap="round" stroke-linejoin="round"/>
</svg>
