<svg width="24" height="24" viewBox="0 0 24 24" fill="none" xmlns="http://www.w3.org/2000/svg">
<circle cx="12" cy="12" r="10" fill="#000D0B"/>
<path fill-rule="evenodd" clip-rule="evenodd" d="M14.011 15.1427C14.3234 15.4552 14.8299 15.4552 15.1423 15.1427C15.4548 14.8303 15.4548 14.3238 15.1423 14.0114L13.1311 12.0002L15.1426 9.98869C15.455 9.67627 15.455 9.16974 15.1426 8.85732C14.8302 8.5449 14.3236 8.5449 14.0112 8.85732L11.9997 10.8688L9.98832 8.85736C9.6759 8.54494 9.16937 8.54494 8.85695 8.85736C8.54453 9.16978 8.54453 9.67631 8.85695 9.98873L10.8684 12.0002L8.85719 14.0113C8.54477 14.3238 8.54477 14.8303 8.85719 15.1427C9.16961 15.4551 9.67614 15.4551 9.98856 15.1427L11.9997 13.1315L14.011 15.1427Z" fill="white"/>
</svg>
