<svg width="32" height="32" viewBox="0 0 32 32" fill="none" xmlns="http://www.w3.org/2000/svg">
<path fill-rule="evenodd" clip-rule="evenodd" d="M24.0139 25.5228C24.4304 25.9394 25.1058 25.9394 25.5224 25.5228C25.9389 25.1063 25.9389 24.4309 25.5224 24.0144L17.6975 16.1895L25.7119 8.17519C26.1284 7.75863 26.1284 7.08326 25.7119 6.6667C25.2953 6.25014 24.6199 6.25014 24.2034 6.6667L16.189 14.681L8.17467 6.66667C7.75811 6.25011 7.08274 6.25011 6.66618 6.66667C6.24962 7.08323 6.24962 7.7586 6.66618 8.17516L14.6805 16.1895L6.85569 24.0144C6.43913 24.4309 6.43913 25.1063 6.85569 25.5229C7.27225 25.9394 7.94763 25.9394 8.36419 25.5229L16.189 17.698L24.0139 25.5228Z" fill="#F5222D"/>
</svg>
