<svg width="24" height="24" viewBox="0 0 24 24" fill="none" xmlns="http://www.w3.org/2000/svg">
<path d="M12 2C6.47768 2 2 6.47768 2 12C2 17.5223 6.47768 22 12 22C17.5223 22 22 17.5223 22 12C22 6.47768 17.5223 2 12 2ZM12 20.3036C7.41518 20.3036 3.69643 16.5848 3.69643 12C3.69643 7.41518 7.41518 3.69643 12 3.69643C16.5848 3.69643 20.3036 7.41518 20.3036 12C20.3036 16.5848 16.5848 20.3036 12 20.3036Z" fill="#000D0B"/>
<path fill-rule="evenodd" clip-rule="evenodd" d="M12 6.2C12.4418 6.2 12.8 6.55817 12.8 7V12.1253L15.5122 14.3854C15.8516 14.6683 15.8974 15.1727 15.6146 15.5121C15.3317 15.8516 14.8273 15.8974 14.4879 15.6146L11.4879 13.1146C11.3055 12.9626 11.2 12.7374 11.2 12.5V7C11.2 6.55817 11.5582 6.2 12 6.2Z" fill="#000D0B"/>
</svg>
