<svg width="32" height="32" viewBox="0 0 32 32" fill="none" xmlns="http://www.w3.org/2000/svg">
<path fill-rule="evenodd" clip-rule="evenodd" d="M11.0767 26.6202C10.5945 28.0057 9.27703 29 7.72727 29C5.76917 29 4.18181 27.4127 4.18181 25.4545C4.18181 23.8036 5.31029 22.4161 6.83798 22.0215L7.36137 20.4514C6.17021 19.9506 5.30409 18.8167 5.19924 17.4537L4.36658 6.62912C4.31165 5.91503 3.71619 5.36362 3 5.36362C2.34729 5.36362 1.81818 4.8345 1.81818 4.1818C1.81818 3.5291 2.34729 2.99998 3 2.99998C4.95128 2.99998 6.5736 4.5023 6.72325 6.44784L29 6.47999C29.7453 6.47999 30.3045 7.1614 30.1591 7.89235L28.1739 17.8735C27.8439 19.5324 26.388 20.7273 24.6966 20.7273H9.7609L9.25234 22.2529C10.1017 22.6582 10.7644 23.3915 11.0767 24.2889C11.1404 24.2783 11.2059 24.2727 11.2727 24.2727H20.929C21.4157 22.8957 22.729 21.9091 24.2727 21.9091C26.2308 21.9091 27.8182 23.4964 27.8182 25.4545C27.8182 27.4127 26.2308 29 24.2727 29C22.729 29 21.4157 28.0134 20.929 26.6364H11.2727C11.2059 26.6364 11.1404 26.6308 11.0767 26.6202ZM7.70785 24.2729C7.06412 24.2833 6.54548 24.8083 6.54548 25.4545C6.54548 26.1072 7.07459 26.6364 7.72729 26.6364C8.37999 26.6364 8.90911 26.1072 8.90911 25.4545C8.90911 24.8084 8.39056 24.2834 7.7469 24.2729C7.73391 24.2731 7.72089 24.2731 7.70785 24.2729ZM8.93635 18.3636H24.6966C25.2604 18.3636 25.7457 17.9654 25.8557 17.4124L27.56 8.84363H6.90756L7.55593 17.2725C7.60329 17.8882 8.11672 18.3636 8.73427 18.3636H8.88152C8.89975 18.3632 8.91803 18.3632 8.93635 18.3636ZM24.2727 26.6364C24.9254 26.6364 25.4545 26.1073 25.4545 25.4546C25.4545 24.8019 24.9254 24.2727 24.2727 24.2727C23.62 24.2727 23.0909 24.8019 23.0909 25.4546C23.0909 26.1073 23.62 26.6364 24.2727 26.6364Z" fill="#1A1A19"/>
</svg>
