<svg width="32" height="32" viewBox="0 0 32 32" fill="none" xmlns="http://www.w3.org/2000/svg">
<path d="M24 12C25.136 12 25.7293 13.3147 25.044 14.164L24.9427 14.276L16.9427 22.276C16.7131 22.5056 16.4076 22.6435 16.0836 22.6639C15.7595 22.6842 15.4392 22.5857 15.1827 22.3867L15.0573 22.276L7.05733 14.276L6.94667 14.1507L6.87467 14.048L6.80267 13.92L6.78 13.872L6.744 13.7827L6.70133 13.6387L6.688 13.568L6.67467 13.488L6.66933 13.412V13.2547L6.676 13.1773L6.688 13.0973L6.70133 13.028L6.744 12.884L6.78 12.7947L6.87333 12.6187L6.96 12.4987L7.05733 12.3907L7.18267 12.28L7.28533 12.208L7.41333 12.136L7.46133 12.1133L7.55067 12.0773L7.69467 12.0347L7.76533 12.0213L7.84533 12.008L7.92133 12.0027L24 12Z" fill="#1A1A19"/>
</svg>
