<svg width="32" height="32" viewBox="0 0 32 32" fill="none" xmlns="http://www.w3.org/2000/svg">
<path d="M9 0C9.26522 0 9.51957 0.105357 9.70711 0.292893C9.89464 0.48043 10 0.734784 10 1V4H22V1C22 0.734784 22.1054 0.48043 22.2929 0.292893C22.4804 0.105357 22.7348 0 23 0C23.2652 0 23.5196 0.105357 23.7071 0.292893C23.8946 0.48043 24 0.734784 24 1V4H27.6667C28.9547 4 30 5.04533 30 6.33333V27.6667C30 28.2855 29.7542 28.879 29.3166 29.3166C28.879 29.7542 28.2855 30 27.6667 30H4.33333C3.71449 30 3.121 29.7542 2.68342 29.3166C2.24583 28.879 2 28.2855 2 27.6667V6.33333C2 5.04533 3.04533 4 4.33333 4H8V1C8 0.734784 8.10536 0.48043 8.29289 0.292893C8.48043 0.105357 8.73478 0 9 0ZM28 12.6667H4V27.6667C4 27.8507 4.14933 28 4.33333 28H27.6667C27.7551 28 27.8399 27.9649 27.9024 27.9024C27.9649 27.8399 28 27.7551 28 27.6667V12.6667ZM4.33333 6C4.24493 6 4.16014 6.03512 4.09763 6.09763C4.03512 6.16014 4 6.24493 4 6.33333V10.6667H28V6.33333C28 6.24493 27.9649 6.16014 27.9024 6.09763C27.8399 6.03512 27.7551 6 27.6667 6H4.33333Z" fill="#1A1A19"/>
</svg>
