<svg width="16" height="16" viewBox="0 0 16 16" fill="none" xmlns="http://www.w3.org/2000/svg">
<path d="M3 8.00002L9.33333 4.66669L12 6.00002L11.6667 8.33335L7.33333 12.3334L3 8.00002Z" fill="white"/>
<path fill-rule="evenodd" clip-rule="evenodd" d="M14.6666 7.99998C14.6666 11.6819 11.6818 14.6666 7.99992 14.6666C4.31802 14.6666 1.33325 11.6819 1.33325 7.99998C1.33325 4.31808 4.31802 1.33331 7.99992 1.33331C11.6818 1.33331 14.6666 4.31808 14.6666 7.99998ZM11.1536 6.71135C11.3619 6.50307 11.3619 6.16538 11.1536 5.9571C10.9454 5.74882 10.6077 5.74882 10.3994 5.9571L6.88763 9.46887L5.59809 8.17932C5.38981 7.97104 5.05212 7.97104 4.84384 8.17932C4.63556 8.3876 4.63556 8.72529 4.84384 8.93357L6.40345 10.4932C6.67085 10.7606 7.10441 10.7606 7.37181 10.4932L11.1536 6.71135Z" fill="#00A100"/>
</svg>
