<svg width="24" height="24" viewBox="0 0 24 24" fill="none" xmlns="http://www.w3.org/2000/svg">
<path fill-rule="evenodd" clip-rule="evenodd" d="M7.49242 2C7.91264 2 8.25329 2.34065 8.25329 2.76087V3.67973H15.9707V2.76087C15.9707 2.34065 16.3113 2 16.7316 2C17.1518 2 17.4924 2.34065 17.4924 2.76087V3.67973H20.1522C21.1727 3.67973 22 4.50703 22 5.52755V7.87948V9.40122V19.3121C22 20.3327 21.1727 21.16 20.1522 21.16H3.84783C2.8273 21.16 2 20.3327 2 19.3121V9.40122V7.87948V5.52755C2 4.50703 2.8273 3.67973 3.84783 3.67973H6.73155V2.76087C6.73155 2.34065 7.0722 2 7.49242 2ZM15.9707 5.20147V5.84058C15.9707 6.2608 16.3113 6.60145 16.7316 6.60145C17.1518 6.60145 17.4924 6.2608 17.4924 5.84058V5.20147H20.1522C20.3323 5.20147 20.4783 5.34746 20.4783 5.52755V7.87948H3.52174V5.52755C3.52174 5.34746 3.66773 5.20147 3.84783 5.20147H6.73155V5.84058C6.73155 6.2608 7.0722 6.60145 7.49242 6.60145C7.91264 6.60145 8.25329 6.2608 8.25329 5.84058V5.20147H15.9707ZM3.52174 9.40122V19.3121C3.52174 19.4922 3.66773 19.6382 3.84783 19.6382H20.1522C20.3323 19.6382 20.4783 19.4922 20.4783 19.3121V9.40122H3.52174Z" fill="#000D0B"/>
</svg>
