<svg width="32" height="32" viewBox="0 0 32 32" fill="none" xmlns="http://www.w3.org/2000/svg">
<path d="M21.3733 5.46C21.5606 5.64751 21.6658 5.90167 21.6658 6.16667C21.6658 6.43167 21.5606 6.68584 21.3733 6.87334L12.4147 15.8333L21.3747 24.7933C21.5567 24.982 21.6574 25.2347 21.655 25.4969C21.6526 25.7591 21.5473 26.0098 21.3618 26.1952C21.1763 26.3805 20.9255 26.4855 20.6633 26.4877C20.4011 26.4898 20.1485 26.3889 19.96 26.2067L10.2933 16.54C10.1061 16.3525 10.0009 16.0983 10.0009 15.8333C10.0009 15.5683 10.1061 15.3142 10.2933 15.1267L19.96 5.46C20.0529 5.36708 20.1631 5.29336 20.2845 5.24307C20.4059 5.19277 20.536 5.16689 20.6673 5.16689C20.7987 5.16689 20.9288 5.19277 21.0502 5.24307C21.1715 5.29336 21.2818 5.36708 21.3747 5.46H21.3733Z" fill="#1A1A19"/>
</svg>
