<svg width="32" height="32" viewBox="0 0 32 32" fill="none" xmlns="http://www.w3.org/2000/svg">
<path d="M8.77777 14.5556C8.77777 13.7894 9.08214 13.0546 9.62391 12.5128C10.1657 11.9711 10.9005 11.6667 11.6667 11.6667H26.1111C26.8773 11.6667 27.6121 11.9711 28.1539 12.5128C28.6956 13.0546 29 13.7894 29 14.5556V23.2222C29 23.9884 28.6956 24.7232 28.1539 25.265C27.6121 25.8068 26.8773 26.1111 26.1111 26.1111H11.6667C10.9005 26.1111 10.1657 25.8068 9.62391 25.265C9.08214 24.7232 8.77777 23.9884 8.77777 23.2222V14.5556Z" stroke="#1A1A19" stroke-width="2" stroke-linecap="round" stroke-linejoin="round"/>
<path d="M23.2222 11.6667V8.77778C23.2222 8.01159 22.9179 7.27679 22.3761 6.73502C21.8343 6.19325 21.0995 5.88889 20.3333 5.88889H5.88889C5.12271 5.88889 4.38791 6.19325 3.84614 6.73502C3.30436 7.27679 3 8.01159 3 8.77778V17.4444C3 18.2106 3.30436 18.9454 3.84614 19.4872C4.38791 20.029 5.12271 20.3333 5.88889 20.3333H8.77778M16 18.8889C16 19.6551 16.3044 20.3899 16.8461 20.9316C17.3879 21.4734 18.1227 21.7778 18.8889 21.7778C19.6551 21.7778 20.3899 21.4734 20.9316 20.9316C21.4734 20.3899 21.7778 19.6551 21.7778 18.8889C21.7778 18.1227 21.4734 17.3879 20.9316 16.8461C20.3899 16.3044 19.6551 16 18.8889 16C18.1227 16 17.3879 16.3044 16.8461 16.8461C16.3044 17.3879 16 18.1227 16 18.8889Z" stroke="#1A1A19" stroke-width="2" stroke-linecap="round" stroke-linejoin="round"/>
</svg>
