<svg width="32" height="32" viewBox="0 0 32 32" fill="none" xmlns="http://www.w3.org/2000/svg">
<path d="M10.6267 26.2067C10.4394 26.0192 10.3342 25.765 10.3342 25.5C10.3342 25.235 10.4394 24.9808 10.6267 24.7933L19.586 15.8333L10.626 6.87333C10.4439 6.68465 10.3433 6.43199 10.3457 6.1698C10.3481 5.9076 10.4534 5.65684 10.6389 5.47152C10.8243 5.28619 11.0752 5.18114 11.3374 5.17899C11.5996 5.17683 11.8522 5.27775 12.0407 5.46L21.7073 15.1267C21.8946 15.3142 21.9998 15.5683 21.9998 15.8333C21.9998 16.0983 21.8946 16.3525 21.7073 16.54L12.0407 26.2067C11.9478 26.2996 11.8375 26.3733 11.7162 26.4236C11.5948 26.4739 11.4647 26.4998 11.3333 26.4998C11.202 26.4998 11.0719 26.4739 10.9505 26.4236C10.8291 26.3733 10.7195 26.2996 10.6267 26.2067Z" fill="#1A1A19"/>
</svg>
