<svg width="32" height="32" viewBox="0 0 32 32" fill="none" xmlns="http://www.w3.org/2000/svg">
<path fill-rule="evenodd" clip-rule="evenodd" d="M7.72729 29C5.76919 29 4.18183 27.4126 4.18183 25.4545C4.18183 23.8036 5.31031 22.4161 6.838 22.0215L7.36139 20.4514C6.17023 19.9506 5.30411 18.8167 5.19926 17.4537L4.3666 6.62912C4.31167 5.91503 3.71621 5.36362 3.00001 5.36362C2.34731 5.36362 1.8182 4.8345 1.8182 4.1818C1.8182 3.5291 2.34731 2.99998 3.00001 2.99998C4.9513 2.99998 6.57362 4.5023 6.72327 6.44784L29 6.47999C29.7453 6.47999 30.3045 7.1614 30.1591 7.89235L28.1739 17.8735C27.844 19.5324 26.388 20.7273 24.6966 20.7273H9.76092L9.25236 22.2529C10.1017 22.6582 10.7644 23.3915 11.0767 24.2889C11.1405 24.2783 11.206 24.2727 11.2727 24.2727H20.929C21.4158 22.8957 22.729 21.9091 24.2728 21.9091C26.2309 21.9091 27.8182 23.4964 27.8182 25.4545C27.8182 27.4126 26.2309 29 24.2728 29C22.729 29 21.4158 28.0134 20.929 26.6364H11.2727C11.206 26.6364 11.1405 26.6308 11.0767 26.6202C10.5946 28.0057 9.27705 29 7.72729 29ZM7.70785 24.2729C7.06412 24.2833 6.54547 24.8083 6.54547 25.4545C6.54547 26.1072 7.07459 26.6364 7.72729 26.6364C8.37999 26.6364 8.90911 26.1072 8.90911 25.4545C8.90911 24.8084 8.39056 24.2834 7.7469 24.2729C7.73391 24.2731 7.72089 24.2731 7.70785 24.2729ZM24.2728 26.6364C24.9255 26.6364 25.4546 26.1072 25.4546 25.4545C25.4546 24.8018 24.9255 24.2727 24.2728 24.2727C23.6201 24.2727 23.0909 24.8018 23.0909 25.4545C23.0909 26.1072 23.6201 26.6364 24.2728 26.6364Z" fill="#1A1A19"/>
</svg>
