<svg width="24" height="24" viewBox="0 0 24 24" fill="none" xmlns="http://www.w3.org/2000/svg">
<path fill-rule="evenodd" clip-rule="evenodd" d="M13.7966 15.1427C14.109 15.4552 14.6156 15.4552 14.928 15.1427C15.2404 14.8303 15.2404 14.3238 14.928 14.0114L12.9168 12.0002L14.9282 9.98869C15.2406 9.67627 15.2406 9.16974 14.9282 8.85732C14.6158 8.5449 14.1093 8.5449 13.7969 8.85732L11.7854 10.8688L9.77397 8.85736C9.46155 8.54494 8.95502 8.54494 8.6426 8.85736C8.33018 9.16978 8.33018 9.67631 8.6426 9.98873L10.654 12.0002L8.64283 14.0113C8.33041 14.3238 8.33041 14.8303 8.64283 15.1427C8.95525 15.4551 9.46179 15.4551 9.7742 15.1427L11.7854 13.1315L13.7966 15.1427Z" fill="#000D0B"/>
<rect x="3.8" y="3.8" width="16.4" height="16.4" rx="2.2" stroke="#000D0B" stroke-width="1.6" stroke-linejoin="round"/>
</svg>
