<svg width="24" height="24" viewBox="0 0 24 24" fill="none" xmlns="http://www.w3.org/2000/svg">
<path fill-rule="evenodd" clip-rule="evenodd" d="M4.8002 18C4.8002 18.3866 5.1136 18.7 5.5002 18.7L19.0002 18.7C19.3868 18.7 19.7002 18.3866 19.7002 18L19.7002 12C19.7002 11.5582 20.0584 11.2 20.5002 11.2C20.942 11.2 21.3002 11.5582 21.3002 12L21.3002 18C21.3002 19.2702 20.2705 20.3 19.0002 20.3L5.5002 20.3C4.22994 20.3 3.2002 19.2702 3.2002 18L3.20019 12C3.20019 11.5582 3.55837 11.2 4.00019 11.2C4.44202 11.2 4.8002 11.5582 4.8002 12L4.8002 18ZM17.0657 7.06566C17.3781 6.75324 17.3781 6.24671 17.0657 5.93429L12.5657 1.43429C12.2532 1.12187 11.7467 1.12187 11.4343 1.43429L6.93429 5.93429C6.62187 6.24671 6.62187 6.75324 6.93429 7.06566C7.24671 7.37808 7.75324 7.37808 8.06566 7.06566L11.1998 3.93152L11.1998 13.45C11.1998 13.8918 11.558 14.25 11.9998 14.25C12.4416 14.25 12.7998 13.8918 12.7998 13.45L12.7998 3.93117L15.9343 7.06566C16.2467 7.37808 16.7532 7.37808 17.0657 7.06566Z" fill="#000D0B"/>
</svg>
