<svg width="32" height="32" viewBox="0 0 32 32" fill="none" xmlns="http://www.w3.org/2000/svg">
<path d="M10 15.5C10 15.8978 9.84196 16.2794 9.56066 16.5607C9.27936 16.842 8.89782 17 8.5 17C8.10218 17 7.72064 16.842 7.43934 16.5607C7.15804 16.2794 7 15.8978 7 15.5C7 15.1022 7.15804 14.7206 7.43934 14.4393C7.72064 14.158 8.10218 14 8.5 14C8.89782 14 9.27936 14.158 9.56066 14.4393C9.84196 14.7206 10 15.1022 10 15.5ZM17.5 15.5C17.5 15.8978 17.342 16.2794 17.0607 16.5607C16.7794 16.842 16.3978 17 16 17C15.6022 17 15.2206 16.842 14.9393 16.5607C14.658 16.2794 14.5 15.8978 14.5 15.5C14.5 15.1022 14.658 14.7206 14.9393 14.4393C15.2206 14.158 15.6022 14 16 14C16.3978 14 16.7794 14.158 17.0607 14.4393C17.342 14.7206 17.5 15.1022 17.5 15.5ZM25 15.5C25 15.8978 24.842 16.2794 24.5607 16.5607C24.2794 16.842 23.8978 17 23.5 17C23.1022 17 22.7206 16.842 22.4393 16.5607C22.158 16.2794 22 15.8978 22 15.5C22 15.1022 22.158 14.7206 22.4393 14.4393C22.7206 14.158 23.1022 14 23.5 14C23.8978 14 24.2794 14.158 24.5607 14.4393C24.842 14.7206 25 15.1022 25 15.5Z" fill="#1A1A19"/>
</svg>
