<svg width="52" height="52" viewBox="0 0 52 52" fill="none" xmlns="http://www.w3.org/2000/svg">
<g clip-path="url(#clip0_356_85)">
<g clip-path="url(#clip1_356_85)">
<path d="M51.8942 17.5625L47.5205 45.5564L45.3319 47.8236C39.55 45.8287 29.2454 45.8177 23.4564 47.8236L21.2714 45.5564L16.8942 17.5625H21.9986C24.5135 20.6725 31.9307 23.374 39.5004 21.519C43.1433 20.6578 45.793 18.7955 46.7898 17.5625H51.8942Z" fill="url(#paint0_linear_356_85)"/>
<path d="M51.8942 17.5625L47.5205 45.5564L45.3319 47.8236C39.55 45.8287 29.2454 45.8177 23.4564 47.8236L21.2714 45.5564L16.8942 17.5625H21.9986C24.5135 20.6725 31.9307 23.374 39.5004 21.519C43.1433 20.6578 45.793 18.7955 46.7898 17.5625H51.8942Z" fill="url(#paint1_linear_356_85)"/>
<path d="M51.4224 17.9303L51.0677 20.1386H46.4564C42.817 24.6362 32.0194 26.2556 25.1733 22.3469C24.1202 21.7721 23.1622 21.0266 22.3356 20.1386H17.7242L17.3695 17.9303H22.3356C24.7831 20.9557 32.0123 23.5836 39.362 21.7801C42.9092 20.941 45.4844 19.1301 46.4564 17.9303H51.4224Z" fill="#FFBAAB"/>
<path d="M47.8397 43.6938L47.5205 45.7365L45.3319 48.0037C39.55 46.0088 29.2454 46.0015 23.4564 48.0037L21.2714 45.7365L20.9486 43.6938L23.006 45.7365C28.983 43.7453 39.7238 43.7232 45.7824 45.7365L47.8397 43.6938Z" fill="#FF8A47"/>
<path d="M35.9319 10.2012V22.2622C34.512 22.3532 33.0871 22.3076 31.6753 22.1261V10.2012H35.9319Z" fill="url(#paint2_linear_356_85)"/>
<path d="M22.9528 18.4861C22.6112 18.2053 22.2921 17.8964 21.9986 17.5622H18.4514L17.4866 8.01502L21.8602 7.53656L22.9528 18.4861Z" fill="url(#paint3_linear_356_85)"/>
<path d="M32.03 7.99298V10.2013H31.3206V22.1261C30.1163 21.9724 28.9286 21.7013 27.7734 21.3164V7.99298H32.03Z" fill="url(#paint4_linear_356_85)"/>
<path d="M29.1922 4.31244V7.99294H27.7734V21.3752C26.7887 21.049 25.838 20.6212 24.9356 20.0981V4.31244H29.1922Z" fill="url(#paint5_linear_356_85)"/>
<path d="M24.9356 1V19.9141C24.2605 19.5277 23.6216 19.0767 23.0272 18.567L21.9347 7.6249L20.679 7.76845V1H24.9356Z" fill="url(#paint6_linear_356_85)"/>
<path d="M33.4489 1V10.2013H32.3847V7.99295H29.1922V1H33.4489Z" fill="url(#paint7_linear_356_85)"/>
<path d="M47.6376 2.84027V7.09861L47.1481 7.03972L45.8923 18.8173C45.3286 19.2923 44.7257 19.7147 44.0904 20.0797V7.99297H43.0262V2.84027H47.6376Z" fill="url(#paint8_linear_356_85)"/>
<path d="M43.7357 7.99298V20.0982C42.4005 20.8655 40.9674 21.433 39.4791 21.7838V7.99298H43.7357Z" fill="url(#paint9_linear_356_85)"/>
<path d="M40.1885 3.57635V7.99296H39.4791V21.7838C38.3149 22.0748 37.1276 22.2547 35.9319 22.3211V3.57635H40.1885Z" fill="url(#paint10_linear_356_85)"/>
<path d="M51.3692 7.27893L50.2447 17.5623H46.7898C46.4671 17.932 46.1108 18.2685 45.7256 18.567L47.0168 6.78943L51.3692 7.27893Z" fill="url(#paint11_linear_356_85)"/>
<path d="M34.3924 40.4329C37.6131 40.4329 40.224 37.7239 40.224 34.3822C40.224 31.0404 37.6131 28.3314 34.3924 28.3314C31.1717 28.3314 28.5609 31.0404 28.5609 34.3822C28.5609 37.7239 31.1717 40.4329 34.3924 40.4329Z" fill="url(#paint12_linear_356_85)"/>
<path d="M34.396 40.4366C33.6299 40.4371 32.8712 40.2809 32.1632 39.9771C31.4553 39.6732 30.812 39.2276 30.2701 38.6657C29.7283 38.1038 29.2984 37.4366 29.0051 36.7022C28.7118 35.9679 28.5609 35.1808 28.5609 34.3859C28.5602 34.1324 28.5756 33.8791 28.607 33.6277C28.7788 35.0953 29.4625 36.4468 30.5291 37.4271C31.5956 38.4074 32.9712 38.9487 34.396 38.9487C35.8208 38.9487 37.1963 38.4074 38.2629 37.4271C39.3294 36.4468 40.0131 35.0953 40.185 33.6277C40.3757 35.219 39.9502 36.8237 39.0019 38.0899C38.0536 39.3561 36.6599 40.1802 35.1267 40.3814C34.8843 40.4145 34.6404 40.4329 34.396 40.4366Z" fill="#FDD858"/>
</g>
<g clip-path="url(#clip2_356_85)">
<path d="M42.3562 39.2258L20.9073 35.8556L4.11341 23.8554C4.72939 21.5817 7.13926 20.029 10.5531 21.386C13.967 22.7429 20.0231 28.2048 23.9943 29.7971C27.9654 31.3894 36.3185 31.7415 39.6226 33.0732C42.9266 34.4049 43.5694 37.2034 42.3562 39.2258Z" fill="url(#paint13_linear_356_85)"/>
<path d="M39.3239 44.9741C40.3282 44.8586 41.2524 44.384 41.9163 43.6428C42.5802 42.9016 42.9362 41.9471 42.9149 40.9652C42.8935 39.9834 42.4964 39.0447 41.8009 38.3321C41.1055 37.6196 40.1615 37.1842 39.153 37.111C35.0375 36.6779 28.781 36.2461 22.2984 33.6444C15.8158 31.0427 11.1125 27.062 7.9196 24.5578C7.15409 23.9125 6.16792 23.5683 5.15427 23.5924C4.14062 23.6166 3.17252 24.0074 2.43976 24.6883C1.70699 25.3693 1.26235 26.2912 1.19291 27.2736C1.12346 28.2559 1.43421 29.2279 2.06433 29.999L19.4675 40.4069L39.3239 44.9741Z" fill="url(#paint14_linear_356_85)"/>
<path d="M15.7572 49.0573C-5.10299 40.6771 -1.42031 26.3453 6.96944 29.74C10.2914 31.0751 16.4441 36.5569 20.4086 38.1465C24.3731 39.7361 32.7348 40.0955 36.0416 41.4207C44.4623 44.7976 36.6459 57.4528 15.7572 49.0573Z" fill="url(#paint15_linear_356_85)"/>
<path d="M39.0266 47.1299C38.2006 49.0659 32.2808 55.6982 15.7572 49.0572C5.79118 45.0517 2.05517 40.2539 0.862264 36.656C2.59098 39.9741 6.54056 43.9429 15.0316 47.3556C31.5533 53.9921 37.5059 47.3465 38.301 45.4283C38.6061 44.7352 38.71 43.9743 38.6015 43.2282C39.022 43.7835 39.2829 44.4373 39.3576 45.1229C39.4323 45.8084 39.318 46.5011 39.0266 47.1299Z" fill="#F1D191"/>
<path d="M38.7306 39.6057C38.3923 39.7419 38.2004 39.4985 37.4494 39.7901C36.818 40.0554 36.1172 40.1227 35.4448 39.9824C34.9295 39.8748 34.4394 39.6752 33.9992 39.3938C32.7983 38.7334 32.5897 38.7479 31.5085 38.9106C29.8324 39.1631 29.3488 39.0103 28.1064 38.201C27.7884 37.9244 27.408 37.7242 26.9958 37.6163C26.5836 37.5084 26.1511 37.4958 25.7329 37.5797C24.1287 37.691 23.6726 37.5378 22.3989 36.5005C22.1254 36.2067 21.7879 35.9757 21.411 35.8242C21.0341 35.6727 20.6272 35.6046 20.2197 35.6247C18.5567 35.4817 18.1167 35.2633 17.0691 34.0976C16.8307 33.7512 16.5116 33.4642 16.1375 33.26C15.7635 33.0559 15.3452 32.9402 14.9164 32.9224C13.4407 32.6506 12.9949 32.4185 11.9981 31.088C11.3442 30.2128 11.2056 30.0815 9.88928 29.7188C9.37246 29.6175 8.88006 29.4222 8.43811 29.1431C6.91153 28.0419 7.44669 27.5539 6.55017 26.8458C6.42394 26.7425 6.34451 26.5952 6.32894 26.4356C6.31337 26.2759 6.36291 26.1167 6.46691 25.9921C7.06276 25.2979 7.9679 26.3232 8.32389 27.158C8.67987 27.9928 9.30977 28.2951 10.2297 28.5288C11.8662 28.9711 12.2054 29.2888 13.0447 30.3406C13.8841 31.3924 13.9993 31.469 15.1931 31.6993C15.754 31.7453 16.2977 31.9098 16.7862 32.1812C17.2747 32.4527 17.6963 32.8244 18.0213 33.2706C18.8676 34.1967 19.0086 34.295 20.3243 34.3853C20.8611 34.3803 21.393 34.4838 21.8862 34.6892C22.3794 34.8946 22.8232 35.1974 23.1894 35.5784C24.1779 36.3991 24.3437 36.4392 25.6215 36.3631C26.1783 36.2736 26.7483 36.302 27.2926 36.4464C27.8369 36.5908 28.3425 36.8477 28.7749 37.1996C29.7936 37.8585 29.9719 37.915 31.2859 37.7174C32.6 37.5198 33.1015 37.521 34.6013 38.3657C35.4253 38.7876 36.0249 39.0059 36.9224 38.6446C39.2466 37.7303 39.5059 39.2936 38.7306 39.6057Z" fill="url(#paint16_linear_356_85)"/>
</g>
</g>
<defs>
<linearGradient id="paint0_linear_356_85" x1="34.3959" y1="47.8236" x2="34.3959" y2="17.5625" gradientUnits="userSpaceOnUse">
<stop stop-color="#F57153"/>
<stop offset="1" stop-color="#FCAB97"/>
</linearGradient>
<linearGradient id="paint1_linear_356_85" x1="34.3959" y1="47.8236" x2="34.3959" y2="17.5625" gradientUnits="userSpaceOnUse">
<stop stop-color="#F46E21"/>
<stop offset="1" stop-color="#F5803D"/>
</linearGradient>
<linearGradient id="paint2_linear_356_85" x1="31.6753" y1="16.2557" x2="35.9319" y2="16.2557" gradientUnits="userSpaceOnUse">
<stop stop-color="#F9CB5A"/>
<stop offset="1" stop-color="#FCD97D"/>
</linearGradient>
<linearGradient id="paint3_linear_356_85" x1="17.4795" y1="13.0131" x2="22.9528" y2="13.0131" gradientUnits="userSpaceOnUse">
<stop stop-color="#F9CB5A"/>
<stop offset="1" stop-color="#FCD97D"/>
</linearGradient>
<linearGradient id="paint4_linear_356_85" x1="27.7734" y1="15.0595" x2="32.03" y2="15.0595" gradientUnits="userSpaceOnUse">
<stop stop-color="#F9CB5A"/>
<stop offset="1" stop-color="#FCD97D"/>
</linearGradient>
<linearGradient id="paint5_linear_356_85" x1="24.9356" y1="12.8438" x2="29.1922" y2="12.8438" gradientUnits="userSpaceOnUse">
<stop stop-color="#F9CB5A"/>
<stop offset="1" stop-color="#FCD97D"/>
</linearGradient>
<linearGradient id="paint6_linear_356_85" x1="20.679" y1="10.4552" x2="24.9356" y2="10.4552" gradientUnits="userSpaceOnUse">
<stop stop-color="#F9CB5A"/>
<stop offset="1" stop-color="#FCD97D"/>
</linearGradient>
<linearGradient id="paint7_linear_356_85" x1="29.1922" y1="5.60063" x2="33.4489" y2="5.60063" gradientUnits="userSpaceOnUse">
<stop stop-color="#F9CB5A"/>
<stop offset="1" stop-color="#FCD97D"/>
</linearGradient>
<linearGradient id="paint8_linear_356_85" x1="43.0262" y1="11.4674" x2="47.6376" y2="11.4674" gradientUnits="userSpaceOnUse">
<stop stop-color="#F9CB5A"/>
<stop offset="1" stop-color="#FCD97D"/>
</linearGradient>
<linearGradient id="paint9_linear_356_85" x1="39.4791" y1="14.8902" x2="43.7357" y2="14.8902" gradientUnits="userSpaceOnUse">
<stop stop-color="#F9CB5A"/>
<stop offset="1" stop-color="#FCD97D"/>
</linearGradient>
<linearGradient id="paint10_linear_356_85" x1="35.9319" y1="12.9506" x2="40.1885" y2="12.9506" gradientUnits="userSpaceOnUse">
<stop stop-color="#F9CB5A"/>
<stop offset="1" stop-color="#FCD97D"/>
</linearGradient>
<linearGradient id="paint11_linear_356_85" x1="45.7256" y1="12.6709" x2="51.3692" y2="12.6709" gradientUnits="userSpaceOnUse">
<stop stop-color="#F9CB5A"/>
<stop offset="1" stop-color="#FCD97D"/>
</linearGradient>
<linearGradient id="paint12_linear_356_85" x1="28.5609" y1="34.3822" x2="40.2275" y2="34.3822" gradientUnits="userSpaceOnUse">
<stop stop-color="#FEE28A"/>
<stop offset="1" stop-color="#FFF0C3"/>
</linearGradient>
<linearGradient id="paint13_linear_356_85" x1="29.5804" y1="44.3689" x2="18.3244" y2="16.4082" gradientUnits="userSpaceOnUse">
<stop stop-color="#F3D49E"/>
<stop offset="1" stop-color="#FBE8BF"/>
</linearGradient>
<linearGradient id="paint14_linear_356_85" x1="28.4812" y1="49.4993" x2="16.1902" y2="18.9675" gradientUnits="userSpaceOnUse">
<stop stop-color="#D54E00"/>
<stop offset="1" stop-color="#F57E39"/>
</linearGradient>
<linearGradient id="paint15_linear_356_85" x1="25.9122" y1="54.3711" x2="14.0989" y2="25.0259" gradientUnits="userSpaceOnUse">
<stop stop-color="#F3D49E"/>
<stop offset="1" stop-color="#FBE8BF"/>
</linearGradient>
<linearGradient id="paint16_linear_356_85" x1="27.5899" y1="44.0906" x2="18.3448" y2="21.125" gradientUnits="userSpaceOnUse">
<stop stop-color="#F9CB5A"/>
<stop offset="1" stop-color="#FCD97D"/>
</linearGradient>
<clipPath id="clip0_356_85">
<rect width="52" height="52" fill="white"/>
</clipPath>
<clipPath id="clip1_356_85">
<rect width="35" height="44" fill="white" transform="translate(17 1)"/>
</clipPath>
<clipPath id="clip2_356_85">
<rect width="39.9229" height="38.9841" fill="white" transform="matrix(0.934939 -0.354809 0.41213 0.911125 -5.29553 24.4897)"/>
</clipPath>
</defs>
</svg>
