<svg width="24" height="24" viewBox="0 0 24 24" fill="none" xmlns="http://www.w3.org/2000/svg">
<path fill-rule="evenodd" clip-rule="evenodd" d="M2.60001 3.5C2.60001 3.00294 3.00295 2.6 3.50001 2.6H11.5C11.9971 2.6 12.4 3.00294 12.4 3.5C12.4 3.99705 11.9971 4.4 11.5 4.4H4.40001V19.6H19.6V12.5C19.6 12.0029 20.0029 11.6 20.5 11.6C20.9971 11.6 21.4 12.0029 21.4 12.5V20.5C21.4 20.9971 20.9971 21.4 20.5 21.4H3.50001C3.00295 21.4 2.60001 20.9971 2.60001 20.5V3.5Z" fill="#000D0B"/>
<path d="M8.34134 12.5367L8.29681 15.3234C8.29446 15.532 8.46321 15.7031 8.67181 15.7031H8.68118L11.4468 15.6352C11.4937 15.6328 11.5406 15.6141 11.5734 15.5812L21.321 5.85469C21.3937 5.78203 21.3937 5.6625 21.321 5.58984L18.4077 2.67891C18.3702 2.64141 18.3234 2.625 18.2742 2.625C18.2249 2.625 18.1781 2.64375 18.1406 2.67891L8.39525 12.4055C8.36139 12.4409 8.34214 12.4877 8.34134 12.5367V12.5367ZM9.82962 13.0898L18.2742 4.66406L19.3335 5.72109L10.8843 14.1516L9.81321 14.1773L9.82962 13.0898V13.0898Z" fill="#000D0B"/>
</svg>
