<svg width="52" height="52" viewBox="0 0 52 52" fill="none" xmlns="http://www.w3.org/2000/svg">
<g clip-path="url(#clip0_356_73)">
<path d="M22.135 51.6445C17.8665 51.1711 14.0554 49.5153 10.6467 46.9899C5.00628 42.8088 1.56104 37.2238 0.341478 30.2918C0.3269 30.1569 0.320773 30.0212 0.323167 29.8855C0.581307 29.6702 0.857751 29.4792 1.09556 29.2374C9.66636 20.6815 18.2378 12.1194 26.81 3.55131C27.0132 3.33799 27.2165 3.09622 27.4055 2.86665C28.3141 2.17792 29.3325 1.99913 30.4544 2.10274C32.5623 2.30591 34.6741 2.45828 36.7941 2.44203C39.656 2.64519 42.522 2.76709 45.3757 3.05152C47.4571 3.25468 48.7804 4.57932 48.9836 6.65566C49.26 9.49996 49.3901 12.3727 49.5934 15.2312C49.6727 17.2629 49.632 19.2945 49.8698 21.2998C50.0589 22.8966 49.6666 24.0791 48.5263 25.2066C39.9799 33.6989 31.4552 42.2115 22.9521 50.7444C22.6533 51.0268 22.3992 51.3417 22.135 51.6445ZM36.973 9.18303C36.4332 9.61681 36.0126 10.1806 35.7506 10.8214C35.4885 11.4622 35.3937 12.1591 35.475 12.8465C35.5563 13.534 35.811 14.1896 36.2152 14.7517C36.6195 15.3138 37.16 15.7641 37.786 16.0602C39.2088 16.8728 40.6317 16.7225 41.9651 15.8936C43.5017 14.9428 44.0708 13.4779 43.8676 11.7388C43.6643 10.0891 42.6866 8.93517 41.1662 8.38866C39.6459 7.84215 38.1783 7.97013 36.9588 9.18303H36.973ZM20.5475 30.8485C20.6065 29.4264 19.7914 28.1363 18.4682 27.4455C17.2933 26.836 16.2323 27.155 15.2628 27.8884C14.2038 28.6828 13.3542 29.7006 12.4171 30.6169C11.972 31.0476 11.972 31.4925 12.4171 31.9375C14.5852 34.1046 16.7595 36.2764 18.9398 38.453C19.5495 39.0625 20.0577 38.7191 20.5028 38.2498C20.948 37.7805 21.1838 37.3051 20.6187 36.7525C20.0089 36.1633 19.3991 35.5782 18.8361 34.9565C18.6328 34.729 18.0983 34.5786 18.4702 34.0849C18.7589 33.7009 19.0942 33.6786 19.5394 33.8269C20.6858 34.2332 21.8525 34.5624 22.9948 34.9463C23.8607 35.2369 24.2692 34.798 24.4786 34.0504C24.688 33.3027 24.444 32.8091 23.6513 32.6079C22.9013 32.4048 22.1696 32.1447 21.4155 31.9761C20.7284 31.8278 20.2528 31.5982 20.5475 30.8485ZM33.2472 22.5309C33.176 22.4918 33.108 22.447 33.044 22.3969C32.546 21.891 31.8691 21.4603 31.6212 20.8528C31.4301 20.3998 32.2309 20.0828 32.5541 19.6684C32.6761 19.5079 32.8407 19.3819 32.9728 19.2275C33.3245 18.8212 33.2493 18.4148 32.9058 18.0512C32.3143 17.4295 31.8549 17.7667 31.3691 18.2543C30.0744 19.5363 30.0642 19.5241 28.8243 18.1934C28.8014 18.1682 28.777 18.1444 28.7511 18.1223C28.3568 17.8216 28.4036 17.5575 28.7511 17.2263C29.489 16.5295 30.1739 15.7859 30.9138 15.0829C31.4321 14.5852 31.4484 14.0895 30.9626 13.5876C30.4768 13.0858 29.993 13.031 29.4727 13.5592C28.308 14.7396 27.1271 15.9017 25.9624 17.0801C25.4176 17.6306 25.3973 18.167 25.9807 18.744C28.0512 20.7878 30.1075 22.8459 32.1496 24.9181C32.7594 25.5459 33.2859 25.5276 33.8753 24.9324C35.0176 23.7804 36.1559 22.6224 37.3307 21.4948C37.849 20.9971 37.908 20.544 37.41 20.0198C36.912 19.4957 36.3937 19.4367 35.851 20.0015C35.1477 20.7329 34.4282 21.44 33.6985 22.1531C33.5521 22.2851 33.3916 22.407 33.2472 22.5309ZM31.2817 27.1204C31.2228 26.6329 30.9016 26.3505 30.5012 26.129C30.1008 25.9076 29.7857 26.0559 29.4991 26.3322C28.7552 27.0737 28.0173 27.8193 27.2633 28.5528C27.06 28.7559 26.9015 29.018 26.5051 28.7661C25.1006 27.8782 24.9908 27.2261 26.1352 26.066C26.6128 25.5805 27.0844 25.1091 26.3892 24.457C25.7551 23.8617 25.3099 24.2863 24.8485 24.7475C23.6513 25.938 23.6757 25.8954 22.4358 24.7231C21.8809 24.1989 21.9744 23.9104 22.4785 23.4635C23.1838 22.8337 23.818 22.1246 24.4989 21.4664C25.0355 20.9463 24.9522 20.4506 24.4684 19.9751C24.0213 19.5383 23.5497 19.4469 23.0456 19.9487C21.8586 21.1535 20.6532 22.34 19.4642 23.5447C18.9052 24.1095 18.954 24.6235 19.5373 25.1944C21.6147 27.2261 23.6723 29.2835 25.7103 31.3666C26.3506 32.0248 26.8608 31.907 27.4259 31.3381C28.5723 30.1882 29.7241 29.037 30.8813 27.8843C31.111 27.6832 31.3305 27.4699 31.2817 27.1204ZM13.6103 38.3087C13.6064 38.1136 13.5469 37.9236 13.4389 37.761C13.3309 37.5984 13.1789 37.4698 13.0005 37.3904C12.4416 37.0857 12.1306 37.4818 11.781 37.813C10.4679 39.0909 10.4862 39.0686 9.24222 37.813C8.80927 37.3782 8.77675 37.11 9.24222 36.6895C9.96785 36.0333 10.6427 35.3202 11.3236 34.6172C11.8074 34.1154 11.6509 33.6197 11.2118 33.1951C10.8053 32.805 10.3276 32.677 9.87031 33.1321C8.65075 34.3511 7.43118 35.5701 6.22991 36.7891C5.82339 37.2055 5.77055 37.6769 6.22991 38.1279C8.4048 40.2997 10.5675 42.4838 12.7566 44.6292C13.3359 45.2001 13.8847 44.8709 14.3298 44.3874C14.775 43.9039 14.9721 43.4407 14.3928 42.9002C13.7526 42.3009 13.1733 41.6223 12.5168 41.0535C11.907 40.5334 11.907 40.1575 12.5168 39.6313C12.9639 39.2798 13.4964 38.9182 13.6143 38.3087H13.6103Z" fill="#F46C1D"/>
<path d="M22.135 51.6444C22.4033 51.3417 22.6574 51.035 22.948 50.7404C31.466 42.221 39.9907 33.7084 48.5222 25.2026C49.6564 24.075 50.0548 22.8926 49.8658 21.2957C49.628 19.2905 49.6625 17.2527 49.5893 15.2272C50.8089 17.5189 51.4471 20.0036 51.7724 22.5411C52.6525 29.4487 51.0955 35.7895 46.9348 41.3745C42.4143 47.443 36.351 50.9659 28.7776 51.8212C26.5417 52.0813 24.3323 52.0873 22.135 51.6444Z" fill="#75BCFF"/>
<path d="M36.786 2.44613C34.666 2.46239 32.5541 2.29986 30.4463 2.10685C29.3243 2.00324 28.306 2.18202 27.3974 2.87075C26.9279 2.83622 26.4522 2.83621 25.9908 2.76104C24.4989 2.51927 23.2529 2.82199 22.1289 3.95565C15.5351 10.6059 8.91565 17.2304 2.27041 23.8292C1.53054 24.5687 0.772368 25.292 0.0223389 26.0214C0.0223389 19.6054 2.13016 13.9534 6.28479 9.09774C10.4394 4.24211 15.7608 1.29825 22.0801 0.327127C27.1677 -0.45912 32.113 0.154436 36.786 2.44613Z" fill="#75BCFF"/>
<path d="M0.0224972 26.0132C0.772527 25.2838 1.5307 24.5606 2.27056 23.8211C8.89684 17.2033 15.5163 10.5788 22.1291 3.9475C23.2531 2.81384 24.4991 2.51112 25.991 2.75289C26.4524 2.82806 26.928 2.82805 27.3976 2.86259C27.1943 3.09217 27.0154 3.33393 26.802 3.54726C18.2339 12.114 9.6638 20.6788 1.09165 29.2415C0.853833 29.4792 0.577414 29.6742 0.319274 29.8896C0.0671985 28.6138 -0.0324356 27.3125 0.0224972 26.0132Z" fill="#FEB327"/>
<path d="M20.5475 30.8485C20.2528 31.5982 20.7285 31.8278 21.4175 31.9822C22.1736 32.1508 22.9054 32.421 23.6534 32.614C24.4461 32.8172 24.688 33.3129 24.4806 34.0565C24.2733 34.8001 23.8709 35.243 22.9968 34.9524C21.8444 34.5685 20.6776 34.2312 19.5414 33.833C19.0963 33.6786 18.7609 33.707 18.4723 34.091C18.1003 34.5847 18.6288 34.735 18.8381 34.9626C19.4093 35.5843 20.0171 36.1694 20.6207 36.7586C21.1858 37.3112 20.9317 37.813 20.5049 38.2559C20.078 38.6988 19.5455 39.0564 18.9418 38.4591C16.7669 36.292 14.5927 34.1201 12.4192 31.9436C11.974 31.4986 11.974 31.0537 12.4192 30.623C13.3623 29.7067 14.2119 28.6889 15.2648 27.8945C16.2425 27.1611 17.2974 26.8401 18.4702 27.4516C19.7914 28.1363 20.6065 29.4324 20.5475 30.8485ZM16.9925 29.5036C16.5291 29.4792 15.027 30.6982 15.0473 31.0822C15.0473 31.2609 16.6897 32.8923 16.8767 32.9106C17.2222 32.937 18.4418 31.5393 18.4641 31.0822C18.4926 30.4625 17.6328 29.5381 16.9925 29.5036Z" fill="#FEFBFB"/>
<path d="M33.2472 22.531C33.3916 22.407 33.5521 22.2851 33.6924 22.145C34.4139 21.4318 35.1416 20.7228 35.8449 19.9934C36.3876 19.4286 36.8876 19.4693 37.4039 20.0117C37.9202 20.5542 37.8429 20.9889 37.3246 21.4867C36.1559 22.6143 35.0176 23.7723 33.8692 24.9242C33.2798 25.5175 32.7594 25.5337 32.1435 24.91C30.1109 22.831 28.0546 20.7729 25.9746 18.7358C25.3912 18.1589 25.4116 17.6225 25.9563 17.0719C27.121 15.8936 28.3019 14.7315 29.4666 13.5511C29.9869 13.0229 30.4829 13.0899 30.9565 13.5795C31.4301 14.0692 31.426 14.5771 30.9077 15.0748C30.176 15.7778 29.4849 16.5214 28.745 17.2182C28.3954 17.5494 28.3385 17.8135 28.745 18.1142C28.7709 18.1363 28.7953 18.1601 28.8182 18.1853C30.0581 19.516 30.0683 19.5282 31.363 18.2462C31.8488 17.7668 32.3082 17.4336 32.8997 18.0431C33.2432 18.4067 33.3184 18.809 32.9667 19.2194C32.8346 19.3738 32.67 19.4997 32.548 19.6602C32.2309 20.0666 31.424 20.3916 31.6151 20.8447C31.8691 21.4542 32.546 21.8829 33.0379 22.3887C33.1035 22.4419 33.1736 22.4895 33.2472 22.531Z" fill="#FEFBFB"/>
<path d="M31.2817 27.1205C31.3264 27.4699 31.1069 27.6832 30.8894 27.9026C29.739 29.0485 28.5872 30.1998 27.434 31.3564C26.8689 31.9253 26.3588 32.0431 25.7185 31.3849C23.6859 29.3031 21.6282 27.2457 19.5455 25.2127C18.9621 24.6419 18.9134 24.1278 19.4723 23.563C20.6614 22.3583 21.8667 21.1718 23.0538 19.967C23.5477 19.4652 24.0192 19.5607 24.4766 19.9934C24.9603 20.4668 25.0437 20.9646 24.5071 21.4847C23.8262 22.1429 23.192 22.852 22.4867 23.4818C21.9826 23.9308 21.8891 24.2172 22.444 24.7414C23.6839 25.9137 23.6635 25.9604 24.8567 24.7658C25.3181 24.3046 25.7632 23.88 26.3974 24.4753C27.0925 25.1274 26.621 25.5988 26.1433 26.0843C24.9989 27.2444 25.1087 27.8966 26.5132 28.7844C26.9198 29.0363 27.0661 28.7722 27.2714 28.5711C28.0194 27.8376 28.7572 27.092 29.5073 26.3505C29.7939 26.066 30.117 25.9218 30.5093 26.1473C30.9016 26.3728 31.2268 26.6329 31.2817 27.1205Z" fill="#FEFBFB"/>
<path d="M13.6143 38.3087C13.4964 38.9182 12.9639 39.2799 12.5167 39.6598C11.907 40.186 11.907 40.5618 12.5167 41.0819C13.1814 41.6508 13.7526 42.3294 14.3928 42.9287C14.9721 43.4691 14.7546 43.9567 14.3298 44.4159C13.905 44.875 13.3359 45.2285 12.7566 44.6576C10.5675 42.502 8.40478 40.318 6.2299 38.1563C5.77866 37.7053 5.82338 37.234 6.2299 36.8175C7.43116 35.5823 8.65073 34.3673 9.87029 33.1605C10.3276 32.7054 10.8053 32.8334 11.2118 33.2235C11.6508 33.6461 11.8074 34.1418 11.3236 34.6457C10.6427 35.3486 9.96784 36.0678 9.2422 36.7179C8.77877 37.1385 8.81129 37.4067 9.2422 37.8414C10.4862 39.0889 10.4618 39.1112 11.7809 37.8414C12.1224 37.5103 12.4334 37.1141 13.0005 37.4189C13.1754 37.4956 13.3254 37.6195 13.4339 37.7766C13.5423 37.9338 13.6048 38.1181 13.6143 38.3087Z" fill="#FEFBFB"/>
<path d="M36.9588 9.18303C38.1783 7.96404 39.6621 7.85231 41.1561 8.38866C42.65 8.92502 43.6623 10.0891 43.8574 11.7388C44.0607 13.4779 43.4915 14.9428 41.9549 15.8936C40.6134 16.7225 39.2048 16.8809 37.7759 16.0602C39.7861 13.866 39.3735 10.7555 36.9588 9.18303Z" fill="#FEB327"/>
<path d="M36.9588 9.18304C39.3735 10.7555 39.7861 13.866 37.7718 16.0602C37.1458 15.7641 36.6052 15.3139 36.201 14.7517C35.7968 14.1896 35.542 13.534 35.4608 12.8466C35.3795 12.1591 35.4743 11.4622 35.7364 10.8214C35.9984 10.1806 36.419 9.61683 36.9588 9.18304Z" fill="#FEE462"/>
<path d="M16.9925 29.5036C17.6328 29.5381 18.4926 30.4625 18.4601 31.0842C18.4377 31.5352 17.2182 32.933 16.8726 32.9127C16.6897 32.8985 15.0575 31.267 15.0433 31.0842C15.0209 30.6982 16.5291 29.4792 16.9925 29.5036Z" fill="#F46C1D"/>
</g>
<defs>
<clipPath id="clip0_356_73">
<rect width="52" height="52" fill="white"/>
</clipPath>
</defs>
</svg>
