<svg width="24" height="24" viewBox="0 0 24 24" fill="none" xmlns="http://www.w3.org/2000/svg">
<path fill-rule="evenodd" clip-rule="evenodd" d="M18.8106 1.40625V0H24V5.18522H22.5926V2.40061L18.9759 6.01444C19.8477 7.10184 20.3699 8.48039 20.3699 9.9788C20.3699 13.4811 17.5183 16.3305 14.0132 16.3305C12.5769 16.3305 11.2506 15.8518 10.185 15.0461C9.29585 15.7184 8.22512 16.1625 7.06051 16.2913V20.2394H8.95846V21.6457H7.06051V24H5.65313V21.6456H3.75513V20.2394H5.65308V16.2913C2.47788 15.9403 0 13.2434 0 9.97875C0 6.47644 2.85164 3.62709 6.35677 3.62709C7.79305 3.62709 9.11937 4.10578 10.1849 4.91147C11.2506 4.10573 12.5769 3.62709 14.0131 3.62709C15.5127 3.62709 16.8924 4.149 17.9807 5.02008L21.5974 1.40625H18.8106ZM9.06372 9.97884C9.06372 11.1659 9.48462 12.2566 10.1849 13.1099C10.8852 12.2565 11.3062 11.1659 11.3062 9.97884C11.3062 8.79173 10.8852 7.70109 10.1849 6.84778C9.48462 7.70109 9.06372 8.79173 9.06372 9.97884ZM1.40735 9.97879C1.40735 7.25189 3.62764 5.03339 6.35674 5.03339C7.39107 5.03339 8.35222 5.35228 9.1472 5.89654C8.21734 7.00129 7.65627 8.42568 7.65627 9.97879C7.65627 11.5319 8.21734 12.9563 9.1472 14.061C8.35222 14.6053 7.39112 14.9242 6.35674 14.9242C3.62764 14.9242 1.40735 12.7057 1.40735 9.97879ZM11.2225 14.061C12.0175 14.6053 12.9787 14.9242 14.013 14.9242C16.7421 14.9242 18.9624 12.7057 18.9624 9.97879C18.9624 7.25189 16.7421 5.03339 14.013 5.03339C12.9786 5.03339 12.0175 5.35228 11.2225 5.89654C12.1524 7.00129 12.7135 8.42568 12.7135 9.97879C12.7135 11.5319 12.1524 12.9563 11.2225 14.061Z" fill="#000D0B"/>
</svg>
