<svg width="32" height="32" viewBox="0 0 32 32" fill="none" xmlns="http://www.w3.org/2000/svg">
<path d="M4.28933 7.80232C7.04808 3.93154 12.7986 3.92782 15.5638 7.7949L15.9954 8.39826L16.3825 7.84781C19.1255 3.95381 24.8853 3.91576 27.6793 7.77262C28.6233 9.07549 29.0855 10.6658 28.9869 12.2716C28.8884 13.8775 28.2352 15.3994 27.139 16.577L16.6796 27.807C16.5927 27.9003 16.4875 27.9747 16.3706 28.0256C16.2537 28.0765 16.1276 28.1028 16.0001 28.1028C15.8726 28.1028 15.7465 28.0765 15.6295 28.0256C15.5126 27.9747 15.4075 27.9003 15.3206 27.807L4.85371 16.5371C3.76853 15.3686 3.11977 13.8615 3.01695 12.2702C2.91413 10.6788 3.36355 9.10074 4.28933 7.80232ZM14.0545 8.87445C12.03 6.0433 7.82038 6.04701 5.80052 8.88095C5.1232 9.83138 4.79451 10.9864 4.86993 12.151C4.94536 13.3157 5.42027 14.4186 6.21452 15.2738L16.0019 25.8103L25.7801 15.3118C26.5835 14.449 27.0623 13.334 27.1346 12.1572C27.2069 10.9805 26.8682 9.81519 26.1765 8.86053C24.1297 6.03494 19.9099 6.06372 17.9002 8.91622L16.7594 10.5351C16.674 10.6561 16.5609 10.7549 16.4296 10.8233C16.2982 10.8917 16.1524 10.9277 16.0043 10.9282C15.8562 10.9288 15.7101 10.8939 15.5783 10.8265C15.4464 10.759 15.3326 10.661 15.2464 10.5407L14.0536 8.87352L14.0545 8.87445Z" fill="#1A1A19"/>
</svg>
