<svg width="32" height="32" viewBox="0 0 32 32" fill="none" xmlns="http://www.w3.org/2000/svg">
<path d="M12.9248 18.2691H12.2001V18.9937V26.4989C12.2001 26.9087 11.8492 27.2754 11.3889 27.2754H6.78116C6.32085 27.2754 5.9699 26.9087 5.9699 26.4989V15.9916V15.267H5.24526H2.63422C2.61972 15.267 2.61241 15.2649 2.6102 15.2642C2.60782 15.2634 2.60688 15.2628 2.60635 15.2624C2.60473 15.2612 2.59997 15.2568 2.59657 15.2479C2.59533 15.2447 2.59474 15.2421 2.59446 15.2403C2.59582 15.2388 2.59781 15.2369 2.6006 15.2345L2.60062 15.2345L2.60617 15.2296L15.4445 3.92827C15.4448 3.92803 15.4451 3.9278 15.4453 3.92756C15.7556 3.65697 16.2377 3.657 16.5479 3.92765C16.5482 3.92786 16.5484 3.92806 16.5486 3.92827L29.387 15.2296L29.3937 15.2355L29.4005 15.2412C29.4017 15.2422 29.4029 15.2432 29.4038 15.2441C29.4006 15.2521 29.3955 15.2577 29.3917 15.2604C29.3901 15.2615 29.3881 15.2627 29.3846 15.2638C29.3814 15.2649 29.3735 15.267 29.359 15.267H26.7479H26.0233V15.9916V26.4989C26.0233 26.9087 25.6723 27.2754 25.212 27.2754H20.6043C20.144 27.2754 19.793 26.9087 19.793 26.4989V18.9937V18.2691H19.0684H12.9248Z" fill="#1A1A19" stroke="#1A1A19" stroke-width="1.44928"/>
</svg>
