<svg width="32" height="32" viewBox="0 0 32 32" fill="none" xmlns="http://www.w3.org/2000/svg">
<path d="M15.5616 7.87223C12.7961 4.03937 7.04513 4.04305 4.28614 7.88051C3.36063 9.16746 2.91148 10.7315 3.01447 12.3085C3.11747 13.8856 3.76631 15.3791 4.85149 16.5371L15.3184 27.7063C15.4052 27.7989 15.5103 27.8727 15.6272 27.9233C15.7441 27.9738 15.8702 27.9999 15.9977 28C16.1252 28.0001 16.2514 27.9741 16.3683 27.9238C16.4853 27.8734 16.5905 27.7997 16.6775 27.7072L27.1379 16.5767C28.2344 15.4096 28.888 13.9014 28.9869 12.3097C29.0858 10.718 28.6238 9.14171 27.68 7.85015C24.8857 4.02741 19.1245 4.06513 16.3813 7.92468L15.9942 8.47026L15.5625 7.87223H15.5616Z" fill="#1A1A19"/>
</svg>
