<svg width="32" height="32" viewBox="0 0 32 32" fill="none" xmlns="http://www.w3.org/2000/svg">
<path d="M12.9248 18.1937H12.1248V18.9937V26.4989C12.1248 26.8655 11.8092 27.2 11.3889 27.2H6.78116C6.36083 27.2 6.04526 26.8655 6.04526 26.4989V15.9916V15.1916H5.24526H2.76341L15.4941 3.985C15.4944 3.98475 15.4947 3.98451 15.495 3.98426C15.7769 3.73855 16.2165 3.73858 16.4983 3.98435C16.4985 3.98457 16.4988 3.98478 16.499 3.985L29.2298 15.1916H26.7479H25.9479V15.9916V26.4989C25.9479 26.8655 25.6323 27.2 25.212 27.2H20.6043C20.184 27.2 19.8684 26.8655 19.8684 26.4989V18.9937V18.1937H19.0684H12.9248Z" stroke="#1A1A19" stroke-width="1.6"/>
</svg>
