<svg width="24" height="24" viewBox="0 0 24 24" fill="none" xmlns="http://www.w3.org/2000/svg">
<path d="M12 2C6.47768 2 2 6.47768 2 12C2 17.5223 6.47768 22 12 22C17.5223 22 22 17.5223 22 12C22 6.47768 17.5223 2 12 2ZM12 20.3036C7.41518 20.3036 3.69643 16.5848 3.69643 12C3.69643 7.41518 7.41518 3.69643 12 3.69643C16.5848 3.69643 20.3036 7.41518 20.3036 12C20.3036 16.5848 16.5848 20.3036 12 20.3036Z" fill="#000D0B"/>
<path fill-rule="evenodd" clip-rule="evenodd" d="M12.0002 10.5C12.442 10.5 12.8002 10.8582 12.8002 11.3V16.8C12.8002 17.2418 12.442 17.6 12.0002 17.6C11.5584 17.6 11.2002 17.2418 11.2002 16.8V11.3C11.2002 10.8582 11.5584 10.5 12.0002 10.5Z" fill="#000D0B"/>
<circle cx="12" cy="7.75" r="1.25" fill="#000D0B"/>
</svg>
