<svg width="24" height="24" viewBox="0 0 24 24" fill="none" xmlns="http://www.w3.org/2000/svg">
<path fill-rule="evenodd" clip-rule="evenodd" d="M4.8002 18C4.8002 18.3866 5.1136 18.7 5.5002 18.7L19.0002 18.7C19.3868 18.7 19.7002 18.3866 19.7002 18L19.7002 12C19.7002 11.5582 20.0584 11.2 20.5002 11.2C20.942 11.2 21.3002 11.5582 21.3002 12L21.3002 18C21.3002 19.2702 20.2705 20.3 19.0002 20.3L5.5002 20.3C4.22995 20.3 3.2002 19.2702 3.2002 18L3.2002 12C3.2002 11.5582 3.55837 11.2 4.0002 11.2C4.44203 11.2 4.8002 11.5582 4.8002 12L4.8002 18ZM17.0657 9.18434C17.3781 9.49676 17.3781 10.0033 17.0657 10.3157L12.5657 14.8157C12.2532 15.1281 11.7467 15.1281 11.4343 14.8157L6.9343 10.3157C6.62188 10.0033 6.62188 9.49676 6.9343 9.18434C7.24672 8.87192 7.75325 8.87192 8.06567 9.18434L11.1998 12.3185L11.1998 2.8C11.1998 2.35817 11.558 2 11.9998 2C12.4416 2 12.7998 2.35817 12.7998 2.8L12.7998 12.3188L15.9343 9.18434C16.2467 8.87192 16.7532 8.87192 17.0657 9.18434Z" fill="#000D0B"/>
</svg>
