<svg width="32" height="32" viewBox="0 0 32 32" fill="none" xmlns="http://www.w3.org/2000/svg">
<g clip-path="url(#clip0_85_120)">
<path d="M12.7242 10.9665C12.3972 10.9363 12.3776 11.2321 12.2817 11.4166C11.467 13.0048 10.9621 14.7032 10.493 16.419C9.95452 18.3912 9.70147 20.4098 9.38602 22.4203C9.17688 23.7486 8.71006 24.9702 7.70478 25.8983C5.39381 28.0282 1.96202 27.3217 0.621652 24.4563C-0.134037 22.8437 -0.107461 21.1511 0.211454 19.4597C0.820395 16.2241 2.29133 13.3795 4.27299 10.7901C6.08479 8.42235 8.20164 6.3968 10.872 5.01626C11.6581 4.6056 12.4979 4.30802 13.3667 4.13226C15.7932 3.64733 17.7067 4.53018 18.8656 6.72047C19.6329 8.17177 19.9876 9.74488 20.0211 11.3888C19.7253 11.0767 19.6075 10.6672 19.4203 10.2936C18.452 8.36318 16.4726 7.40377 14.7544 8.47224C13.8138 9.05693 12.953 9.76576 12.7242 10.9665Z" fill="#F78000"/>
<path d="M20.154 14.0558C20.6589 13.4967 21.0356 12.8424 21.5256 12.267C23.0057 10.5326 24.7967 10.0627 26.716 11.0349C28.1026 11.7403 28.7693 12.9456 29.0039 14.4781C29.1298 15.3053 29.3413 16.1197 29.3505 16.9642C29.3505 17.1963 29.339 17.4283 29.3332 17.6603C29.0374 17.5513 29.0582 17.2659 29.0131 17.0362C28.8456 16.2044 28.6283 15.3865 28.247 14.6278C27.9004 13.9317 27.3226 13.6614 26.753 13.9538C26.1175 14.2797 25.5882 14.7449 25.3248 15.448C24.5402 16.2218 24.1474 17.2404 23.6505 18.1893C22.3113 20.7416 21.1546 23.3971 19.6063 25.8461C18.7975 27.1291 17.7228 27.5004 16.3201 27.2718C13.6682 26.8403 11.8692 24.0003 12.6491 21.4713C12.7522 21.5169 12.8508 21.5721 12.9438 21.636C13.8046 22.3646 14.2668 22.3889 15.2027 21.752C15.7886 21.3564 16.1768 20.7764 16.5824 20.2218C17.4686 19.0118 18.1666 17.6812 18.9049 16.3795C19.3336 15.6139 19.8894 14.912 20.154 14.0558Z" fill="#F78000"/>
<path d="M20.154 14.0558C19.8894 14.912 19.3336 15.6139 18.9015 16.3761C18.1631 17.6777 17.4652 19.0084 16.5789 20.2184C16.1734 20.7729 15.7851 21.3529 15.1993 21.7485C14.2633 22.382 13.8011 22.3576 12.9403 21.6325C12.8474 21.5686 12.7487 21.5134 12.6457 21.4678C13.2315 17.9724 13.2049 14.4735 12.7242 10.9699C12.9553 9.76807 13.8127 9.05924 14.7602 8.47107C16.4784 7.4026 18.4578 8.36202 19.4261 10.2924C19.6132 10.666 19.7311 11.0755 20.0269 11.3876C20.1968 12.2693 20.1494 13.1637 20.154 14.0558Z" fill="#990000"/>
<path d="M25.3248 15.4433C25.5882 14.7403 26.1175 14.2751 26.7553 13.9491C27.333 13.6568 27.8992 13.9248 28.2493 14.6231C28.6306 15.3819 28.8479 16.1997 29.0154 17.0315C29.0605 17.2636 29.0397 17.5466 29.3355 17.6557C29.369 19.3958 29.4141 21.1244 29.7861 22.8321C30.1074 24.3008 30.4794 25.7463 31.3368 27.0178C29.8843 27.4493 28.1581 26.8171 27.3758 25.5862C26.5935 24.3553 26.426 22.9179 26.2423 21.4991C25.9776 19.4736 25.8159 17.4295 25.3248 15.4433Z" fill="#990000"/>
</g>
<defs>
<clipPath id="clip0_85_120">
<rect width="31.3333" height="23.3333" fill="white" transform="translate(0 4)"/>
</clipPath>
</defs>
</svg>
