<svg width="35" height="61" viewBox="0 0 35 61" fill="none" xmlns="http://www.w3.org/2000/svg">
<g clip-path="url(#clip0_356_111)">
<path d="M32.4775 23.7355C32.2508 26.528 32.6947 21.0222 29.4978 60.9677H5.63636L2.65192 23.7355H32.4775Z" fill="url(#paint0_linear_356_111)"/>
<path d="M32.4916 23.7355L32.3358 25.5971H2.79831L2.63776 23.7355H32.4916Z" fill="#B8CBF8"/>
<path d="M30.0833 27.4587C27.505 59.7111 27.8686 55.1036 27.6891 57.2957C27.6617 57.662 27.4944 58.0044 27.221 58.2539C26.9476 58.5035 26.5885 58.6417 26.2158 58.6407H8.89471C8.52206 58.6417 8.16289 58.5035 7.88951 58.2539C7.61612 58.0044 7.44885 57.662 7.42138 57.2957C7.24193 55.0525 7.56776 59.2457 5.02721 27.4587H30.0833Z" fill="url(#paint1_linear_356_111)"/>
<path d="M27.3775 55.8483L27.2547 57.3562C27.2262 57.7068 27.0644 58.0339 26.8017 58.272C26.5391 58.5102 26.1949 58.6419 25.838 58.6407H9.30553C8.94864 58.6419 8.60448 58.5102 8.34183 58.272C8.07919 58.0339 7.91741 57.7068 7.88887 57.3562L7.76608 55.8483H27.3775Z" fill="#F1D191"/>
<path d="M32.4916 19.6819C1.48552 19.6819 2.63776 19.5842 2.63776 19.6819C2.63776 16.5603 3.896 13.5665 6.13565 11.3592C8.3753 9.15192 11.4129 7.91187 14.5803 7.91187H20.5491C23.7165 7.91187 26.7541 9.15192 28.9938 11.3592C31.2334 13.5665 32.4916 16.5603 32.4916 19.6819Z" fill="url(#paint2_linear_356_111)"/>
<path d="M15.4444 0V27.4588H19.2222V0H15.4444Z" fill="url(#paint3_linear_356_111)"/>
<path d="M14.5802 52.4742C14.5802 52.765 14.4927 53.0494 14.3288 53.2912C14.1648 53.5331 13.9318 53.7216 13.6591 53.8329C13.3864 53.9442 13.0864 53.9733 12.7969 53.9166C12.5074 53.8598 12.2415 53.7198 12.0329 53.5141C11.8242 53.3084 11.682 53.0463 11.6245 52.7611C11.5669 52.4758 11.5964 52.1801 11.7094 51.9113C11.8223 51.6426 12.0136 51.4129 12.259 51.2513C12.5044 51.0897 12.7929 51.0035 13.088 51.0035C13.4838 51.0035 13.8633 51.1584 14.1432 51.4342C14.423 51.71 14.5802 52.0841 14.5802 52.4742Z" fill="#823000"/>
<path d="M24.53 53.4561C24.53 53.747 24.4425 54.0314 24.2785 54.2732C24.1145 54.5151 23.8815 54.7036 23.6088 54.8149C23.3362 54.9262 23.0361 54.9553 22.7466 54.8986C22.4572 54.8418 22.1913 54.7017 21.9826 54.4961C21.7739 54.2904 21.6318 54.0283 21.5742 53.7431C21.5166 53.4578 21.5462 53.1621 21.6591 52.8933C21.7721 52.6246 21.9633 52.3949 22.2087 52.2333C22.4541 52.0717 22.7426 51.9855 23.0378 51.9855C23.2339 51.9849 23.4282 52.0225 23.6095 52.0962C23.7909 52.1699 23.9556 52.2782 24.0943 52.4149C24.233 52.5515 24.3429 52.7139 24.4177 52.8926C24.4924 53.0713 24.5306 53.2628 24.53 53.4561Z" fill="#823000"/>
<path d="M19.5575 53.4561C19.5575 53.747 19.47 54.0314 19.306 54.2732C19.142 54.5151 18.909 54.7035 18.6363 54.8149C18.3636 54.9262 18.0636 54.9553 17.7741 54.8986C17.4847 54.8418 17.2188 54.7017 17.0101 54.4961C16.8014 54.2904 16.6593 54.0283 16.6017 53.743C16.5441 53.4578 16.5737 53.1621 16.6866 52.8933C16.7996 52.6246 16.9908 52.3949 17.2362 52.2333C17.4816 52.0717 17.7701 51.9855 18.0653 51.9855C18.461 51.9855 18.8406 52.1404 19.1204 52.4162C19.4003 52.692 19.5575 53.0661 19.5575 53.4561Z" fill="#823000"/>
<path d="M22.5277 49.5328C22.5277 49.8237 22.4402 50.108 22.2763 50.3499C22.1123 50.5917 21.8792 50.7802 21.6066 50.8915C21.3339 51.0028 21.0339 51.032 20.7444 50.9752C20.4549 50.9185 20.1891 50.7784 19.9804 50.5727C19.7717 50.3671 19.6296 50.105 19.572 49.8197C19.5144 49.5344 19.5439 49.2387 19.6569 48.97C19.7698 48.7013 19.9611 48.4716 20.2065 48.31C20.4519 48.1484 20.7404 48.0621 21.0355 48.0621C21.2315 48.0621 21.4255 48.1002 21.6066 48.1741C21.7876 48.248 21.9521 48.3563 22.0907 48.4929C22.2293 48.6295 22.3392 48.7916 22.4142 48.97C22.4892 49.1484 22.5277 49.3397 22.5277 49.5328Z" fill="#823000"/>
<path d="M17.5647 49.5328C17.5647 49.8237 17.4772 50.108 17.3132 50.3499C17.1492 50.5917 16.9162 50.7802 16.6435 50.8915C16.3709 51.0029 16.0708 51.032 15.7813 50.9752C15.4919 50.9185 15.226 50.7784 15.0173 50.5727C14.8086 50.3671 14.6665 50.105 14.6089 49.8197C14.5513 49.5344 14.5809 49.2388 14.6938 48.97C14.8068 48.7013 14.998 48.4716 15.2434 48.31C15.4888 48.1484 15.7773 48.0621 16.0725 48.0621C16.2686 48.0615 16.4629 48.0991 16.6443 48.1728C16.8256 48.2465 16.9903 48.3548 17.129 48.4915C17.2677 48.6282 17.3776 48.7906 17.4524 48.9693C17.5271 49.148 17.5653 49.3395 17.5647 49.5328Z" fill="#823000"/>
<path d="M13.5839 47.5735C13.5839 47.8643 13.4964 48.1487 13.3324 48.3905C13.1684 48.6324 12.9354 48.8209 12.6627 48.9322C12.39 49.0435 12.09 49.0726 11.8005 49.0159C11.5111 48.9591 11.2452 48.8191 11.0365 48.6134C10.8278 48.4077 10.6857 48.1457 10.6281 47.8604C10.5705 47.5751 10.6001 47.2794 10.713 47.0107C10.826 46.7419 11.0172 46.5122 11.2626 46.3506C11.508 46.189 11.7965 46.1028 12.0917 46.1028C12.2876 46.1028 12.4816 46.1408 12.6627 46.2147C12.8437 46.2886 13.0082 46.397 13.1468 46.5335C13.2854 46.6701 13.3953 46.8322 13.4703 47.0107C13.5453 47.1891 13.5839 47.3803 13.5839 47.5735Z" fill="#823000"/>
<path d="M19.5575 45.6095C19.5575 45.9003 19.47 46.1847 19.306 46.4265C19.142 46.6684 18.909 46.8569 18.6363 46.9682C18.3636 47.0795 18.0636 47.1086 17.7741 47.0519C17.4847 46.9951 17.2188 46.8551 17.0101 46.6494C16.8014 46.4437 16.6593 46.1817 16.6017 45.8964C16.5441 45.6111 16.5737 45.3154 16.6866 45.0467C16.7996 44.7779 16.9908 44.5482 17.2362 44.3866C17.4816 44.2251 17.7701 44.1388 18.0653 44.1388C18.461 44.1388 18.8406 44.2937 19.1204 44.5695C19.4003 44.8453 19.5575 45.2194 19.5575 45.6095Z" fill="#823000"/>
<path d="M15.5766 43.6501C15.5766 43.941 15.4891 44.2253 15.3251 44.4672C15.1612 44.709 14.9281 44.8975 14.6555 45.0088C14.3828 45.1202 14.0828 45.1493 13.7933 45.0925C13.5038 45.0358 13.2379 44.8957 13.0293 44.69C12.8206 44.4844 12.6784 44.2223 12.6208 43.937C12.5633 43.6517 12.5928 43.356 12.7058 43.0873C12.8187 42.8186 13.01 42.5889 13.2554 42.4273C13.5008 42.2657 13.7893 42.1794 14.0844 42.1794C14.4798 42.1807 14.8586 42.336 15.1382 42.6115C15.4178 42.8871 15.5754 43.2604 15.5766 43.6501Z" fill="#823000"/>
<path d="M24.53 45.6095C24.53 45.9003 24.4425 46.1847 24.2785 46.4265C24.1145 46.6684 23.8815 46.8569 23.6088 46.9682C23.3362 47.0795 23.0361 47.1086 22.7466 47.0519C22.4572 46.9951 22.1913 46.8551 21.9826 46.6494C21.7739 46.4437 21.6318 46.1817 21.5742 45.8964C21.5166 45.6111 21.5462 45.3154 21.6591 45.0467C21.7721 44.7779 21.9633 44.5483 22.2087 44.3867C22.4541 44.2251 22.7426 44.1388 23.0378 44.1388C23.2339 44.1382 23.4282 44.1758 23.6095 44.2495C23.7909 44.3232 23.9556 44.4315 24.0943 44.5682C24.233 44.7049 24.3429 44.8672 24.4177 45.0459C24.4924 45.2247 24.5306 45.4162 24.53 45.6095Z" fill="#823000"/>
<path d="M34.3333 19.5469H0.333313V23.2702H34.3333V19.5469Z" fill="url(#paint4_linear_356_111)"/>
</g>
<defs>
<linearGradient id="paint0_linear_356_111" x1="17.5647" y1="60.9677" x2="17.5647" y2="23.7355" gradientUnits="userSpaceOnUse">
<stop stop-color="#ADBFF6"/>
<stop offset="1" stop-color="#C9CEFC"/>
</linearGradient>
<linearGradient id="paint1_linear_356_111" x1="17.5647" y1="58.6407" x2="17.5647" y2="27.4587" gradientUnits="userSpaceOnUse">
<stop stop-color="#F3D49E"/>
<stop offset="1" stop-color="#FBE8BF"/>
</linearGradient>
<linearGradient id="paint2_linear_356_111" x1="17.5647" y1="19.6819" x2="17.5647" y2="7.91187" gradientUnits="userSpaceOnUse">
<stop stop-color="#E9E9F7"/>
<stop offset="1" stop-color="#FAFAFC"/>
</linearGradient>
<linearGradient id="paint3_linear_356_111" x1="17.3333" y1="27.4588" x2="17.3333" y2="0" gradientUnits="userSpaceOnUse">
<stop stop-color="#ADBFF6"/>
<stop offset="1" stop-color="#C9CEFC"/>
</linearGradient>
<linearGradient id="paint4_linear_356_111" x1="17.3333" y1="23.2702" x2="17.3333" y2="19.5469" gradientUnits="userSpaceOnUse">
<stop stop-color="#E9E9F7"/>
<stop offset="1" stop-color="#FAFAFC"/>
</linearGradient>
<clipPath id="clip0_356_111">
<rect width="34" height="60.9677" fill="white" transform="translate(0.333313)"/>
</clipPath>
</defs>
</svg>
