<svg width="24" height="25" viewBox="0 0 24 25" fill="none" xmlns="http://www.w3.org/2000/svg">
<path fill-rule="evenodd" clip-rule="evenodd" d="M11.7872 4.24146C12.0216 4.24228 12.2401 4.36039 12.3691 4.5561L13.78 6.69563C14.159 6.70074 14.6968 6.71084 15.1926 6.7208C15.547 6.72792 15.8832 6.73504 16.1309 6.74038L16.5373 6.74927C16.5373 6.74927 16.5377 6.74928 16.5221 7.4491L16.5373 6.74927C16.7824 6.75475 17.0074 6.88817 17.1293 7.10093C17.2513 7.31369 17.2531 7.57478 17.1339 7.78915L15.8388 10.1195L17.1939 12.513C17.3154 12.7276 17.3151 12.9903 17.1929 13.2045C17.0708 13.4187 16.845 13.5529 16.5985 13.5577L13.7893 13.6126L12.2333 15.7323C12.0973 15.9176 11.8791 16.0243 11.6494 16.0178C11.4197 16.0114 11.2078 15.8927 11.0824 15.7001L9.72796 13.6205L7.17931 13.4327C6.94842 13.4157 6.74088 13.2856 6.62491 13.0852C6.50894 12.8849 6.49955 12.6401 6.59982 12.4314L7.7215 10.0971L6.63587 7.88022C6.53199 7.6681 6.54209 7.4179 6.66272 7.21484C6.78334 7.01178 6.99824 6.88325 7.2342 6.87301L9.72148 6.76512L11.2031 4.55204C11.3335 4.35723 11.5528 4.24064 11.7872 4.24146ZM15.3461 8.1242C15.2863 8.12298 15.2256 8.12175 15.1644 8.12052C14.4529 8.10623 13.6814 8.09222 13.4008 8.09222C13.1655 8.09222 12.946 7.974 12.8165 7.77757L11.7803 6.20633L10.6876 7.83852C10.5637 8.0237 10.3589 8.13879 10.1363 8.14845L8.36373 8.22533L9.12818 9.78636C9.22249 9.97894 9.22333 10.2041 9.13045 10.3974L8.30656 12.112L10.1767 12.2498C10.3946 12.2659 10.5926 12.3828 10.7118 12.5659L11.7034 14.0883L12.8655 12.5052C12.9945 12.3295 13.1981 12.2239 13.4161 12.2196L15.3971 12.1809L14.4271 10.4675C14.3069 10.2553 14.3059 9.99581 14.4244 9.78262L15.3461 8.1242Z" fill="#000D0B"/>
<path fill-rule="evenodd" clip-rule="evenodd" d="M3.6998 10.1559C3.6998 5.77354 7.31867 2.20005 11.8087 2.20005C16.2987 2.20005 19.9176 5.77354 19.9176 10.1559C19.9176 14.5384 16.2987 18.1118 11.8087 18.1118C7.31867 18.1118 3.6998 14.5384 3.6998 10.1559ZM11.8087 0.800049C6.5687 0.800049 2.2998 4.97731 2.2998 10.1559C2.2998 13.4089 3.98421 16.2668 6.53564 17.9424V23.2915C6.53564 23.5273 6.65433 23.7472 6.85139 23.8766C7.04846 24.006 7.29744 24.0275 7.51379 23.9339L11.886 22.0407L15.9727 24.1237C16.1897 24.2343 16.4486 24.2242 16.6563 24.097C16.864 23.9697 16.9906 23.7436 16.9906 23.5001V18.0015C19.593 16.3345 21.3176 13.4475 21.3176 10.1559C21.3176 4.97731 17.0487 0.800049 11.8087 0.800049ZM15.5906 18.7422C14.4307 19.2375 13.1516 19.5118 11.8087 19.5118C10.4305 19.5118 9.11948 19.2229 7.93564 18.7027V22.2256L11.6321 20.625C11.8236 20.5421 12.0422 20.5489 12.2281 20.6437L15.5906 22.3576V18.7422Z" fill="#000D0B"/>
</svg>
