<svg width="24" height="24" viewBox="0 0 24 24" fill="none" xmlns="http://www.w3.org/2000/svg">
<path fill-rule="evenodd" clip-rule="evenodd" d="M7.55566 12C7.55566 11.5582 7.91384 11.2 8.35566 11.2H15.6446C16.0864 11.2 16.4446 11.5582 16.4446 12V12C16.4446 12.4418 16.0864 12.8 15.6446 12.8H8.35566C7.91384 12.8 7.55566 12.4418 7.55566 12V12Z" fill="#000D0B"/>
<path fill-rule="evenodd" clip-rule="evenodd" d="M12 3.6C16.6392 3.6 20.4 7.36081 20.4 12C20.4 16.6392 16.6392 20.4 12 20.4C7.36081 20.4 3.6 16.6392 3.6 12C3.6 7.36081 7.36081 3.6 12 3.6ZM12 2C17.5228 2 22 6.47715 22 12C22 17.5228 17.5228 22 12 22C6.47715 22 2 17.5228 2 12C2 6.47715 6.47715 2 12 2Z" fill="#000D0B"/>
</svg>
