<svg width="24" height="24" viewBox="0 0 24 24" fill="none" xmlns="http://www.w3.org/2000/svg">
<path d="M19.4249 9.29997L10.1999 18.525C10.7624 18.6375 11.4374 18.75 11.9999 18.75C16.0499 18.75 19.1999 15.2625 20.5499 13.2375C21.1124 12.45 21.1124 11.4375 20.5499 10.65C20.3249 10.3125 19.8749 9.86247 19.4249 9.29997Z" fill="#000D0B"/>
<path fill-rule="evenodd" clip-rule="evenodd" d="M16.05 6.375L19.0875 3.3375C19.5375 2.8875 20.2125 2.8875 20.6625 3.3375C21.1125 3.7875 21.1125 4.4625 20.6625 4.9125L4.9125 20.6625C4.6875 20.8875 4.4625 21 4.125 21C3.7875 21 3.5625 20.8875 3.3375 20.6625C2.8875 20.2125 2.8875 19.5375 3.3375 19.0875L6.15 16.275C5.025 15.2625 4.0125 14.1375 3.45 13.2375C2.8875 12.5625 2.8875 11.55 3.45 10.7625C4.8 8.7375 7.95 5.25 12 5.25C13.4625 5.25 14.8125 5.7 16.05 6.375ZM8.625 12C8.625 12.5625 8.7375 13.0125 8.9625 13.4625L13.4625 8.9625C13.0125 8.7375 12.5625 8.625 12 8.625C10.0875 8.625 8.625 10.0875 8.625 12Z" fill="#000D0B"/>
</svg>
