<svg width="40" height="44" viewBox="0 0 40 44" fill="none" xmlns="http://www.w3.org/2000/svg">
<g clip-path="url(#clip0_356_43)">
<path d="M19.9947 0.0102905C25.6886 -0.234144 31.6388 3.68198 33.6762 9.06472C35.4075 13.6384 34.8968 17.9866 32.1815 22.0972C30.6566 24.4073 29.1566 26.7449 27.6584 29.0602C27.4573 29.339 27.242 29.611 27.0534 29.8985C25.1673 32.7674 23.2841 35.6364 21.4039 38.5053C21.0676 39.0218 20.7384 39.5382 19.9804 39.4986V20.6582C20.1851 20.6375 20.3915 20.6203 20.5961 20.5962C24.8185 20.1056 27.5 16.3014 26.3719 12.4042C25.5907 9.7085 23.347 8.05254 19.9804 7.70138L19.9947 0.0102905Z" fill="#F46C1D"/>
<path d="M19.9947 20.6533V39.4937V39.5608C19.3327 39.4403 18.9377 39.022 18.589 38.4919C16.5231 35.3417 14.4359 32.2037 12.3612 29.0622C10.8256 26.6918 9.30784 24.3077 7.74734 21.9512C2.53382 14.0776 6.11567 3.90776 15.2207 0.778302C16.751 0.236649 18.3726 -0.023162 20.0018 0.0122896V7.69822C16.3719 7.99086 13.7456 10.2304 13.4057 13.3202C12.9609 17.3069 15.6566 20.3038 19.9947 20.6533Z" fill="#FF8A47"/>
<path d="M19.9947 39.4935C20.7438 39.5313 21.073 39.0115 21.4181 38.5002C23.3007 35.6313 25.1839 32.7623 27.0676 29.8934C27.2562 29.6059 27.4715 29.3339 27.6726 29.0551C30.4093 29.5405 33.121 30.1051 35.6406 31.3032C36.5756 31.7349 37.4469 32.2854 38.2313 32.9402C40.6423 35.0058 40.605 37.7187 38.1317 39.7121C36.605 40.9411 34.8238 41.702 32.9537 42.2649C28.7617 43.5021 24.3923 44.0833 20.0107 43.9862C20.0107 42.5082 20.0107 41.0301 20.0107 39.552L19.9947 39.4935Z" fill="#75BCFF"/>
<path d="M19.9947 39.5606C19.9947 41.0375 19.9947 42.5156 19.9947 43.9949C14.5463 43.9708 9.20285 43.401 4.18684 41.1374C3.08154 40.6486 2.08314 39.9597 1.24555 39.1079C-0.386118 37.4313 -0.427051 35.2761 1.17081 33.5496C2.53202 32.0778 4.31317 31.2584 6.17971 30.5733C8.17793 29.8383 10.2723 29.4493 12.3523 29.062C14.4324 32.2035 16.5196 35.3415 18.5801 38.4916C18.9377 39.0218 19.3327 39.4401 19.9947 39.5606Z" fill="#A7D4FF"/>
</g>
<defs>
<clipPath id="clip0_356_43">
<rect width="40" height="44" fill="white"/>
</clipPath>
</defs>
</svg>
