<svg width="40" height="44" viewBox="0 0 40 44" fill="none" xmlns="http://www.w3.org/2000/svg">
<g clip-path="url(#clip0_298_4964)">
<path d="M19.9947 0.0103515C25.6886 -0.234083 31.6388 3.68205 33.6762 9.06478C35.4075 13.6385 34.8968 17.9866 32.1815 22.0973C30.6566 24.4074 29.1566 26.745 27.6584 29.0602C27.4573 29.3391 27.242 29.6111 27.0534 29.8985C25.1673 32.7675 23.2841 35.6365 21.4039 38.5054C21.0676 39.0218 20.7384 39.5382 19.9804 39.4986V20.6582C20.1851 20.6376 20.3915 20.6203 20.5961 20.5962C24.8185 20.1057 27.5 16.3014 26.3719 12.4042C25.5907 9.70856 23.347 8.0526 19.9804 7.70144L19.9947 0.0103515Z" fill="#F46C1D"/>
<path d="M19.9947 20.6534V39.4939V39.561C19.3327 39.4405 18.9377 39.0222 18.589 38.492C16.5231 35.3419 14.4359 32.2039 12.3612 29.0624C10.8256 26.692 9.30784 24.3079 7.74734 21.9514C2.53382 14.0778 6.11567 3.90794 15.2207 0.778486C16.751 0.236832 18.3726 -0.0229789 20.0018 0.0124727V7.6984C16.3719 7.99104 13.7456 10.2305 13.4057 13.3204C12.9609 17.3071 15.6566 20.304 19.9947 20.6534Z" fill="#FF8A47"/>
<path d="M19.9947 39.4936C20.7438 39.5314 21.073 39.0116 21.4182 38.5003C23.3007 35.6314 25.1839 32.7624 27.0676 29.8935C27.2562 29.606 27.4715 29.334 27.6726 29.0552C30.4093 29.5406 33.121 30.1052 35.6406 31.3033C36.5756 31.735 37.4469 32.2855 38.2313 32.9403C40.6423 35.006 40.605 37.7188 38.1317 39.7122C36.605 40.9413 34.8238 41.7021 32.9537 42.265C28.7617 43.5023 24.3923 44.0834 20.0107 43.9864C20.0107 42.5083 20.0107 41.0302 20.0107 39.5521L19.9947 39.4936Z" fill="#75BCFF"/>
<path d="M19.9947 39.5607C19.9947 41.0376 19.9947 42.5157 19.9947 43.9949C14.5463 43.9708 9.20286 43.401 4.18684 41.1374C3.08154 40.6487 2.08314 39.9598 1.24556 39.1079C-0.386116 37.4313 -0.427049 35.2762 1.17082 33.5496C2.53203 32.0779 4.31317 31.2585 6.17972 30.5734C8.17794 29.8383 10.2723 29.4493 12.3523 29.062C14.4324 32.2035 16.5196 35.3416 18.5801 38.4917C18.9377 39.0219 19.3327 39.4402 19.9947 39.5607Z" fill="#A7D4FF"/>
</g>
<defs>
<clipPath id="clip0_298_4964">
<rect width="40" height="44" fill="white"/>
</clipPath>
</defs>
</svg>
