<svg width="60" height="59" viewBox="0 0 60 59" fill="none" xmlns="http://www.w3.org/2000/svg">
<g clip-path="url(#clip0_356_142)">
<path d="M37.9867 31.286H26.3655C26.058 28.8775 24.9974 26.6278 23.3351 24.8581C29.5301 21.6531 37.9867 25.2023 37.9867 31.286Z" fill="url(#paint0_linear_356_142)"/>
<path d="M34.1696 32.4304C34.0446 32.4304 33.9208 32.4057 33.8053 32.3578C33.6898 32.31 33.5848 32.2399 33.4964 32.1515C33.408 32.0631 33.3379 31.9581 33.29 31.8426C33.2422 31.7271 33.2176 31.6033 33.2176 31.4782C33.2176 30.5217 30.0307 28.148 25.2883 28.671C25.0358 28.6983 24.7828 28.6241 24.585 28.4648C24.3872 28.3056 24.2607 28.0742 24.2335 27.8217C24.2062 27.5692 24.2804 27.3162 24.4396 27.1184C24.5989 26.9205 24.8302 26.7941 25.0827 26.7668C33.9998 25.8013 36.8783 32.4304 34.1696 32.4304Z" fill="url(#paint1_linear_356_142)"/>
<path d="M53.2463 31.286H37.9867C37.9867 27.634 34.7819 24.6078 30.5 23.8389C38.8047 17.3395 53.2463 21.899 53.2463 31.286Z" fill="url(#paint2_linear_356_142)"/>
<path d="M51.3377 32.4304C51.0848 32.4304 50.8422 32.3302 50.6629 32.1517C50.4837 31.9733 50.3824 31.7312 50.3812 31.4782C50.3812 28.7962 46.5685 24.8 40.749 24.8C35.5999 24.8 34.5317 27.5759 33.5975 26.0203C33.5337 25.9126 33.4918 25.7934 33.4741 25.6695C33.4564 25.5456 33.4633 25.4194 33.4945 25.2982C33.5256 25.1769 33.5803 25.063 33.6555 24.963C33.7307 24.8629 33.8249 24.7787 33.9327 24.7151C35.997 23.4994 38.3535 22.8689 40.749 22.8913C50.7745 22.8913 54.1983 32.4304 51.3377 32.4304Z" fill="url(#paint3_linear_356_142)"/>
<path d="M49.4291 32.4303C49.3041 32.4303 49.1803 32.4057 49.0648 32.3578C48.9493 32.31 48.8444 32.2399 48.756 32.1515C48.6675 32.063 48.5974 31.9581 48.5496 31.8426C48.5017 31.727 48.4771 31.6033 48.4771 31.4782C48.4771 29.6366 42.3134 27.406 37.6023 29.3862C37.3835 29.4399 37.1527 29.4143 36.9511 29.3139C36.7494 29.2134 36.5898 29.0447 36.5008 28.8377C36.4118 28.6307 36.3991 28.3988 36.4649 28.1833C36.5308 27.9678 36.6709 27.7827 36.8604 27.6608C38.4193 27.0186 40.091 26.6948 41.777 26.7087C49.9745 26.7087 51.7847 32.4303 49.4291 32.4303Z" fill="url(#paint4_linear_356_142)"/>
<path d="M63.4998 8.72572L17.9088 7.7736V4.91278H63.4998V8.72572Z" fill="url(#paint5_linear_356_142)"/>
<path d="M63.4998 1.0954L17.9088 2.05199V4.91281H63.4998V1.0954Z" fill="url(#paint6_linear_356_142)"/>
<path d="M17.4619 17.5541C17.3361 17.5548 17.2117 17.5289 17.0966 17.4782C16.9816 17.4276 16.8785 17.3532 16.7941 17.26C16.7097 17.1667 16.646 17.0568 16.607 16.9372C16.5681 16.8177 16.5547 16.6912 16.5679 16.5662C16.6023 16.3423 16.716 16.1383 16.8883 15.9914C17.0607 15.8445 17.2801 15.7645 17.5066 15.7661C18.4464 15.7531 19.3433 15.3707 20.0033 14.7014C20.6633 14.0322 21.0332 13.13 21.0332 12.19V1.53344C21.0268 1.30934 21.1001 1.09029 21.2401 0.915153C21.38 0.740012 21.5775 0.620167 21.7975 0.576899C21.9253 0.558164 22.0556 0.567342 22.1795 0.6038C22.3034 0.640259 22.4179 0.703107 22.5152 0.788069C22.6125 0.873032 22.6902 0.978056 22.743 1.09593C22.7958 1.2138 22.8224 1.34175 22.821 1.47091V12.199C22.8187 13.6193 22.2531 14.9807 21.2485 15.9846C20.2438 16.9884 18.8821 17.5529 17.4619 17.5541Z" fill="url(#paint7_linear_356_142)"/>
<path d="M24.6134 23.8479V0.965818C24.6068 0.756226 24.67 0.550356 24.7929 0.38049C24.9158 0.210623 25.0916 0.086311 25.2928 0.0270665C25.4293 -0.00700117 25.5719 -0.00832618 25.7091 0.0231377C25.8462 0.0546016 25.974 0.117999 26.082 0.208171C26.1901 0.298342 26.2753 0.412738 26.3307 0.542059C26.3862 0.67138 26.4104 0.811971 26.4013 0.952394V23.8345C26.4078 24.0441 26.3447 24.2499 26.2218 24.4198C26.0988 24.5897 25.923 24.714 25.7219 24.7732C25.5853 24.8073 25.4427 24.8086 25.3056 24.7772C25.1684 24.7457 25.0406 24.6823 24.9326 24.5921C24.8246 24.502 24.7394 24.3876 24.6839 24.2582C24.6284 24.1289 24.6043 23.9883 24.6134 23.8479Z" fill="url(#paint8_linear_356_142)"/>
<path d="M28.6361 23.8479V0.965818C28.6296 0.756226 28.6927 0.550356 28.8156 0.38049C28.9386 0.210623 29.1144 0.086311 29.3155 0.0270665C29.452 -0.00700117 29.5947 -0.00832618 29.7318 0.0231377C29.869 0.0546016 29.9967 0.117999 30.1048 0.208171C30.2128 0.298342 30.298 0.412738 30.3535 0.542059C30.4089 0.67138 30.4331 0.811971 30.424 0.952394V23.8345C30.4306 24.0441 30.3674 24.2499 30.2445 24.4198C30.1216 24.5897 29.9457 24.714 29.7446 24.7732C29.6081 24.8073 29.4655 24.8086 29.3283 24.7772C29.1912 24.7457 29.0634 24.6823 28.9554 24.5921C28.8473 24.502 28.7621 24.3876 28.7067 24.2582C28.6512 24.1289 28.627 23.9883 28.6361 23.8479Z" fill="url(#paint9_linear_356_142)"/>
<path d="M32.2119 21.5682V0.965818C32.2053 0.756226 32.2684 0.550356 32.3914 0.38049C32.5143 0.210623 32.6901 0.086311 32.8913 0.0270665C33.0278 -0.00700117 33.1704 -0.00832618 33.3076 0.0231377C33.4447 0.0546016 33.5725 0.117999 33.6805 0.208171C33.7885 0.298342 33.8737 0.412738 33.9292 0.542059C33.9847 0.67138 34.0089 0.811971 33.9997 0.952394V21.5548C34.0063 21.7644 33.9432 21.9702 33.8202 22.1401C33.6973 22.31 33.5215 22.4342 33.3204 22.4935C33.1838 22.5275 33.0412 22.5289 32.9041 22.4975C32.7669 22.466 32.6391 22.4026 32.5311 22.3124C32.4231 22.2222 32.3379 22.1079 32.2824 21.9785C32.2269 21.8492 32.2028 21.7086 32.2119 21.5682Z" fill="url(#paint10_linear_356_142)"/>
<path d="M37.9867 32.4303C37.7338 32.4303 37.4912 32.3301 37.3119 32.1517C37.1327 31.9733 37.0314 31.7311 37.0302 31.4782C37.0302 26.1544 29.4004 22.9851 23.7641 25.8951C23.6529 25.9538 23.5312 25.99 23.406 26.0017C23.2808 26.0134 23.1545 26.0002 23.0343 25.9631C22.9141 25.9259 22.8025 25.8655 22.7057 25.7852C22.6089 25.7049 22.5289 25.6063 22.4702 25.4951C22.4115 25.3838 22.3753 25.2621 22.3636 25.1368C22.3519 25.0116 22.365 24.8853 22.4022 24.7651C22.4393 24.645 22.4998 24.5333 22.5801 24.4365C22.6604 24.3397 22.759 24.2597 22.8702 24.201C24.593 23.328 26.4992 22.8789 28.4305 22.8912C37.9867 22.8912 40.673 32.4303 37.9867 32.4303Z" fill="url(#paint11_linear_356_142)"/>
<path d="M52.2898 31.4783C52.2898 22.9852 38.8226 18.7342 31.09 24.8C30.8902 24.9571 30.6363 25.0284 30.384 24.9982C30.1317 24.968 29.9017 24.8389 29.7446 24.6391C29.5875 24.4393 29.5162 24.1854 29.5464 23.933C29.5766 23.6807 29.7058 23.4507 29.9055 23.2936C38.8449 16.2935 54.1983 21.309 54.1983 31.4783C54.1818 31.7201 54.074 31.9466 53.8969 32.1121C53.7197 32.2775 53.4864 32.3695 53.244 32.3695C53.0017 32.3695 52.7683 32.2775 52.5912 32.1121C52.4141 31.9466 52.3063 31.7201 52.2898 31.4783Z" fill="url(#paint12_linear_356_142)"/>
<path d="M52.2898 31.4783C52.2898 22.9852 38.8226 18.7342 31.09 24.8C30.8902 24.9571 30.6363 25.0284 30.384 24.9982C30.1317 24.968 29.9017 24.8389 29.7446 24.6391C29.5875 24.4393 29.5162 24.1854 29.5464 23.933C29.5766 23.6807 29.7058 23.4507 29.9055 23.2936C38.8449 16.2935 54.1983 21.309 54.1983 31.4783C54.1818 31.7201 54.074 31.9466 53.8969 32.1121C53.7197 32.2775 53.4864 32.3695 53.244 32.3695C53.0017 32.3695 52.7683 32.2775 52.5912 32.1121C52.4141 31.9466 52.3063 31.7201 52.2898 31.4783Z" fill="url(#paint13_linear_356_142)"/>
<path d="M40.7043 52.7422V59.0002H19.6967V52.7422" fill="#F46C1D"/>
<path d="M55.7895 31.733C55.7895 36.7484 55.1906 38.3844 54.0016 41.3749C50.4974 49.108 42.224 54.5302 32.5829 54.5302H27.7422C14.6415 54.5302 4.49976 44.6693 4.49976 33.074V31.733H55.7895Z" fill="url(#paint14_linear_356_142)"/>
<path d="M55.6197 37.097C55.3358 38.4781 54.9104 39.8262 54.3503 41.1201H6.35914C5.79904 39.8262 5.37366 38.4781 5.08975 37.097H55.6197Z" fill="#F9866E"/>
<path d="M26.3566 31.286H8.47779C7.58385 26.8875 8.40181 22.176 11.4814 20.4908C16.8495 17.5406 25.8739 25.0279 26.3566 31.286Z" fill="url(#paint15_linear_356_142)"/>
<path d="M25.7889 31.286H9.04544C8.92922 30.696 8.8443 30.097 8.78619 29.498H25.4313C25.6215 30.0776 25.7415 30.6779 25.7889 31.286Z" fill="#F7F7FF"/>
<path d="M21.7707 31.286C21.7707 30.0211 21.2682 28.8079 20.3738 27.9135C19.4794 27.019 18.2664 26.5165 17.0015 26.5165C15.7366 26.5165 14.5236 27.019 13.6292 27.9135C12.7348 28.8079 12.2323 30.0211 12.2323 31.286H21.7707Z" fill="url(#paint16_linear_356_142)"/>
<path d="M21.4846 31.286H12.5452C12.5368 30.6732 12.6523 30.065 12.8849 29.498H21.136C21.3737 30.0637 21.4923 30.6724 21.4846 31.286Z" fill="#F6BE3E"/>
</g>
<defs>
<linearGradient id="paint0_linear_356_142" x1="30.6564" y1="31.286" x2="30.6564" y2="23.6512" gradientUnits="userSpaceOnUse">
<stop stop-color="#F9CB5A"/>
<stop offset="1" stop-color="#FCD97D"/>
</linearGradient>
<linearGradient id="paint1_linear_356_142" x1="29.6865" y1="32.4304" x2="29.6865" y2="26.6774" gradientUnits="userSpaceOnUse">
<stop stop-color="#FEE28A"/>
<stop offset="1" stop-color="#FFF0C3"/>
</linearGradient>
<linearGradient id="paint2_linear_356_142" x1="30.5" y1="26.0382" x2="53.2463" y2="26.0382" gradientUnits="userSpaceOnUse">
<stop stop-color="#F9CB5A"/>
<stop offset="1" stop-color="#FCD97D"/>
</linearGradient>
<linearGradient id="paint3_linear_356_142" x1="42.8855" y1="32.4304" x2="42.8855" y2="22.8913" gradientUnits="userSpaceOnUse">
<stop stop-color="#FEE28A"/>
<stop offset="1" stop-color="#FFF0C3"/>
</linearGradient>
<linearGradient id="paint4_linear_356_142" x1="43.404" y1="32.4303" x2="43.404" y2="26.7087" gradientUnits="userSpaceOnUse">
<stop stop-color="#FEE28A"/>
<stop offset="1" stop-color="#FFF0C3"/>
</linearGradient>
<linearGradient id="paint5_linear_356_142" x1="40.7043" y1="8.73019" x2="40.7043" y2="4.91278" gradientUnits="userSpaceOnUse">
<stop stop-color="#F3D49E"/>
<stop offset="1" stop-color="#FBE8BF"/>
</linearGradient>
<linearGradient id="paint6_linear_356_142" x1="40.7043" y1="4.91281" x2="40.7043" y2="1.0954" gradientUnits="userSpaceOnUse">
<stop stop-color="#F3D49E"/>
<stop offset="1" stop-color="#FBE8BF"/>
</linearGradient>
<linearGradient id="paint7_linear_356_142" x1="19.6967" y1="17.5541" x2="19.6967" y2="0.56796" gradientUnits="userSpaceOnUse">
<stop stop-color="#FEE28A"/>
<stop offset="1" stop-color="#FFF0C3"/>
</linearGradient>
<linearGradient id="paint8_linear_356_142" x1="25.5073" y1="24.8" x2="25.5073" y2="0.000263598" gradientUnits="userSpaceOnUse">
<stop stop-color="#FEE28A"/>
<stop offset="1" stop-color="#FFF0C3"/>
</linearGradient>
<linearGradient id="paint9_linear_356_142" x1="29.5301" y1="24.8" x2="29.5301" y2="0.000263598" gradientUnits="userSpaceOnUse">
<stop stop-color="#FEE28A"/>
<stop offset="1" stop-color="#FFF0C3"/>
</linearGradient>
<linearGradient id="paint10_linear_356_142" x1="33.1058" y1="22.5203" x2="33.1058" y2="0.000262775" gradientUnits="userSpaceOnUse">
<stop stop-color="#FEE28A"/>
<stop offset="1" stop-color="#FFF0C3"/>
</linearGradient>
<linearGradient id="paint11_linear_356_142" x1="30.6698" y1="32.4303" x2="30.6698" y2="22.8912" gradientUnits="userSpaceOnUse">
<stop stop-color="#FEE28A"/>
<stop offset="1" stop-color="#FFF0C3"/>
</linearGradient>
<linearGradient id="paint12_linear_356_142" x1="41.8709" y1="32.4304" x2="41.8709" y2="20.0394" gradientUnits="userSpaceOnUse">
<stop stop-color="#FEE28A"/>
<stop offset="1" stop-color="#FFF0C3"/>
</linearGradient>
<linearGradient id="paint13_linear_356_142" x1="41.8709" y1="32.4304" x2="41.8709" y2="20.0394" gradientUnits="userSpaceOnUse">
<stop stop-color="#FEE28A"/>
<stop offset="1" stop-color="#FFF0C3"/>
</linearGradient>
<linearGradient id="paint14_linear_356_142" x1="30.1424" y1="54.5302" x2="30.1446" y2="31.1565" gradientUnits="userSpaceOnUse">
<stop stop-color="#FF5D00"/>
<stop offset="1" stop-color="#FF9152"/>
</linearGradient>
<linearGradient id="paint15_linear_356_142" x1="17.2563" y1="31.286" x2="17.2563" y2="19.8248" gradientUnits="userSpaceOnUse">
<stop stop-color="#F6F6FB"/>
<stop offset="1" stop-color="#FAFAFC"/>
</linearGradient>
<linearGradient id="paint16_linear_356_142" x1="17.0015" y1="575.292" x2="17.0015" y2="26.4494" gradientUnits="userSpaceOnUse">
<stop stop-color="#F9CB5A"/>
<stop offset="1" stop-color="#FCD97D"/>
</linearGradient>
<clipPath id="clip0_356_142">
<rect width="59" height="59" fill="white" transform="translate(0.499756)"/>
</clipPath>
</defs>
</svg>
