<svg width="32" height="32" viewBox="0 0 32 32" fill="none" xmlns="http://www.w3.org/2000/svg">
<path fill-rule="evenodd" clip-rule="evenodd" d="M8.14283 3H23.8571C25.5929 3 27 4.40711 27 6.14286V26.5714C27 28.3072 25.5929 29.7143 23.8571 29.7143H8.14283C6.40708 29.7143 4.99997 28.3072 4.99997 26.5714V6.14286C4.99997 4.40711 6.40708 3 8.14283 3ZM11.2857 10.0714C10.8518 10.0714 10.5 10.4232 10.5 10.8571C10.5 11.2911 10.8518 11.6429 11.2857 11.6429H20.7143C21.1482 11.6429 21.5 11.2911 21.5 10.8571C21.5 10.4232 21.1482 10.0714 20.7143 10.0714H11.2857ZM11.2857 16.3572C10.8518 16.3572 10.5 16.7089 10.5 17.1429C10.5 17.5768 10.8518 17.9286 11.2857 17.9286H20.7143C21.1482 17.9286 21.5 17.5768 21.5 17.1429C21.5 16.7089 21.1482 16.3572 20.7143 16.3572H11.2857ZM11.2857 22.6429C10.8518 22.6429 10.5 22.9946 10.5 23.4286C10.5 23.8625 10.8518 24.2143 11.2857 24.2143H17.5714C18.0054 24.2143 18.3571 23.8625 18.3571 23.4286C18.3571 22.9946 18.0054 22.6429 17.5714 22.6429H11.2857Z" fill="#1A1A19"/>
</svg>
