<svg width="24" height="24" viewBox="0 0 24 24" fill="none" xmlns="http://www.w3.org/2000/svg">
<path fill-rule="evenodd" clip-rule="evenodd" d="M21.2916 12.9214C21.7334 12.9214 22.0916 12.5632 22.0916 12.1214C22.0916 11.6795 21.7334 11.3214 21.2916 11.3214L12.9921 11.3214L12.9921 2.82087C12.9921 2.37905 12.6339 2.02087 12.1921 2.02087C11.7503 2.02087 11.3921 2.37905 11.3921 2.82087L11.3921 11.3214L2.89159 11.3214C2.44977 11.3214 2.09159 11.6795 2.09159 12.1214C2.09159 12.5632 2.44977 12.9214 2.89159 12.9214L11.3921 12.9214L11.3921 21.2209C11.3921 21.6627 11.7503 22.0209 12.1921 22.0209C12.6339 22.0209 12.9921 21.6627 12.9921 21.2209L12.9921 12.9214L21.2916 12.9214Z" fill="#000D0B"/>
</svg>
