<svg width="32" height="32" viewBox="0 0 32 32" fill="none" xmlns="http://www.w3.org/2000/svg">
<path d="M6.00562 27.2C6.00521 27.2 6.00474 27.2 6.00419 27.2C5.99898 27.1998 5.98763 27.1993 5.97106 27.1981C5.93764 27.1957 5.88468 27.1906 5.81902 27.1796C5.68391 27.1571 5.516 27.1136 5.35777 27.0345C5.20267 26.9569 5.07191 26.8532 4.97814 26.7125C4.8877 26.5768 4.8 26.36 4.8 26C4.8 25.2054 5.22044 23.4109 6.81569 21.8157C8.38749 20.2439 11.1687 18.8 16 18.8C20.8313 18.8 23.6125 20.2439 25.1843 21.8157C26.7796 23.4109 27.2 25.2054 27.2 26C27.2 26.36 27.1123 26.5768 27.0219 26.7125C26.9281 26.8532 26.7973 26.9569 26.6422 27.0345C26.484 27.1136 26.3161 27.1571 26.181 27.1796C26.1153 27.1906 26.0624 27.1957 26.0289 27.1981C26.0201 27.1988 26.0127 27.1992 26.007 27.1995C26.002 27.1997 25.9982 27.1999 25.9958 27.2C25.9953 27.2 25.9948 27.2 25.9944 27.2H6.00562ZM19.677 13.677C18.7018 14.6521 17.3791 15.2 16 15.2C14.6209 15.2 13.2982 14.6521 12.323 13.677C11.3479 12.7018 10.8 11.3791 10.8 10C10.8 8.62087 11.3479 7.29823 12.323 6.32305C13.2982 5.34786 14.6209 4.8 16 4.8C17.3791 4.8 18.7018 5.34786 19.677 6.32305C20.6521 7.29823 21.2 8.62087 21.2 10C21.2 11.3791 20.6521 12.7018 19.677 13.677Z" stroke="#1A1A19" stroke-width="1.6"/>
</svg>
