<svg width="32" height="32" viewBox="0 0 32 32" fill="none" xmlns="http://www.w3.org/2000/svg">
<path d="M6.00903 27C6.00504 26.9998 5.99697 26.9995 5.98531 26.9986C5.95721 26.9966 5.91053 26.9921 5.8519 26.9824C5.72989 26.962 5.5825 26.9232 5.44721 26.8556C5.31584 26.7899 5.21489 26.7071 5.14455 26.6015C5.07838 26.5023 5 26.325 5 26C5 25.2568 5.40054 23.5137 6.95711 21.9571C8.48436 20.4298 11.2109 19 16 19C20.7891 19 23.5156 20.4298 25.0429 21.9571C26.5995 23.5137 27 25.2568 27 26C27 26.325 26.9216 26.5023 26.8554 26.6015C26.7851 26.7071 26.6842 26.7899 26.5528 26.8556C26.4175 26.9232 26.2701 26.962 26.1481 26.9824C26.0895 26.9921 26.0428 26.9966 26.0147 26.9986C26.003 26.9995 25.995 26.9998 25.991 27H6.00903ZM19.5355 13.5355C18.5979 14.4732 17.3261 15 16 15C14.6739 15 13.4021 14.4732 12.4645 13.5355C11.5268 12.5979 11 11.3261 11 10C11 8.67392 11.5268 7.40215 12.4645 6.46447C13.4021 5.52678 14.6739 5 16 5C17.3261 5 18.5979 5.52678 19.5355 6.46447C20.4732 7.40215 21 8.67392 21 10C21 11.3261 20.4732 12.5979 19.5355 13.5355Z" fill="#1A1A19" stroke="#1A1A19" stroke-width="2"/>
</svg>
