<svg width="24" height="24" viewBox="0 0 24 24" fill="none" xmlns="http://www.w3.org/2000/svg">
<rect x="3.8" y="3.8" width="16.4" height="16.4" rx="2.2" stroke="#000D0B" stroke-width="1.6" stroke-linejoin="round"/>
<path fill-rule="evenodd" clip-rule="evenodd" d="M12.8002 8.00001C12.8002 7.55818 12.442 7.20001 12.0002 7.20001C11.5584 7.20001 11.2002 7.55818 11.2002 8.00001V11.2H8.0002C7.55837 11.2 7.2002 11.5582 7.2002 12C7.2002 12.4418 7.55837 12.8 8.0002 12.8H11.2002V16C11.2002 16.4418 11.5584 16.8 12.0002 16.8C12.442 16.8 12.8002 16.4418 12.8002 16V12.8H16.0002C16.442 12.8 16.8002 12.4418 16.8002 12C16.8002 11.5582 16.442 11.2 16.0002 11.2H12.8002V8.00001Z" fill="#000D0B"/>
</svg>
