<svg width="32" height="32" viewBox="0 0 32 32" fill="none" xmlns="http://www.w3.org/2000/svg">
<path d="M11.5821 15.0025C12.7346 15.0025 13.8871 14.9968 15.0407 15.0025C16.2432 15.0093 16.9903 15.7476 16.9938 16.9459C17.0021 19.2516 17.0021 21.5577 16.9938 23.8642C16.9938 24.5775 16.6531 25 16.0854 25C15.5176 25 15.177 24.5854 15.177 23.8744C15.177 21.7004 15.1645 19.5254 15.1861 17.3514C15.1861 16.9357 15.093 16.8107 14.6603 16.8153C12.4677 16.8391 10.2751 16.8278 8.08366 16.8244C7.46369 16.8244 7.0799 16.5325 7.0095 16.0373C6.93001 15.4693 7.35695 15.015 8.00872 15.015C9.20097 14.9946 10.391 15.0025 11.5821 15.0025Z" fill="#1A1A19"/>
<path d="M24.9967 10.0286C24.9967 10.4376 25.0042 10.8457 24.9967 11.2547C24.9721 12.2545 24.2742 12.9637 23.2843 12.9872C22.428 13.0043 21.574 13.0043 20.722 12.9872C19.7288 12.9669 19.0268 12.2502 19.0096 11.2494C18.9968 10.4149 18.9968 9.58033 19.0096 8.74579C19.0257 7.74606 19.731 7.03685 20.722 7.01228C21.5783 6.99591 22.4323 6.99591 23.2843 7.01228C24.2775 7.03258 24.9721 7.74713 24.9967 8.75007C25.0042 9.17623 24.9967 9.6024 24.9967 10.0286ZM22.0374 8.71909C20.7156 8.71909 20.7156 8.71909 20.7156 10.0286V10.082C20.7156 11.2804 20.7156 11.2911 21.9347 11.275C22.3713 11.2697 22.9503 11.4769 23.204 11.1778C23.418 10.9258 23.2789 10.3682 23.281 9.94526C23.2853 8.71909 23.2821 8.71909 22.0374 8.71909Z" fill="#1A1A19"/>
<path d="M10.027 19.0053C10.4352 19.0053 10.8445 18.9968 11.2527 19.0053C12.2541 19.0289 12.9626 19.7249 12.9872 20.7161C13.0043 21.5715 13.0043 22.4247 12.9872 23.2758C12.9669 24.2691 12.2519 24.9694 11.2495 24.9865C10.4153 25.0029 9.58028 25.0044 8.74459 24.9908C7.72081 24.9737 7.02084 24.2627 7.00801 23.2245C6.99733 22.4062 6.99733 21.5864 7.00801 20.7653C7.02191 19.7121 7.7347 19.016 8.80123 19C9.20946 19 9.61769 19.0043 10.027 19.0053ZM9.99386 23.2822C11.2762 23.2822 11.2762 23.2822 11.2762 22.0451C11.2762 20.7182 11.2762 20.7182 9.97355 20.7182C8.7136 20.7182 8.7136 20.7182 8.7136 21.9831C8.7168 23.2811 8.7168 23.2811 9.99386 23.2811V23.2822Z" fill="#1A1A19"/>
<path d="M24.9957 21.9941C24.9957 22.4214 25.0053 22.8487 24.9957 23.2759C24.9679 24.2469 24.2739 24.9605 23.3092 24.985C22.4387 25.005 21.5675 25.005 20.6956 24.985C19.7331 24.9626 19.0315 24.2469 19.0123 23.2759C18.9959 22.4214 18.9959 21.569 19.0123 20.7187C19.0326 19.7285 19.7491 19.0256 20.7512 19.0096C21.5868 18.9968 22.4223 18.9968 23.2579 19.0096C24.2824 19.0256 24.9775 19.7381 24.9979 20.7732C25.0021 21.177 24.9957 21.5839 24.9957 21.9941ZM22.0013 20.7123C20.718 20.7123 20.718 20.7123 20.718 21.9503C20.718 23.2738 20.718 23.2738 22.0238 23.2738C23.2825 23.2738 23.2825 23.2738 23.2825 22.0101C23.2825 20.7123 23.2825 20.7123 22.0045 20.7123H22.0013Z" fill="#1A1A19"/>
<path d="M3.00389 7.27004C3.00389 6.72405 2.99514 6.17806 3.00389 5.63208C3.03122 4.16447 4.13887 3.03865 5.59861 3.01135C6.72813 2.99169 7.85764 3.00152 8.98826 3.01135C9.61807 3.01135 10.0128 3.37388 9.99968 3.90458C9.98766 4.41344 9.60386 4.75195 9.00138 4.75632C8.00088 4.76505 6.9982 4.75632 5.99662 4.75632C4.99503 4.75632 4.75557 5.01184 4.75448 6.02628C4.75448 7.00905 4.75448 7.99183 4.75448 8.9746C4.75448 9.61231 4.40567 10.0043 3.87973 9.99996C3.35379 9.9956 3.0181 9.60467 3.01154 8.96368C2.99842 8.39804 3.00279 7.83458 3.00389 7.27004Z" fill="#1A1A19"/>
<path d="M28.9923 7.32187C28.9923 7.88724 29 8.45152 28.9923 9.0158C28.9825 9.61397 28.6368 10 28.1237 10C27.6106 10 27.2484 9.62053 27.2484 9.02783C27.2386 8.00753 27.2484 6.98834 27.2484 5.96586C27.2484 5.02758 26.9804 4.75419 26.0592 4.7531C25.057 4.7531 24.0549 4.7531 23.0527 4.7531C22.4051 4.7531 22.0123 4.42503 22.0003 3.89793C21.9882 3.35115 22.3887 3.00668 23.0681 3.0034C24.1424 3.0034 25.2179 2.99575 26.2922 3.0034C27.8622 3.01652 28.9792 4.1243 29 5.68262C28.9989 6.2294 28.9923 6.77619 28.9923 7.32187Z" fill="#1A1A19"/>
<path d="M7.22876 28.9951C6.68262 28.9951 6.13647 29.0061 5.59032 28.9951C4.90874 28.9877 4.25719 28.7134 3.77531 28.231C3.29344 27.7485 3.0196 27.0963 3.0125 26.4142C2.99175 25.2675 3.00048 24.1186 3.0125 22.9729C3.0125 22.3761 3.37187 21.9978 3.88634 22C4.40081 22.0022 4.75034 22.3837 4.76017 22.9839C4.76891 24.0584 4.76017 25.1319 4.76017 26.2065C4.76017 26.9203 5.08131 27.2406 5.7913 27.2461C6.84646 27.2526 7.90162 27.2461 8.95896 27.2461C9.60232 27.2461 9.99337 27.5806 9.99992 28.1097C10.0065 28.6388 9.61543 28.9842 8.97971 28.994C8.38878 29.0006 7.81096 28.9951 7.22876 28.9951Z" fill="#1A1A19"/>
<path d="M24.7331 28.9952C24.1504 28.9952 23.5677 29.0028 22.9839 28.9952C22.3848 28.9864 22 28.643 22 28.1301C22 27.6172 22.3728 27.2552 22.9675 27.2487C24.0236 27.2388 25.0797 27.2487 26.138 27.2487C26.9503 27.2487 27.2444 26.9447 27.2465 26.119C27.2465 25.0986 27.2465 24.0783 27.2465 23.0568C27.2465 22.4007 27.5669 22.0157 28.096 22.0004C28.6426 21.9851 28.9925 22.3919 28.9947 23.0634C28.9947 24.157 29.0067 25.2506 28.9947 26.3443C28.9761 27.8753 27.8555 28.9788 26.3205 28.9996C25.7892 29.0017 25.2612 28.9952 24.7331 28.9952Z" fill="#1A1A19"/>
<path d="M7.00479 10.3499C7.00479 9.81473 6.99514 9.27959 7.00479 8.74444C7.02623 7.74265 7.72832 7.02555 8.71983 7.01057C9.82495 6.99345 10.9301 6.99987 12.0352 7.01057C12.6205 7.01057 12.9935 7.35627 12.9999 7.85824C13.0064 8.36021 12.629 8.71447 12.0513 8.71983C11.1059 8.72946 10.1605 8.74016 9.21719 8.7134C8.8313 8.7027 8.68981 8.78618 8.70482 9.2036C8.74019 10.1283 8.71983 11.0541 8.71447 11.9799C8.71447 12.6093 8.38539 12.9935 7.86981 12.9999C7.35423 13.0063 7.01229 12.6232 7.0005 12.0035C6.99836 11.4576 7.00372 10.9054 7.00479 10.3499Z" fill="#1A1A19"/>
<path d="M13.4885 12.9961C12.698 12.9961 11.9087 13.0048 11.112 12.9961C10.4365 12.9862 9.99875 12.5822 10 12.0018C10.0013 11.4214 10.434 11.0162 11.117 11.0075C12.7163 10.9975 14.3169 10.9975 15.9187 11.0075C16.5566 11.0075 16.9819 11.4114 16.9994 11.9695C17.0182 12.5512 16.5779 12.9787 15.9137 12.9899C15.1095 13.0073 14.299 12.9961 13.4885 12.9961Z" fill="#1A1A19"/>
<path d="M16.999 7.99821C16.999 8.67925 16.6945 8.99306 16.0232 8.99974C15.3319 9.01059 15 8.68175 15 7.98402C15 7.88721 15 7.78956 15 7.69358C15.0349 7.27627 15.4392 6.99751 16.0045 7.00002C16.5697 7.00252 16.9628 7.28462 16.9953 7.70443C17.004 7.80458 16.9977 7.90139 16.999 7.99821Z" fill="#1A1A19"/>
<path d="M20.4694 16.9961C20.3209 16.9961 20.1725 17.0048 20.024 16.9961C19.4263 16.9539 19.0091 16.5528 19.0001 16.0176C18.9912 15.4824 19.3982 15.0553 19.9946 15.0168C20.3543 14.9944 20.7151 14.9944 21.0747 15.0168C21.3255 15.0403 21.5585 15.1527 21.7292 15.3325C21.8999 15.5123 21.9962 15.7468 21.9999 15.9912C22.0035 16.2356 21.9142 16.4727 21.7489 16.6572C21.5837 16.8417 21.3541 16.9606 21.1042 16.9912C20.8943 17.011 20.6806 16.9912 20.4643 16.9912L20.4694 16.9961Z" fill="#1A1A19"/>
<path d="M23.9974 17C23.3222 17 23.0059 16.6866 23.0001 16.0112C22.9942 15.3358 23.3139 15.0012 23.9816 15C24.6827 15 25.009 15.3271 24.9998 16.02C24.9915 16.6929 24.6768 17 23.9974 17Z" fill="#1A1A19"/>
</svg>
