<svg width="24" height="24" viewBox="0 0 24 24" fill="none" xmlns="http://www.w3.org/2000/svg">
<path d="M11.9199 21.14C12.6434 21.14 13.2299 20.5535 13.2299 19.83C13.2299 19.1065 12.6434 18.52 11.9199 18.52C11.1964 18.52 10.6099 19.1065 10.6099 19.83C10.6099 20.5535 11.1964 21.14 11.9199 21.14Z" fill="#000D0B"/>
<path d="M18.34 9.07002C18.3259 9.75704 18.1835 10.4354 17.92 11.07C17.6857 11.6985 17.3477 12.2833 16.92 12.8C16.0035 13.847 14.7778 14.5754 13.42 14.88C13.2455 14.919 13.0896 15.0167 12.9786 15.1569C12.8675 15.2971 12.808 15.4712 12.81 15.65C12.81 15.95 12.81 16.58 11.93 16.65C11.8085 16.6659 11.685 16.6539 11.5687 16.6151C11.4525 16.5763 11.3466 16.5116 11.259 16.4259C11.1714 16.3402 11.1044 16.2358 11.063 16.1204C11.0216 16.0051 11.0069 15.8819 11.02 15.76V15.68C11.0248 15.0947 11.2255 14.528 11.59 14.07C11.9515 13.6106 12.4599 13.2893 13.03 13.16C14.0168 12.9483 14.9081 12.4219 15.57 11.66C16.2041 10.9412 16.559 10.0185 16.57 9.06002C16.5469 8.47372 16.4081 7.89779 16.1615 7.36536C15.9149 6.83293 15.5655 6.35452 15.1333 5.95766C14.7011 5.5608 14.1947 5.25333 13.6433 5.05294C13.0918 4.85254 12.5061 4.76319 11.92 4.79002C11.3347 4.76591 10.7504 4.85761 10.2006 5.05985C9.65082 5.26209 9.14638 5.57089 8.71621 5.96854C8.28605 6.36618 7.93863 6.84485 7.69389 7.37708C7.44914 7.90931 7.31189 8.48462 7.29001 9.07002C7.29563 9.18622 7.27705 9.30232 7.23545 9.41096C7.19385 9.5196 7.13014 9.61842 7.04835 9.70115C6.96655 9.78388 6.86847 9.84872 6.76031 9.89156C6.65215 9.9344 6.53627 9.95431 6.42001 9.95002C6.18279 9.95024 5.95464 9.85882 5.78322 9.69485C5.61179 9.53087 5.51032 9.30702 5.50001 9.07002C5.49842 8.25262 5.67234 7.44441 6.01001 6.70002C6.33764 5.96032 6.81029 5.29384 7.40001 4.74002C8.63333 3.61075 10.2478 2.98924 11.92 3.00002C13.5922 2.98924 15.2067 3.61075 16.44 4.74002C17.022 5.28122 17.494 5.92977 17.83 6.65002C18.1748 7.40974 18.3488 8.23578 18.34 9.07002V9.07002Z" fill="#000D0B"/>
</svg>
