<svg width="24" height="24" viewBox="0 0 24 24" fill="none" xmlns="http://www.w3.org/2000/svg">
<path fill-rule="evenodd" clip-rule="evenodd" d="M12 3.6C16.6392 3.6 20.4 7.36081 20.4 12C20.4 16.6392 16.6392 20.4 12 20.4C7.36081 20.4 3.6 16.6392 3.6 12C3.6 7.36081 7.36081 3.6 12 3.6ZM12 2C17.5228 2 22 6.47715 22 12C22 17.5228 17.5228 22 12 22C6.47715 22 2 17.5228 2 12C2 6.47715 6.47715 2 12 2Z" fill="#000D0B"/>
<path d="M12.039 17.5443C12.4379 17.5443 12.7612 17.221 12.7612 16.8222C12.7612 16.4233 12.4379 16.1 12.039 16.1C11.6402 16.1 11.3169 16.4233 11.3169 16.8222C11.3169 17.221 11.6402 17.5443 12.039 17.5443Z" fill="#000D0B"/>
<path fill-rule="evenodd" clip-rule="evenodd" d="M13.0612 16.8222C13.0612 17.3867 12.6036 17.8443 12.039 17.8443C11.4745 17.8443 11.0169 17.3867 11.0169 16.8222C11.0169 16.2576 11.4745 15.8 12.039 15.8C12.6036 15.8 13.0612 16.2576 13.0612 16.8222ZM12.7612 16.8222C12.7612 17.221 12.4379 17.5443 12.039 17.5443C11.6402 17.5443 11.3169 17.221 11.3169 16.8222C11.3169 16.4233 11.6402 16.1 12.039 16.1C12.4379 16.1 12.7612 16.4233 12.7612 16.8222Z" fill="#000D0B"/>
<path d="M15.5782 10.3462C15.5705 10.725 15.492 11.0989 15.3467 11.4488C15.2175 11.7952 15.0312 12.1176 14.7954 12.4025C14.2902 12.9796 13.6145 13.3812 12.866 13.5491C12.7698 13.5706 12.6839 13.6245 12.6227 13.7017C12.5614 13.779 12.5286 13.875 12.5297 13.9736C12.5297 14.1389 12.5297 14.4862 12.0446 14.5248C11.9776 14.5336 11.9095 14.527 11.8455 14.5056C11.7814 14.4842 11.723 14.4485 11.6747 14.4013C11.6264 14.354 11.5895 14.2965 11.5667 14.2329C11.5438 14.1693 11.5357 14.1014 11.543 14.0342V13.9901C11.5456 13.6675 11.6563 13.355 11.8572 13.1026C12.0565 12.8493 12.3367 12.6722 12.651 12.6009C13.195 12.4842 13.6863 12.194 14.0512 11.774C14.4008 11.3777 14.5964 10.8691 14.6025 10.3407C14.5897 10.0175 14.5132 9.70004 14.3773 9.40653C14.2414 9.11302 14.0487 8.84929 13.8105 8.63052C13.5723 8.41174 13.2931 8.24224 12.9891 8.13178C12.6851 8.02131 12.3622 7.97205 12.0391 7.98684C11.7165 7.97355 11.3944 8.0241 11.0913 8.13559C10.7882 8.24707 10.5101 8.41731 10.273 8.63651C10.0358 8.85572 9.84433 9.11959 9.70941 9.41299C9.57449 9.70639 9.49883 10.0235 9.48677 10.3462C9.48987 10.4103 9.47962 10.4743 9.45669 10.5342C9.43376 10.5941 9.39863 10.6486 9.35355 10.6942C9.30846 10.7398 9.25439 10.7755 9.19476 10.7991C9.13514 10.8228 9.07126 10.8337 9.00717 10.8314C8.8764 10.8315 8.75063 10.7811 8.65613 10.6907C8.56162 10.6003 8.50569 10.4769 8.50001 10.3462C8.49913 9.89564 8.595 9.45011 8.78115 9.03975C8.96176 8.63198 9.22232 8.26458 9.54741 7.95927C10.2273 7.33675 11.1173 6.99414 12.0391 7.00008C12.9609 6.99414 13.8509 7.33675 14.5308 7.95927C14.8517 8.25762 15.1119 8.61514 15.2971 9.01219C15.4871 9.431 15.5831 9.88636 15.5782 10.3462V10.3462Z" fill="#000D0B"/>
<path fill-rule="evenodd" clip-rule="evenodd" d="M15.0212 12.6001C14.474 13.2251 13.7422 13.66 12.9317 13.8418C12.9026 13.8483 12.8763 13.8647 12.8578 13.888C12.8393 13.9114 12.8294 13.9404 12.8297 13.9702L12.8298 13.9736C12.8297 13.9766 12.8297 13.9799 12.8298 13.9834C12.83 14.0651 12.8304 14.2589 12.7331 14.4393C12.6164 14.6554 12.3963 14.796 12.0755 14.8233C11.966 14.8364 11.855 14.825 11.7504 14.7901C11.6433 14.7543 11.5457 14.6947 11.465 14.6157C11.3842 14.5368 11.3224 14.4405 11.2843 14.3342C11.2482 14.2336 11.2341 14.1265 11.243 14.0201V13.9876C11.2462 13.5983 11.3796 13.2212 11.6219 12.9164C11.8637 12.6094 12.2036 12.3948 12.5847 12.3083L12.5881 12.3076C13.0685 12.2045 13.5025 11.9482 13.8248 11.5773L13.8262 11.5756C14.1266 11.2351 14.2954 10.7987 14.3024 10.3449C14.2903 10.0639 14.2233 9.78789 14.1051 9.5326C13.9858 9.27498 13.8167 9.0435 13.6076 8.85148C13.3985 8.65946 13.1535 8.51069 12.8866 8.41373C12.6198 8.31678 12.3364 8.27354 12.0528 8.28652C12.0441 8.28692 12.0355 8.28694 12.0268 8.28658C11.7436 8.27492 11.4609 8.31929 11.1948 8.41714C10.9288 8.51499 10.6848 8.66441 10.4766 8.85681C10.2685 9.04921 10.1004 9.28081 9.98197 9.53833C9.86506 9.79256 9.79885 10.0671 9.78699 10.3466C9.78989 10.4472 9.77287 10.5474 9.73685 10.6415C9.69906 10.7402 9.64118 10.8299 9.56688 10.9051C9.49258 10.9802 9.40348 11.0391 9.30523 11.0781C9.20875 11.1163 9.10551 11.1344 9.00183 11.1313C8.79572 11.1301 8.5978 11.0501 8.44876 10.9075C8.29835 10.7636 8.20934 10.5672 8.20029 10.3593L8.19974 10.3468C8.19878 9.85373 8.30386 9.36616 8.50739 8.91704C8.70422 8.47308 8.98802 8.07305 9.34203 7.74059L9.34479 7.73799C10.08 7.06481 11.0423 6.69413 12.0391 6.70007C13.0359 6.69413 13.9982 7.06483 14.7334 7.73801L14.7351 7.73957C15.0843 8.06423 15.3674 8.45329 15.569 8.88536L15.5703 8.88821C15.7784 9.34693 15.8835 9.8457 15.8782 10.3494L15.5782 10.3462C15.5831 9.88636 15.4871 9.43099 15.2971 9.01219C15.1119 8.61514 14.8517 8.25762 14.5308 7.95927C13.8509 7.33675 12.9609 6.99413 12.0391 7.00007C11.1173 6.99413 10.2273 7.33675 9.5474 7.95927C9.22231 8.26458 8.96176 8.63198 8.78115 9.03975C8.595 9.4501 8.49912 9.89564 8.5 10.3462C8.50569 10.4769 8.56162 10.6003 8.65612 10.6907C8.75063 10.7811 8.87639 10.8315 9.00717 10.8314C9.07125 10.8337 9.13513 10.8227 9.19476 10.7991C9.25438 10.7755 9.30845 10.7398 9.35354 10.6942C9.39863 10.6486 9.43375 10.5941 9.45669 10.5342C9.47962 10.4743 9.48986 10.4103 9.48676 10.3462C9.49883 10.0235 9.57449 9.70639 9.70941 9.41299C9.84432 9.11959 10.0358 8.85572 10.273 8.63651C10.5101 8.4173 10.7882 8.24707 11.0913 8.13558C11.3943 8.0241 11.7165 7.97355 12.0391 7.98683C12.3622 7.97205 12.6851 8.0213 12.9891 8.13177C13.2931 8.24224 13.5722 8.41174 13.8105 8.63052C14.0487 8.84929 14.2414 9.11302 14.3773 9.40653C14.5132 9.70004 14.5897 10.0175 14.6025 10.3407C14.5964 10.8691 14.4008 11.3777 14.0512 11.774C13.6863 12.194 13.195 12.4842 12.651 12.6009C12.3367 12.6722 12.0565 12.8493 11.8572 13.1026C11.6563 13.355 11.5456 13.6675 11.543 13.9901V14.0342C11.5357 14.1014 11.5438 14.1693 11.5667 14.2329C11.5895 14.2965 11.6264 14.354 11.6747 14.4013C11.723 14.4485 11.7814 14.4842 11.8455 14.5056C11.9095 14.527 11.9776 14.5336 12.0446 14.5248C12.5297 14.4862 12.5297 14.1389 12.5297 13.9736C12.5286 13.875 12.5614 13.779 12.6227 13.7017C12.6839 13.6245 12.7698 13.5706 12.866 13.5491C13.6145 13.3812 14.2902 12.9796 14.7954 12.4025C15.0312 12.1176 15.2175 11.7952 15.3467 11.4488C15.4919 11.0989 15.5705 10.725 15.5782 10.3462L15.8782 10.3524C15.8697 10.7667 15.7841 11.1758 15.6259 11.5587C15.4851 11.9347 15.2825 12.2845 15.0265 12.5937L15.0212 12.6001Z" fill="#000D0B"/>
</svg>
