<svg width="26" height="23" viewBox="0 0 26 23" fill="none" xmlns="http://www.w3.org/2000/svg">
<path d="M18.9843 22.1872L13.6045 19.555C13.2202 19.3669 12.7652 19.3669 12.3809 19.555L7.00107 22.1872C6.03028 22.6573 4.90779 21.8958 5.08982 20.8993L6.12129 15.334C6.19207 14.9391 6.0505 14.5349 5.74713 14.2529L1.39877 10.3139C0.62011 9.60885 1.04483 8.36793 2.12687 8.22692L8.13367 7.41844C8.55839 7.36204 8.93255 7.10822 9.12469 6.75098L11.8146 1.68391C12.3 0.772029 13.6955 0.772029 14.1809 1.68391L16.8708 6.75098C17.063 7.10822 17.4371 7.36204 17.8619 7.41844L23.8686 8.22692C24.9507 8.37733 25.3855 9.60885 24.5967 10.3139L20.2484 14.2529C19.9349 14.5349 19.7933 14.9391 19.8742 15.334L20.9057 20.8993C21.0877 21.8958 19.9652 22.6667 18.9944 22.1872H18.9843Z" fill="#FFD971" stroke="#FBAF00"/>
</svg>
