<svg width="32" height="32" viewBox="0 0 32 32" fill="none" xmlns="http://www.w3.org/2000/svg">
<path d="M29.6625 12.2375C29.5593 11.9096 29.3603 11.6202 29.0912 11.4063C28.8221 11.1925 28.4952 11.064 28.1525 11.0375L20.72 10.395C20.675 10.3906 20.6321 10.3741 20.5958 10.3472C20.5595 10.3204 20.5311 10.2842 20.5137 10.2425L17.61 3.3225C17.4755 3.00682 17.2512 2.73763 16.9649 2.54843C16.6787 2.35923 16.3431 2.25835 16 2.25835C15.6569 2.25835 15.3213 2.35923 15.035 2.54843C14.7488 2.73763 14.5245 3.00682 14.39 3.3225L11.4862 10.2425C11.4688 10.2842 11.4405 10.3204 11.4042 10.3472C11.3678 10.3741 11.3249 10.3906 11.28 10.395L3.84749 11.0375C3.50479 11.064 3.17787 11.1925 2.90878 11.4063C2.63969 11.6202 2.44073 11.9096 2.33749 12.2375C2.22815 12.5658 2.2186 12.9192 2.31004 13.2529C2.40149 13.5866 2.58982 13.8858 2.85124 14.1125L8.48999 19.0312C8.52451 19.0619 8.55016 19.1013 8.56423 19.1453C8.57831 19.1893 8.5803 19.2362 8.56999 19.2812L6.87499 26.595C6.79597 26.9317 6.81852 27.2843 6.93977 27.6082C7.06102 27.9322 7.27554 28.2129 7.55624 28.415C7.83258 28.6189 8.1637 28.7353 8.50685 28.7491C8.84999 28.7629 9.1894 28.6735 9.48124 28.4925L15.87 24.6175C15.9075 24.5943 15.9508 24.5819 15.995 24.5819C16.0391 24.5819 16.0824 24.5943 16.12 24.6175L22.5087 28.4925C22.8036 28.673 23.1454 28.7622 23.4908 28.7487C23.8363 28.7352 24.1701 28.6196 24.4499 28.4166C24.7298 28.2136 24.9433 27.9323 25.0635 27.6081C25.1836 27.2839 25.205 26.9314 25.125 26.595L23.435 19.2787C23.4247 19.2337 23.4267 19.1868 23.4407 19.1428C23.4548 19.0988 23.4805 19.0594 23.515 19.0287L29.1537 14.11C29.4138 13.8829 29.6009 13.5839 29.6914 13.2507C29.7819 12.9175 29.7719 12.565 29.6625 12.2375ZM28.1625 12.9775L22.5237 17.8962C22.2835 18.1053 22.1048 18.376 22.007 18.6791C21.9092 18.9821 21.896 19.3062 21.9687 19.6162L23.6587 26.9325C23.6712 26.9817 23.6685 27.0335 23.6508 27.081C23.6332 27.1286 23.6015 27.1696 23.56 27.1987C23.5224 27.2288 23.4762 27.2462 23.4281 27.2482C23.38 27.2502 23.3325 27.2368 23.2925 27.21L16.9037 23.335C16.6314 23.1694 16.3187 23.0819 16 23.0819C15.6812 23.0819 15.3686 23.1694 15.0962 23.335L8.70749 27.21C8.66751 27.2368 8.62 27.2502 8.57189 27.2482C8.52378 27.2462 8.47757 27.2288 8.43999 27.1987C8.39846 27.1696 8.36678 27.1286 8.34914 27.081C8.3315 27.0335 8.32875 26.9817 8.34124 26.9325L10.0312 19.6162C10.104 19.3062 10.0908 18.9821 9.99296 18.6791C9.89516 18.376 9.7165 18.1053 9.47624 17.8962L3.83749 12.9775C3.79892 12.9447 3.77123 12.901 3.75806 12.8521C3.74489 12.8032 3.74687 12.7515 3.76374 12.7037C3.77636 12.6562 3.80373 12.6139 3.84192 12.5829C3.8801 12.5519 3.92713 12.5338 3.97624 12.5312L11.41 11.8887C11.7282 11.8616 12.033 11.7479 12.2912 11.56C12.5495 11.372 12.7513 11.117 12.875 10.8225L15.7787 3.9025C15.7989 3.85955 15.8309 3.82323 15.871 3.7978C15.9111 3.77236 15.9575 3.75885 16.005 3.75885C16.0524 3.75885 16.0989 3.77236 16.139 3.7978C16.1791 3.82323 16.211 3.85955 16.2312 3.9025L19.125 10.8225C19.2482 11.1163 19.4493 11.3709 19.7066 11.5588C19.9639 11.7467 20.2676 11.8608 20.585 11.8887L28.0187 12.5312C28.0679 12.5338 28.1149 12.5519 28.1531 12.5829C28.1912 12.6139 28.2186 12.6562 28.2312 12.7037C28.2487 12.751 28.2515 12.8024 28.2392 12.8513C28.2269 12.9001 28.2002 12.9441 28.1625 12.9775Z" fill="#1A1A19"/>
</svg>
