<svg width="24" height="24" viewBox="0 0 24 24" fill="none" xmlns="http://www.w3.org/2000/svg">
<path fill-rule="evenodd" clip-rule="evenodd" d="M11.9737 2.2C12.2782 2.2 12.5564 2.37293 12.6911 2.64606L15.4259 8.18953L21.5618 9.07665C21.8627 9.12015 22.1129 9.3304 22.2076 9.61927C22.3023 9.90814 22.225 10.2257 22.0083 10.4388L17.5695 14.8037L18.6044 20.8654C18.6557 21.1656 18.532 21.4688 18.2855 21.6476C18.0389 21.8264 17.7122 21.8497 17.4428 21.7077L11.9737 18.8254L6.50455 21.7077C6.23513 21.8497 5.90845 21.8264 5.66191 21.6476C5.41536 21.4688 5.29172 21.1656 5.34298 20.8654L6.37791 14.8037L1.93909 10.4388C1.72234 10.2257 1.64512 9.90814 1.73979 9.61927C1.83446 9.3304 2.08467 9.12015 2.38553 9.07665L8.52146 8.18953L11.2562 2.64606C11.391 2.37293 11.6691 2.2 11.9737 2.2ZM11.9737 4.80821L9.77007 9.27499C9.65347 9.51134 9.42794 9.67511 9.1671 9.71282L4.2114 10.4293L7.79776 13.9559C7.98447 14.1395 8.06951 14.4028 8.02544 14.661L7.19305 19.5363L11.6007 17.2133C11.8341 17.0903 12.1132 17.0903 12.3467 17.2133L16.7543 19.5363L15.9219 14.661C15.8779 14.4028 15.9629 14.1395 16.1496 13.9559L19.736 10.4293L14.7803 9.71282C14.5194 9.67511 14.2939 9.51134 14.1773 9.27499L11.9737 4.80821Z" fill="#000D0B"/>
</svg>
