<svg width="24" height="24" viewBox="0 0 24 24" fill="none" xmlns="http://www.w3.org/2000/svg">
<path fill-rule="evenodd" clip-rule="evenodd" d="M10.7145 3.80001C6.89584 3.80001 3.8002 6.89566 3.8002 10.7143C3.8002 14.533 6.89584 17.6286 10.7145 17.6286C12.6083 17.6286 14.3243 16.8673 15.573 15.634C15.5826 15.6233 15.5925 15.6128 15.6028 15.6026C15.6131 15.5923 15.6235 15.5824 15.6342 15.5728C16.8675 14.324 17.6288 12.6081 17.6288 10.7143C17.6288 6.89566 14.5332 3.80001 10.7145 3.80001ZM17.2743 16.1427C18.4951 14.6691 19.2288 12.7774 19.2288 10.7143C19.2288 6.012 15.4168 2.20001 10.7145 2.20001C6.01219 2.20001 2.2002 6.012 2.2002 10.7143C2.2002 15.4167 6.01219 19.2286 10.7145 19.2286C12.7776 19.2286 14.6693 18.4949 16.1429 17.274L20.4345 21.5657C20.7469 21.8781 21.2535 21.8781 21.5659 21.5657C21.8783 21.2532 21.8783 20.7467 21.5659 20.4343L17.2743 16.1427Z" fill="#000D0B"/>
<path fill-rule="evenodd" clip-rule="evenodd" d="M2.10019 10.7143C2.10019 5.95677 5.95695 2.10001 10.7145 2.10001C15.4721 2.10001 19.3288 5.95677 19.3288 10.7143C19.3288 12.7688 18.6095 14.6555 17.409 16.136L21.6366 20.3636C21.9881 20.715 21.9881 21.2849 21.6366 21.6364C21.2851 21.9878 20.7153 21.9878 20.3638 21.6364L16.1362 17.4088C14.6558 18.6093 12.769 19.3286 10.7145 19.3286C5.95695 19.3286 2.10019 15.4719 2.10019 10.7143ZM10.7145 2.30001C6.06741 2.30001 2.30019 6.06723 2.30019 10.7143C2.30019 15.3614 6.06741 19.1286 10.7145 19.1286C12.7535 19.1286 14.6228 18.4035 16.0791 17.197L16.1492 17.1389L20.5052 21.4949C20.7786 21.7683 21.2218 21.7683 21.4952 21.4949C21.7686 21.2216 21.7686 20.7784 21.4952 20.505L17.1392 16.149L17.1973 16.0789C18.4037 14.6226 19.1288 12.7533 19.1288 10.7143C19.1288 6.06723 15.3616 2.30001 10.7145 2.30001ZM10.7145 3.90001C6.95106 3.90001 3.90019 6.95089 3.90019 10.7143C3.90019 14.4778 6.95106 17.5286 10.7145 17.5286C12.5799 17.5286 14.2701 16.7792 15.5007 15.5648C15.5108 15.5536 15.5213 15.5426 15.5321 15.5318C15.5429 15.521 15.5539 15.5106 15.5651 15.5004C16.7794 14.2698 17.5288 12.5797 17.5288 10.7143C17.5288 6.95089 14.478 3.90001 10.7145 3.90001ZM3.70019 10.7143C3.70019 6.84043 6.84061 3.70001 10.7145 3.70001C14.5884 3.70001 17.7288 6.84043 17.7288 10.7143C17.7288 12.6354 16.9564 14.3763 15.7054 15.643L15.7012 15.6473C15.6918 15.6557 15.6825 15.6642 15.6735 15.6733C15.6645 15.6823 15.6558 15.6915 15.6474 15.7008L15.6434 15.7053C14.3767 16.9563 12.6356 17.7286 10.7145 17.7286C6.84061 17.7286 3.70019 14.5882 3.70019 10.7143Z" fill="#000D0B"/>
</svg>
