<svg width="48" height="40" viewBox="0 0 48 40" fill="none" xmlns="http://www.w3.org/2000/svg">
<g clip-path="url(#clip0_356_48)">
<path d="M0.0487263 28.1367C0.0487263 24.3776 0.0374886 20.6166 0.0112457 16.8575C0.0112457 16.3605 0.18744 16.2363 0.659811 16.24C2.37309 16.253 4.08638 16.2307 5.79966 16.2214H42.2041C43.9174 16.2307 45.6306 16.253 47.3421 16.24C47.8182 16.24 47.9925 16.3642 47.9887 16.8612C47.9625 20.6185 47.9606 24.3776 47.9513 28.1367H40.3483C40.249 26.6865 40.2452 26.6308 38.92 26.6883C38.1064 26.7235 38.0052 26.3749 38.0258 25.711C38.0821 23.964 37.8384 24.2274 39.4879 24.2033C39.7691 24.2033 40.0503 24.2033 40.3296 24.2033C42.429 24.2033 42.4084 24.2033 42.3653 22.1503C42.3522 21.5828 42.1778 21.4085 41.6155 21.4085C39.7747 21.4345 37.934 21.4512 36.0951 21.4085C35.366 21.39 35.2104 21.6496 35.2179 22.3154C35.2422 24.257 35.1991 26.2006 35.1823 28.1422L29.6094 28.1163C29.6094 26.5103 29.6094 24.9043 29.585 23.2945C29.5475 21.0283 30.0124 21.3751 27.5231 21.3158C26.867 21.2991 26.6533 21.5272 26.6627 22.1707C26.6908 24.1458 26.6627 26.1227 26.6627 28.1052L24.627 28.1422C24.6083 27.215 24.6026 26.2877 24.5689 25.3698C24.4902 23.1276 22.6569 21.4308 20.3307 21.4308C18.0045 21.4308 16.1824 23.1202 16.1075 25.3679C16.0756 26.2952 16.0587 27.2224 16.0362 28.1385H13.3145L13.1401 28.1107C12.3322 27.0666 11.1926 26.731 9.93665 26.6772C9.47927 26.6568 9.07252 26.5937 8.77635 26.2043C8.33585 25.622 8.40144 24.8931 8.94879 24.4722C9.5655 23.9956 10.7914 24.1013 11.1007 24.7707C11.395 25.418 11.8355 25.4087 12.3679 25.392C12.6172 25.392 12.8665 25.392 13.1176 25.392C14.1767 25.392 14.2911 25.2232 13.9574 24.1847C13.0671 21.4029 9.24497 20.4182 7.04057 22.4118C5.36666 23.9269 5.2242 25.8389 6.61881 28.1052L0.0487263 28.1367Z" fill="#FF8A47"/>
<path d="M29.6019 28.1163L35.1748 28.1422L35.2404 28.133C35.2304 30.1346 35.2204 32.135 35.2104 34.1342C35.2104 34.4828 35.1823 34.8129 35.7109 34.8092C37.7728 34.7944 39.8347 34.9483 41.8667 34.7443C42.9483 34.6349 42.1497 33.4814 42.3353 32.8286C42.4309 32.4948 42.5115 31.9866 41.8217 32.0145C41.1319 32.0423 40.3915 32.0145 39.6754 32.0145C38.0371 32.0145 38.0765 32.0145 38.0277 30.4344C38.0034 29.6796 38.2152 29.4163 39.0025 29.4497C40.354 29.5072 40.3559 29.4497 40.2902 28.1237L40.3483 28.1348H47.9513C47.9513 31.8661 47.9513 35.5992 47.9981 39.3305C48.0094 40.1131 47.5614 39.9815 47.1078 39.9815H21.2867C14.5198 39.9815 7.75288 39.9685 0.985982 39.9981C0.236187 39.9981 -0.0131213 39.8461 1.10581e-07 39.0523C0.0562347 35.4138 0.0393662 31.7734 0.0487386 28.1348L6.60944 28.1014C6.66006 28.1144 6.71068 28.1256 6.76317 28.1348C7.57482 29.19 8.72199 29.4423 9.97789 29.4942C10.6902 29.5257 11.2488 29.8317 11.3125 30.6403C11.365 31.319 11.0539 31.7882 10.3922 31.9514C9.67424 32.1276 8.9788 32.0312 8.65452 31.2764C8.46707 30.8554 8.24589 30.72 7.8185 30.746C7.31916 30.7778 6.81826 30.7778 6.31891 30.746C5.67971 30.6996 5.59911 30.9815 5.7097 31.5267C6.31891 34.531 10.0885 35.8848 12.5722 33.9784C14.4111 32.5653 14.6735 30.4548 13.2976 28.1385H16.0231H16.1C16.0887 30.1451 16.0775 32.1517 16.0662 34.1583C16.0662 34.468 16.0363 34.85 16.5086 34.787C17.2978 34.6831 18.1657 35.1338 18.8686 34.4977C18.9661 34.4105 18.8986 34.1416 18.9005 33.9561C18.9005 33.1531 18.9005 32.3501 18.9005 31.5453C18.9005 29.3532 18.9005 29.3736 21.088 29.4534C21.6503 29.4738 21.7684 29.6889 21.7534 30.1785C21.7253 31.0427 21.7534 31.9069 21.7534 32.7748C21.7534 34.9427 21.7534 34.9242 23.9709 34.8148C24.4789 34.7888 24.5989 34.6052 24.5933 34.149C24.5689 32.1424 24.567 30.1358 24.5558 28.1293L24.6214 28.1385L26.6571 28.1014C26.6929 28.1179 26.7307 28.1297 26.7696 28.1367C26.7696 30.1136 26.7696 32.0905 26.7377 34.0711C26.7283 34.6275 26.8914 34.8315 27.4744 34.8129C28.9421 34.7777 30.4098 34.8018 31.8775 34.8018C33.9564 34.8018 33.9395 34.8018 33.9076 32.7618C33.9076 32.2055 33.7651 31.9848 33.1728 32.02C32.2356 32.0608 31.2983 31.9996 30.3611 32.0404C29.7594 32.0682 29.5363 31.8884 29.5551 31.2652C29.5869 30.2193 29.5269 29.1696 29.5063 28.1218L29.6019 28.1163Z" fill="#F46C1D"/>
<path d="M10.1897 16.2214H5.79967C9.45242 13.1887 13.1058 10.1596 16.7598 7.13431C18.1713 5.96782 19.5959 4.82174 21.0149 3.66452C21.3522 4.52825 21.9674 5.25815 22.7657 5.74157C22.4189 6.04757 22.0796 6.36283 21.7216 6.66883C17.8789 9.85365 14.0349 13.0378 10.1897 16.2214Z" fill="#042F58"/>
<path d="M42.2041 16.2214H37.814C37.321 15.7967 36.8356 15.3646 36.3351 14.9492C32.6361 11.8745 28.9365 8.80276 25.2362 5.73416C26.0341 5.24995 26.6487 4.51939 26.9851 3.65524L42.2041 16.2214Z" fill="#042F58"/>
<path d="M26.9851 3.65709C26.6487 4.52123 26.0341 5.25179 25.2362 5.73599C24.43 5.9724 23.5719 5.9724 22.7657 5.73599C21.9674 5.25258 21.3522 4.52268 21.0149 3.65894C20.9005 2.307 21.2361 1.14422 22.492 0.415395C22.9423 0.152919 23.4543 0.0120436 23.9769 0.00686215C24.4995 0.00168068 25.0144 0.132379 25.4699 0.385875C25.9254 0.639371 26.3056 1.00677 26.5725 1.45132C26.8394 1.89587 26.9836 2.40197 26.9907 2.91899C26.9982 3.16564 26.9983 3.41044 26.9851 3.65709Z" fill="#FF8A47"/>
<path d="M16.0362 28.1367C16.0587 27.2094 16.0756 26.2822 16.1075 25.366C16.1825 23.1184 17.9988 21.4289 20.3307 21.4289C22.6626 21.4289 24.4902 23.1258 24.5689 25.3679C24.6027 26.2951 24.6083 27.2224 24.627 28.1404L24.5614 28.1367L16.1131 28.1459L16.0362 28.1367ZM20.3476 26.692C20.9099 26.5214 21.8903 27.1204 21.7815 25.8018C21.7009 24.8245 21.2417 24.2311 20.3738 24.2125C19.4216 24.1921 18.9736 24.7429 18.9005 25.8093C18.8067 27.1204 19.7815 26.5232 20.3457 26.6939L20.3476 26.692Z" fill="#FFDD57"/>
<path d="M13.3145 28.1367C14.6903 30.4585 14.4279 32.5634 12.589 33.9765C10.1054 35.883 6.33576 34.5329 5.72655 31.5249C5.61596 30.9796 5.69656 30.6978 6.33576 30.7441C6.83511 30.776 7.33601 30.776 7.83535 30.7441C8.26273 30.7219 8.48954 30.8535 8.67137 31.2745C8.99565 32.0293 9.69109 32.1257 10.409 31.9495C11.0707 31.7863 11.3819 31.3172 11.3294 30.6384C11.2657 29.8298 10.7071 29.5257 9.99476 29.4923C8.73886 29.4404 7.59167 29.1882 6.78001 28.133L13.1533 28.107L13.3145 28.1367Z" fill="#FFD52E"/>
<path d="M13.1364 28.1107L6.76315 28.1367C6.71066 28.1274 6.66004 28.1163 6.60943 28.1033C5.21481 25.8371 5.35727 23.9251 7.03119 22.4099C9.23558 20.4163 13.0577 21.3974 13.9481 24.1829C14.2817 25.2214 14.1674 25.3846 13.1083 25.3902C12.8571 25.3902 12.6078 25.3902 12.3585 25.3902C11.8261 25.4068 11.3856 25.4161 11.0913 24.7689C10.782 24.092 9.55613 23.9937 8.93943 24.4703C8.39395 24.8913 8.32646 25.6201 8.76696 26.2024C9.06313 26.5919 9.46991 26.6549 9.92728 26.6753C11.1888 26.731 12.3285 27.0666 13.1364 28.1107Z" fill="#FFDD57"/>
<path d="M35.1748 28.1367C35.1916 26.195 35.2348 24.2515 35.2104 22.3098C35.2104 21.644 35.3585 21.3825 36.0876 21.4029C37.9265 21.453 39.7672 21.4363 41.608 21.4029C42.1703 21.3937 42.3578 21.5735 42.3578 22.1447C42.4009 24.1977 42.4215 24.1977 40.3221 24.1977C40.0428 24.1977 39.7598 24.1977 39.4805 24.1977C37.8253 24.2255 38.0746 23.9584 38.0184 25.7054C37.9977 26.3693 38.099 26.718 38.9125 26.6827C40.2378 26.6252 40.2415 26.6827 40.3409 28.1311L40.2827 28.12L35.246 28.1367H35.1748Z" fill="#FFDD57"/>
<path d="M26.7752 28.1367C26.7363 28.1297 26.6985 28.1179 26.6627 28.1014C26.6627 26.1245 26.6927 24.1476 26.6627 22.167C26.6627 21.5235 26.867 21.2954 27.5231 21.3121C30.0031 21.3714 29.5382 21.0246 29.585 23.2908C29.6132 24.895 29.6038 26.501 29.6094 28.1126H29.5232L26.7752 28.1367Z" fill="#FFDD57"/>
<path d="M16.1131 28.1367H24.5614C24.5726 30.1433 24.5745 32.1499 24.5989 34.1564C24.5989 34.6127 24.4845 34.7962 23.9766 34.8222C21.7572 34.9316 21.759 34.9502 21.759 32.7822C21.759 31.9162 21.7384 31.052 21.759 30.1859C21.774 29.6963 21.6559 29.4812 21.0936 29.4608C18.9061 29.3811 18.9061 29.3607 18.9061 31.5527C18.9061 32.3557 18.9061 33.1587 18.9061 33.9636C18.9061 34.149 18.9717 34.4179 18.8742 34.5051C18.1713 35.1412 17.3034 34.6905 16.5142 34.7944C16.0418 34.8574 16.0718 34.4754 16.0718 34.1657C16.0856 32.1567 16.0993 30.147 16.1131 28.1367Z" fill="#FFD52E"/>
<path d="M35.246 28.1367H40.2958C40.3615 29.4719 40.3596 29.5202 39.0081 29.4627C38.2152 29.4293 38.009 29.6926 38.0333 30.4474C38.0821 32.0256 38.0427 32.0256 39.681 32.0275C40.3971 32.0275 41.1131 32.0497 41.8273 32.0275C42.5415 32.0052 42.4365 32.5078 42.3409 32.8416C42.1535 33.4944 42.9539 34.6479 41.8723 34.7573C39.8385 34.9613 37.769 34.8074 35.7165 34.8222C35.1879 34.8222 35.2141 34.4958 35.216 34.1472C35.2235 32.1381 35.2335 30.1346 35.246 28.1367Z" fill="#FFD52E"/>
<path d="M26.7752 28.1367L29.5157 28.107C29.5363 29.1548 29.5963 30.2044 29.5644 31.2504C29.5457 31.8735 29.7687 32.0534 30.3704 32.0256C31.3077 31.9848 32.2449 32.046 33.1822 32.0052C33.7745 31.9774 33.9095 32.2036 33.917 32.747C33.947 34.787 33.9657 34.787 31.8869 34.787C30.4192 34.787 28.9514 34.7628 27.4837 34.7981C26.9008 34.8111 26.7339 34.6126 26.7471 34.0563C26.7771 32.0942 26.7677 30.1173 26.7752 28.1367Z" fill="#FFD52E"/>
<path d="M20.3457 26.6939C19.7833 26.5233 18.8067 27.1204 18.8986 25.8111C18.9717 24.7448 19.4197 24.194 20.3719 24.2144C21.2398 24.2329 21.6991 24.8264 21.7797 25.8037C21.8884 27.1223 20.9062 26.5233 20.3457 26.6939Z" fill="#FF8A47"/>
</g>
<defs>
<clipPath id="clip0_356_48">
<rect width="48" height="40" fill="white"/>
</clipPath>
</defs>
</svg>
