<svg width="32" height="32" viewBox="0 0 32 32" fill="none" xmlns="http://www.w3.org/2000/svg">
<path d="M14.1818 6C12.5636 6 10.9817 6.47985 9.63623 7.37888C8.29074 8.2779 7.24206 9.55572 6.6228 11.0507C6.00354 12.5458 5.84152 14.1908 6.15721 15.778C6.47291 17.3651 7.25215 18.8229 8.39639 19.9672C9.54063 21.1114 10.9985 21.8906 12.5856 22.2063C14.1727 22.522 15.8178 22.36 17.3128 21.7407C18.8078 21.1215 20.0856 20.0728 20.9847 18.7273C21.8837 17.3818 22.3635 15.8 22.3635 14.1818C22.3634 12.0119 21.5014 9.93089 19.967 8.39654C18.4327 6.86219 16.3517 6.00014 14.1818 6Z" stroke="#1A1A19" stroke-width="1.66667" stroke-miterlimit="10"/>
<path d="M20.2859 20.2859L26 26" stroke="#1A1A19" stroke-width="1.66667" stroke-miterlimit="10" stroke-linecap="round"/>
</svg>
