<svg width="32" height="32" viewBox="0 0 32 32" fill="none" xmlns="http://www.w3.org/2000/svg">
<path d="M11 11.1743C11.0033 10.4117 10.7491 9.66978 10.2777 9.0659C9.80632 8.46202 9.14461 8.03064 8.39723 7.84V4.85714C8.39723 4.62981 8.30582 4.4118 8.14312 4.25105C7.98042 4.09031 7.75975 4 7.52965 4C7.29955 4 7.07888 4.09031 6.91618 4.25105C6.75348 4.4118 6.66207 4.62981 6.66207 4.85714V7.84C5.90369 8.01944 5.22858 8.44601 4.74562 9.05093C4.26266 9.65584 4 10.4038 4 11.1743C4 11.9447 4.26266 12.6927 4.74562 13.2976C5.22858 13.9026 5.90369 14.3291 6.66207 14.5086V27.1429C6.66207 27.3702 6.75348 27.5882 6.91618 27.7489C7.07888 27.9097 7.29955 28 7.52965 28C7.75975 28 7.98042 27.9097 8.14312 27.7489C8.30582 27.5882 8.39723 27.3702 8.39723 27.1429V14.5086C9.14461 14.3179 9.80632 13.8866 10.2777 13.2827C10.7491 12.6788 11.0033 11.9369 11 11.1743ZM7.52965 12.8886C7.18647 12.8886 6.85099 12.788 6.56565 12.5997C6.2803 12.4113 6.0579 12.1436 5.92657 11.8303C5.79524 11.5171 5.76088 11.1724 5.82783 10.8398C5.89478 10.5073 6.06004 10.2018 6.30271 9.9621C6.54537 9.72236 6.85455 9.55909 7.19114 9.49294C7.52773 9.42679 7.87661 9.46074 8.19367 9.59049C8.51073 9.72024 8.78172 9.93997 8.97238 10.2219C9.16304 10.5038 9.26481 10.8352 9.26481 11.1743C9.26826 11.4016 9.22593 11.6273 9.14027 11.8382C9.05462 12.0492 8.92736 12.2412 8.76589 12.4031C8.60442 12.565 8.41197 12.6936 8.19973 12.7814C7.9875 12.8691 7.75972 12.9143 7.52965 12.9143V12.8886Z" fill="#1A1A19"/>
<path d="M28 14.14C28.0033 13.3774 27.7491 12.6355 27.2777 12.0316C26.8063 11.4277 26.1446 10.9964 25.3972 10.8057V4.85714C25.3972 4.62981 25.3058 4.4118 25.1431 4.25105C24.9804 4.09031 24.7597 4 24.5297 4C24.2996 4 24.0789 4.09031 23.9162 4.25105C23.7535 4.4118 23.6621 4.62981 23.6621 4.85714V10.8057C22.9037 10.9852 22.2286 11.4117 21.7456 12.0166C21.2627 12.6216 21 13.3695 21 14.14C21 14.9104 21.2627 15.6584 21.7456 16.2634C22.2286 16.8683 22.9037 17.2948 23.6621 17.4743V27.1429C23.6621 27.3702 23.7535 27.5882 23.9162 27.7489C24.0789 27.9097 24.2996 28 24.5297 28C24.7597 28 24.9804 27.9097 25.1431 27.7489C25.3058 27.5882 25.3972 27.3702 25.3972 27.1429V17.4743C26.1446 17.2836 26.8063 16.8523 27.2777 16.2484C27.7491 15.6445 28.0033 14.9026 28 14.14ZM24.5297 15.8543C24.1865 15.8543 23.851 15.7537 23.5656 15.5654C23.2803 15.377 23.0579 15.1093 22.9266 14.796C22.7952 14.4828 22.7609 14.1381 22.8278 13.8056C22.8948 13.473 23.06 13.1676 23.3027 12.9278C23.5454 12.6881 23.8545 12.5248 24.1911 12.4587C24.5277 12.3925 24.8766 12.4265 25.1937 12.5562C25.5107 12.686 25.7817 12.9057 25.9724 13.1876C26.163 13.4695 26.2648 13.8009 26.2648 14.14C26.2694 14.368 26.228 14.5946 26.1428 14.8066C26.0577 15.0185 25.9306 15.2116 25.769 15.3744C25.6074 15.5372 25.4146 15.6666 25.2018 15.7549C24.989 15.8432 24.7605 15.8886 24.5297 15.8886V15.8543Z" fill="#1A1A19"/>
<path d="M19 21.5714C19.0028 20.8088 18.7849 20.0669 18.3809 19.463C17.9768 18.8592 17.4097 18.4278 16.7691 18.2371V4.85714C16.7691 4.62981 16.6907 4.4118 16.5512 4.25105C16.4118 4.09031 16.2226 4 16.0254 4C15.8282 4 15.639 4.09031 15.4996 4.25105C15.3601 4.4118 15.2818 4.62981 15.2818 4.85714V18.2371C14.6317 18.4166 14.0531 18.8432 13.6391 19.4481C13.2251 20.053 13 20.801 13 21.5714C13 22.3419 13.2251 23.0899 13.6391 23.6948C14.0531 24.2997 14.6317 24.7263 15.2818 24.9057V27.1429C15.2818 27.3702 15.3601 27.5882 15.4996 27.7489C15.639 27.9097 15.8282 28 16.0254 28C16.2226 28 16.4118 27.9097 16.5512 27.7489C16.6907 27.5882 16.7691 27.3702 16.7691 27.1429V24.9057C17.4097 24.7151 17.9768 24.2837 18.3809 23.6798C18.7849 23.0759 19.0028 22.334 19 21.5714ZM16.0254 23.2857C15.7313 23.2857 15.4437 23.1852 15.1991 22.9968C14.9545 22.8084 14.7639 22.5407 14.6513 22.2275C14.5388 21.9142 14.5093 21.5695 14.5667 21.237C14.6241 20.9044 14.7658 20.599 14.9737 20.3592C15.1817 20.1195 15.4468 19.9562 15.7353 19.8901C16.0238 19.8239 16.3228 19.8579 16.5946 19.9876C16.8663 20.1174 17.0986 20.3371 17.262 20.619C17.4255 20.9009 17.5127 21.2324 17.5127 21.5714C17.5157 21.7987 17.4794 22.0244 17.4059 22.2354C17.3325 22.4463 17.2234 22.6383 17.085 22.8003C16.9466 22.9622 16.7817 23.0908 16.5998 23.1785C16.4179 23.2663 16.2226 23.3115 16.0254 23.3114V23.2857Z" fill="#1A1A19"/>
</svg>
