<svg width="32" height="32" viewBox="0 0 32 32" fill="none" xmlns="http://www.w3.org/2000/svg">
<path d="M16 20C15.44 20 15 19.56 15 19V3C15 2.44 15.44 2 16 2C16.56 2 17 2.44 17 3V19C17 19.56 16.56 20 16 20Z" fill="#1A1A19"/>
<path d="M20 8C19.8689 8.0016 19.7388 7.97573 19.6183 7.92407C19.4977 7.8724 19.3893 7.79607 19.3 7.7L16 4.4L12.7 7.7C12.3 8.1 11.68 8.1 11.28 7.7C10.88 7.3 10.88 6.68 11.28 6.28L15.3 2.3C15.7 1.9 16.32 1.9 16.72 2.3L20.72 6.3C21.12 6.7 21.12 7.32 20.72 7.72C20.52 7.92 20.26 8.02 20.02 8.02L20 8ZM25 30H7C5.34 30 4 28.66 4 27V13C4 11.34 5.34 10 7 10H10C10.56 10 11 10.44 11 11C11 11.56 10.56 12 10 12H7C6.44 12 6 12.44 6 13V27C6 27.56 6.44 28 7 28H25C25.56 28 26 27.56 26 27V13C26 12.44 25.56 12 25 12H22C21.44 12 21 11.56 21 11C21 10.44 21.44 10 22 10H25C26.66 10 28 11.34 28 13V27C28 28.66 26.66 30 25 30Z" fill="#1A1A19"/>
</svg>
