<svg width="32" height="32" viewBox="0 0 32 32" fill="none" xmlns="http://www.w3.org/2000/svg">
<g clip-path="url(#clip0_285_11)">
<path d="M9.21143 9.21143L1.21143 1.21143M30.2857 21.3943L21.3943 30.2857C21.0729 30.6067 20.6371 30.7871 20.1829 30.7871C19.7286 30.7871 19.2929 30.6067 18.9714 30.2857L4.09143 15.4057C4.00276 15.321 3.93417 15.2174 3.89067 15.1027C3.84716 14.9881 3.82985 14.8651 3.84 14.7429L5.18857 5.96571C5.20429 5.76483 5.29122 5.57617 5.43369 5.43369C5.57617 5.29122 5.76483 5.20429 5.96571 5.18857L14.7429 3.84C14.8651 3.82985 14.9881 3.84716 15.1027 3.89067C15.2174 3.93417 15.321 4.00276 15.4057 4.09143L30.2857 18.9714C30.6067 19.2929 30.7871 19.7286 30.7871 20.1829C30.7871 20.6371 30.6067 21.0729 30.2857 21.3943Z" stroke="#1A1A19" stroke-width="2" stroke-linecap="round" stroke-linejoin="round"/>
</g>
<defs>
<clipPath id="clip0_285_11">
<rect width="32" height="32" fill="white"/>
</clipPath>
</defs>
</svg>
