<svg width="54" height="39" viewBox="0 0 54 39" fill="none" xmlns="http://www.w3.org/2000/svg">
<g clip-path="url(#clip0_356_63)">
<path d="M46.2843 28.6862C46.2719 31.7328 46.2305 34.7821 46.2595 37.8287C46.2698 38.7158 46.0296 38.9708 45.3792 38.9708C38.418 38.9531 31.4555 38.9469 24.4915 38.9522C24.3512 38.937 24.2125 38.9041 24.0773 38.8539C24.0773 36.1818 24.0724 33.5107 24.0627 30.8404C25.3056 30.8218 26.5484 30.7926 27.7912 30.7872C30.0966 30.7872 30.0697 30.7872 30.0552 27.8814C30.0552 26.9359 29.7569 26.819 29.1376 26.819C27.4494 26.8429 25.7613 26.7951 24.0752 26.7738C24.0752 25.5343 24.0703 24.2903 24.0607 23.042C25.3035 23.0207 26.5318 22.9888 27.7684 22.9835C30.1111 22.9835 30.0842 22.9835 30.0469 20.0007C30.0469 19.1746 29.8398 18.9515 29.2184 18.9621C27.5012 18.9887 25.7841 18.9382 24.069 18.917C24.069 16.2609 24.069 13.5994 24.069 10.9327C24.3424 10.9141 24.6179 10.8795 24.8975 10.8795C31.6584 10.8795 38.4215 10.8981 45.1845 10.8503C46.0462 10.8503 46.2678 11.1425 46.2616 12.2395C46.2367 17.7191 46.2698 23.204 46.2843 28.6862ZM36.4329 22.9835C37.2946 22.9835 38.1563 22.9835 39.0201 22.9835C39.3308 22.9835 39.6829 23.0287 39.6871 22.4364C39.6871 21.4616 39.7016 20.4894 39.6871 19.5146C39.6746 18.9329 39.3121 18.9834 39.0035 18.9834C37.829 18.9834 36.6566 18.9834 35.4822 18.9834C33.183 18.9834 33.2037 18.9834 33.2389 21.9211C33.2389 22.7179 33.4046 23.0473 34.055 23.0021C34.8442 22.941 35.6396 22.9835 36.4329 22.9835ZM36.4164 30.7872H37.452C39.83 30.7872 39.8051 30.7872 39.7181 27.7486C39.6953 26.9518 39.4509 26.803 38.9103 26.8216C37.74 26.8588 36.5676 26.8216 35.389 26.8216C33.214 26.8216 33.241 26.8216 33.2285 29.5867C33.2285 30.4791 33.3818 30.8749 34.1379 30.7952C34.8939 30.7155 35.6582 30.7872 36.4164 30.7872Z" fill="#F46C1D"/>
<path d="M46.2843 28.686C46.2698 23.2038 46.2326 17.7189 46.2636 12.2366C46.2636 11.1396 46.0565 10.8421 45.1865 10.8474C38.4235 10.8953 31.6605 10.874 24.8996 10.8767C24.6241 10.8767 24.3486 10.9112 24.071 10.9298L18.9382 10.8049C18.9693 8.35599 18.5964 5.94954 18.4991 3.51387C19.7419 3.07295 21.0241 3.17919 22.2855 3.03045C26.9109 2.49922 31.5445 2.07159 36.1637 1.58817C40.9982 1.0835 45.8349 0.589462 50.6632 0.0183935C51.7569 -0.111757 51.9578 0.411501 52.0282 1.69441C52.3659 7.80352 52.7967 13.9126 53.1944 20.0217C53.3435 22.3087 53.4782 24.5956 53.6398 26.8799C53.6874 27.5678 53.5838 27.9051 52.9521 27.9583C50.7378 28.1522 48.5152 28.447 46.2843 28.686Z" fill="#096ECC"/>
<path d="M12.691 38.8513C11.5289 39.1169 10.3545 38.9495 9.18621 38.9628C6.63636 38.9894 4.08444 38.9628 1.52216 38.9814C0.952539 38.9814 0.65218 38.8858 0.656323 37.9907C0.681179 29.2839 0.681179 20.5771 0.656323 11.8703C0.656323 11.0097 0.913192 10.8556 1.5056 10.8609C3.29526 10.8795 5.08698 10.8291 6.87871 10.8051L12.6785 10.9326C12.6868 20.2397 12.691 29.5459 12.691 38.8513Z" fill="#FFA470"/>
<path d="M12.691 38.8513C12.691 29.5442 12.691 20.238 12.691 10.9326L18.9444 10.8051L24.0773 10.93C24.0773 13.5861 24.0773 16.2476 24.0773 18.9143C22.7702 18.9303 21.4632 18.9568 20.1562 18.9595C17.8652 18.9595 17.8942 18.9595 17.9129 21.8812C17.9129 22.7631 18.1407 23.0207 18.8056 23.0074C20.5601 22.9729 22.3145 23.0074 24.069 23.0287C24.069 24.2682 24.0738 25.5122 24.0835 26.7605C22.7765 26.7765 21.4694 26.8057 20.1645 26.8083C17.8052 26.8083 17.828 26.8083 17.9129 29.8576C17.9357 30.6544 18.1656 30.8058 18.7166 30.8005C20.5042 30.7793 22.2917 30.8165 24.0793 30.8297C24.0793 33.5018 24.0842 36.173 24.0938 38.8433C20.9454 39.1089 17.7907 38.8938 14.6401 38.9469C13.9876 38.9681 13.331 39.0877 12.691 38.8513Z" fill="#FF8A47"/>
<path d="M18.9423 10.8052L12.6889 10.9327L6.88908 10.8052C6.55559 9.17429 6.80621 7.47171 6.51207 5.82756C6.42508 5.34415 6.28836 4.63496 7.02577 4.56059C10.5471 4.21795 14.0684 3.8514 17.5752 3.49814C17.8818 3.46892 18.1966 3.49813 18.5032 3.51142C18.6006 5.94975 18.9734 8.3562 18.9423 10.8052Z" fill="#49A7FF"/>
<path d="M24.0731 23.0393C22.3187 23.026 20.5642 22.9835 18.8098 23.0181C18.1449 23.0313 17.9212 22.7737 17.917 21.8919C17.8984 18.9701 17.8694 18.9701 20.1603 18.9701C21.4673 18.9701 22.7744 18.9409 24.0814 18.925C25.7965 18.9462 27.5136 18.9967 29.2308 18.9701C29.8522 18.9701 30.0594 19.1826 30.0594 20.0087C30.0925 22.9915 30.1194 22.9835 27.7809 22.9915C26.5339 22.9862 25.2973 23.0181 24.0731 23.0393Z" fill="#F7F9FA"/>
<path d="M24.0731 30.8377C22.2855 30.8377 20.4979 30.7872 18.7103 30.8085C18.1593 30.8085 17.9294 30.6518 17.9066 29.8655C17.8217 26.819 17.7989 26.8243 20.1582 26.8163C21.4632 26.8163 22.7702 26.7844 24.0772 26.7685C25.7633 26.7897 27.4515 26.8376 29.1396 26.8137C29.7611 26.8137 30.0552 26.9332 30.0573 27.8761C30.0573 30.7793 30.0987 30.7739 27.7933 30.7819C26.5587 30.7925 25.3159 30.8218 24.0731 30.8377Z" fill="#F7F9FA"/>
<path d="M36.433 22.9835C35.6396 22.9835 34.8442 22.941 34.053 22.9968C33.4026 23.042 33.2451 22.702 33.2368 21.9158C33.2016 18.9781 33.1809 18.9781 35.4801 18.9781C36.6525 18.9781 37.8249 18.9781 39.0014 18.9781C39.3101 18.9781 39.6726 18.9303 39.685 19.5093C39.7036 20.4814 39.6995 21.4536 39.685 22.431C39.685 23.0234 39.3287 22.9782 39.018 22.9782C38.1584 22.9862 37.2946 22.9835 36.433 22.9835Z" fill="#F7F9FA"/>
<path d="M36.4164 30.7872C35.6582 30.7872 34.896 30.7235 34.1379 30.8058C33.3797 30.8882 33.2244 30.4897 33.2285 29.5973C33.241 26.8323 33.214 26.8323 35.389 26.8323C36.5593 26.8323 37.7317 26.8588 38.9103 26.8323C39.4509 26.8137 39.6954 26.9544 39.7181 27.7592C39.8051 30.8005 39.83 30.7979 37.452 30.7979L36.4164 30.7872Z" fill="#F7F9FA"/>
</g>
<defs>
<clipPath id="clip0_356_63">
<rect width="53" height="39" fill="white" transform="translate(0.666687)"/>
</clipPath>
</defs>
</svg>
