<svg width="32" height="32" viewBox="0 0 32 32" fill="none" xmlns="http://www.w3.org/2000/svg">
<path fill-rule="evenodd" clip-rule="evenodd" d="M14.984 3.73201C14.1653 3.84001 13.1547 4.07201 11.7173 4.40401L10.0787 4.78267C8.86532 5.06267 8.02798 5.25734 7.38932 5.47601C6.77198 5.68801 6.42265 5.89601 6.15999 6.16001C5.89599 6.42267 5.68798 6.77201 5.47599 7.38934C5.25732 8.02801 5.06265 8.86401 4.78265 10.0787L4.40399 11.716C4.07199 13.1547 3.83999 14.1653 3.73199 14.984C3.62532 15.7813 3.65065 16.3213 3.79199 16.812C3.93199 17.3027 4.19732 17.7733 4.70932 18.3933C5.23599 19.0307 5.96798 19.7653 7.01198 20.8093L9.45199 23.2493C11.264 25.0613 12.5533 26.348 13.6627 27.1933C14.748 28.0227 15.5427 28.3333 16.3493 28.3333C17.1573 28.3333 17.9507 28.0227 19.0373 27.1933C20.1453 26.348 21.436 25.06 23.248 23.248C25.0613 21.4347 26.348 20.1453 27.1947 19.0373C28.0213 17.9507 28.3333 17.1573 28.3333 16.3493C28.3333 15.5427 28.0227 14.7493 27.1933 13.6627C26.348 12.5533 25.06 11.2627 23.248 9.45067L20.808 7.01067C19.7653 5.96801 19.0307 5.23601 18.3947 4.70934C17.7733 4.19734 17.3027 3.93201 16.812 3.79201C16.3213 3.65067 15.7813 3.62667 14.9853 3.73201H14.984ZM14.7227 1.74934C15.6787 1.62267 16.5173 1.62667 17.3627 1.86934C18.2093 2.11201 18.9227 2.55334 19.6667 3.16667C20.3867 3.76134 21.1867 4.56134 22.188 5.56267L24.716 8.09067C26.4627 9.83734 27.8467 11.2213 28.7827 12.4507C29.748 13.7133 30.3333 14.9293 30.3333 16.3493C30.3333 17.7707 29.748 18.9867 28.784 20.2493C27.8467 21.4787 26.464 22.8627 24.716 24.6093L24.6093 24.716C22.8627 26.4627 21.4787 27.8467 20.2493 28.7827C18.9867 29.748 17.7693 30.3333 16.3493 30.3333C14.9293 30.3333 13.7133 29.748 12.4493 28.784C11.2213 27.8467 9.83732 26.464 8.08932 24.716L5.56398 22.1867C4.56398 21.1867 3.76265 20.3853 3.16798 19.6667C2.55465 18.9213 2.11332 18.208 1.87065 17.3627C1.62799 16.516 1.62398 15.6773 1.75065 14.7213C1.87199 13.796 2.12799 12.692 2.44532 11.3133L2.84532 9.57601C3.11199 8.42534 3.32798 7.48667 3.58532 6.73867C3.85465 5.95601 4.19199 5.29867 4.74665 4.74401C5.30132 4.18934 5.95999 3.85067 6.74132 3.58401C7.48932 3.32534 8.42799 3.10934 9.57865 2.84401L11.316 2.44401C12.6947 2.12401 13.7987 1.87067 14.724 1.74801L14.7227 1.74934ZM12.6533 10.66C12.3407 10.3474 11.9167 10.1718 11.4747 10.1718C11.0326 10.1718 10.6086 10.3474 10.296 10.66C9.98338 10.9726 9.80777 11.3966 9.80777 11.8387C9.80777 12.2808 9.98338 12.7047 10.296 13.0173C10.4508 13.1721 10.6345 13.2949 10.8368 13.3787C11.039 13.4624 11.2558 13.5056 11.4747 13.5056C11.6936 13.5056 11.9103 13.4624 12.1125 13.3787C12.3148 13.2949 12.4985 13.1721 12.6533 13.0173C12.8081 12.8626 12.9309 12.6788 13.0147 12.4766C13.0984 12.2743 13.1415 12.0576 13.1415 11.8387C13.1415 11.6198 13.0984 11.403 13.0147 11.2008C12.9309 10.9985 12.8081 10.8148 12.6533 10.66ZM8.88265 9.24667C9.2223 8.90245 9.62668 8.6288 10.0725 8.4415C10.5183 8.2542 10.9968 8.15694 11.4804 8.15532C11.964 8.1537 12.4431 8.24775 12.8902 8.43206C13.3373 8.61637 13.7435 8.8873 14.0854 9.22924C14.4274 9.57119 14.6983 9.97739 14.8826 10.4245C15.0669 10.8716 15.161 11.3507 15.1593 11.8343C15.1577 12.3178 15.0605 12.7963 14.8732 13.2421C14.6859 13.688 14.4122 14.0924 14.068 14.432C13.3802 15.1198 12.4473 15.5062 11.4747 15.5062C10.502 15.5062 9.56911 15.1198 8.88132 14.432C8.19352 13.7442 7.80712 12.8114 7.80712 11.8387C7.80712 10.866 8.19352 9.93314 8.88132 9.24534L8.88265 9.24667ZM25.4 14.6533C25.5873 14.8408 25.6924 15.095 25.6924 15.36C25.6924 15.625 25.5873 15.8792 25.4 16.0667L16.0947 25.3733C15.9051 25.55 15.6544 25.6461 15.3953 25.6416C15.1362 25.637 14.889 25.5321 14.7058 25.3488C14.5226 25.1656 14.4177 24.9184 14.4131 24.6594C14.4085 24.4003 14.5047 24.1496 14.6813 23.96L23.9853 14.6533C24.0782 14.5604 24.1885 14.4867 24.3098 14.4364C24.4312 14.3861 24.5613 14.3602 24.6927 14.3602C24.824 14.3602 24.9541 14.3861 25.0755 14.4364C25.1968 14.4867 25.3071 14.5604 25.4 14.6533Z" fill="#1A1A19"/>
</svg>
