<svg width="32" height="32" viewBox="0 0 32 32" fill="none" xmlns="http://www.w3.org/2000/svg">
<path d="M26.9422 11.5556V11.2711C26.8816 8.8631 25.8708 6.57685 24.1305 4.91148C22.3902 3.2461 20.0617 2.33685 17.6533 2.38222C15.8597 2.36758 14.1001 2.87157 12.5862 3.83353C11.0723 4.79549 9.8686 6.17444 9.12 7.80444C7.01227 8.03956 5.06415 9.04014 3.64523 10.6164C2.2263 12.1926 1.43528 14.2348 1.42223 16.3556C1.42456 17.4793 1.64834 18.5915 2.08079 19.6286C2.51323 20.6658 3.14586 21.6075 3.9425 22.4001C4.73913 23.1926 5.68416 23.8203 6.72355 24.2473C7.76294 24.6744 8.87631 24.8924 10 24.8889H13.3333V23.1111H10C8.2819 23.0181 6.66293 22.2773 5.46942 21.0379C4.2759 19.7986 3.59659 18.1528 3.5684 16.4324C3.54022 14.7121 4.16526 13.0449 5.31754 11.7671C6.46981 10.4894 8.06365 9.69588 9.77778 9.54666H10.3733L10.5778 8.98666C11.1291 7.55478 12.1067 6.32665 13.3784 5.46823C14.6501 4.6098 16.1547 4.16246 17.6889 4.18666C19.6258 4.14115 21.5022 4.86308 22.9092 6.1951C24.3161 7.52712 25.1396 9.36125 25.2 11.2978C25.2122 11.5347 25.2122 11.772 25.2 12.0089L25.1289 12.6489L25.7067 12.9156C26.8242 13.419 27.7341 14.292 28.2835 15.3876C28.8329 16.4832 28.9882 17.7347 28.7232 18.9313C28.4582 20.128 27.7891 21.1969 26.8285 21.9581C25.8679 22.7194 24.6744 23.1265 23.4489 23.1111H18.6667V24.8889H23.4489C25.0298 24.9002 26.5693 24.3845 27.8243 23.4231C29.0793 22.4617 29.9782 21.1095 30.3788 19.5802C30.7795 18.051 30.6592 16.4318 30.0368 14.9785C29.4144 13.5253 28.3256 12.3208 26.9422 11.5556Z" fill="#1A1A19"/>
<path d="M19.8044 19.4222C19.9818 19.425 20.1559 19.3748 20.3044 19.2779C20.4529 19.1809 20.569 19.0418 20.6378 18.8784C20.7066 18.7149 20.725 18.5347 20.6905 18.3607C20.6561 18.1868 20.5704 18.0271 20.4444 17.9022L16 13.4578L11.5556 17.9022C11.4099 18.0723 11.3338 18.291 11.3425 18.5147C11.3511 18.7384 11.4439 18.9506 11.6022 19.1089C11.7605 19.2673 11.9727 19.36 12.1964 19.3686C12.4201 19.3773 12.6388 19.3012 12.8089 19.1556L15.1111 16.8889V27.7778C15.1111 28.0135 15.2048 28.2396 15.3715 28.4063C15.5382 28.573 15.7642 28.6667 16 28.6667C16.2357 28.6667 16.4618 28.573 16.6285 28.4063C16.7952 28.2396 16.8889 28.0135 16.8889 27.7778V16.8889L19.1733 19.1733C19.3425 19.3365 19.5694 19.426 19.8044 19.4222Z" fill="#1A1A19"/>
</svg>
