<svg width="24" height="24" viewBox="0 0 24 24" fill="none" xmlns="http://www.w3.org/2000/svg">
<path fill-rule="evenodd" clip-rule="evenodd" d="M6.20932 6.36199C7.76148 5.17175 9.73459 4.19995 12.0002 4.19995C14.2653 4.19995 16.2374 5.17137 17.7872 6.34499C19.3377 7.51906 20.5201 8.9356 21.2287 9.93591C21.9885 10.998 21.9907 12.3783 21.2352 13.4423C20.5219 14.5069 19.3392 15.9508 17.7911 17.1379C16.2389 18.3282 14.2658 19.3 12.0002 19.3C9.73459 19.3 7.76148 18.3282 6.20932 17.1379C4.67221 15.9592 3.49531 14.5274 2.78044 13.465C1.98401 12.478 2.03485 11.0863 2.76516 10.0576C3.47848 8.99303 4.6612 7.54913 6.20932 6.36199ZM7.18294 7.63166C5.80178 8.69077 4.73004 9.99772 4.0884 10.9572L4.08122 10.9679L4.0737 10.9784C3.6919 11.5113 3.73834 12.1169 4.03719 12.4744L4.06462 12.5072L4.0884 12.5427C4.73004 13.5022 5.80178 14.8091 7.18294 15.8682C8.56494 16.928 10.2031 17.7 12.0002 17.7C13.7973 17.7 15.4355 16.928 16.8175 15.8682C18.1986 14.8091 19.2704 13.5022 19.912 12.5427L19.9192 12.532L19.9267 12.5215C20.2914 12.0126 20.2914 11.3748 19.9267 10.8659L19.9241 10.8623C19.2783 9.95018 18.2041 8.66767 16.8213 7.62054C15.437 6.57228 13.7978 5.79995 12.0002 5.79995C10.2031 5.79995 8.56494 6.5719 7.18294 7.63166ZM12.0004 9.17495C10.5214 9.17495 9.41484 10.2816 9.41484 11.75C9.41484 13.2183 10.5214 14.325 12.0004 14.325C13.4795 14.325 14.586 13.2183 14.586 11.75C14.586 10.2816 13.4795 9.17495 12.0004 9.17495ZM7.81484 11.75C7.81484 9.39326 9.64246 7.57495 12.0004 7.57495C14.3584 7.57495 16.186 9.39326 16.186 11.75C16.186 14.1066 14.3584 15.925 12.0004 15.925C9.64246 15.925 7.81484 14.1066 7.81484 11.75Z" fill="#000D0B"/>
</svg>
