<svg width="48" height="48" viewBox="0 0 48 48" fill="none" xmlns="http://www.w3.org/2000/svg">
<g clip-path="url(#clip0_10_19586)">
<path d="M19.0863 16.4496C18.5958 16.4044 18.5663 16.8481 18.4224 17.1248C17.2005 19.5071 16.4431 22.0547 15.7394 24.6284C14.9317 27.5867 14.5521 30.6146 14.079 33.6303C13.7653 35.6228 13.065 37.4552 11.5571 38.8473C8.09066 42.0423 2.94296 40.9825 0.932416 36.6843C-0.201116 34.2655 -0.161252 31.7266 0.317119 29.1894C1.23053 24.3361 3.43693 20.0692 6.40942 16.1851C9.12713 12.6335 12.3024 9.59512 16.3079 7.52432C17.4871 6.90834 18.7468 6.46196 20.0499 6.19832C23.6897 5.47093 26.56 6.79519 28.2984 10.0806C29.4492 12.2576 29.9813 14.6172 30.0316 17.0831C29.5879 16.615 29.4111 16.0007 29.1303 15.4403C27.6779 12.5447 24.7089 11.1056 22.1316 12.7083C20.7207 13.5853 19.4294 14.6486 19.0863 16.4496Z" fill="#F78000"/>
<path d="M30.2309 21.084C30.9883 20.2452 31.5533 19.2637 32.2882 18.4006C34.5085 15.7991 37.195 15.0943 40.0739 16.5526C42.1538 17.6106 43.1538 19.4186 43.5057 21.7174C43.6946 22.9581 44.0118 24.1797 44.0257 25.4466C44.0257 25.7946 44.0083 26.1426 43.9997 26.4907C43.556 26.3271 43.5872 25.899 43.5196 25.5544C43.2682 24.3067 42.9424 23.0799 42.3704 21.9419C41.8505 20.8978 40.9838 20.4923 40.1294 20.9308C39.1761 21.4198 38.3823 22.1176 37.9871 23.1722C36.8102 24.3328 36.2209 25.8607 35.4756 27.2842C33.4668 31.1125 31.7319 35.0958 29.4093 38.7693C28.1961 40.6939 26.5842 41.2508 24.48 40.9079C20.5023 40.2606 17.8036 36.0007 18.9736 32.2071C19.1282 32.2756 19.2761 32.3583 19.4155 32.4542C20.7068 33.547 21.4001 33.5836 22.804 32.6282C23.6827 32.0348 24.2651 31.1647 24.8735 30.3329C26.2029 28.518 27.2497 26.522 28.3573 24.5695C29.0003 23.421 29.834 22.3682 30.2309 21.084Z" fill="#F78000"/>
<path d="M30.231 21.084C29.8341 22.3682 29.0004 23.421 28.3522 24.5643C27.2447 26.5168 26.1978 28.5128 24.8684 30.3277C24.2601 31.1595 23.6777 32.0296 22.7989 32.623C21.395 33.5732 20.7017 33.5366 19.4105 32.449C19.2711 32.3531 19.1231 32.2704 18.9685 32.2019C19.8473 26.9588 19.8074 21.7104 19.0864 16.4551C19.433 14.6523 20.7191 13.5891 22.1403 12.7068C24.7176 11.1041 27.6867 12.5432 29.1391 15.4389C29.4199 15.9992 29.5967 16.6135 30.0404 17.0816C30.2952 18.4041 30.2241 19.7458 30.231 21.084Z" fill="#990000"/>
<path d="M37.9873 23.1651C38.3825 22.1106 39.1763 21.4127 40.133 20.9238C40.9997 20.4852 41.8489 20.8872 42.3741 21.9348C42.9461 23.0729 43.2719 24.2997 43.5232 25.5474C43.5908 25.8954 43.5596 26.32 44.0033 26.4836C44.0536 29.0938 44.1212 31.6867 44.6793 34.2482C45.1611 36.4513 45.7192 38.6195 47.0053 40.5268C44.8266 41.1741 42.2372 40.2257 41.0638 38.3794C39.8904 36.5331 39.6391 34.377 39.3635 32.2488C38.9666 29.2104 38.7239 26.1443 37.9873 23.1651Z" fill="#990000"/>
</g>
<defs>
<clipPath id="clip0_10_19586">
<rect width="47" height="35" fill="white" transform="translate(0 6)"/>
</clipPath>
</defs>
</svg>
